G04*
G04 #@! TF.GenerationSoftware,Altium Limited,Altium Designer,22.11.1 (43)*
G04*
G04 Layer_Color=8388736*
%FSLAX44Y44*%
%MOMM*%
G71*
G04*
G04 #@! TF.SameCoordinates,6F39B8F3-CC53-4608-B2D3-CFCE14ACC53A*
G04*
G04*
G04 #@! TF.FilePolarity,Negative*
G04*
G01*
G75*
%ADD22O,1.8532X0.8032*%
%ADD23R,1.5532X1.2032*%
%ADD24R,1.7032X1.4532*%
%ADD25R,1.6532X1.2532*%
%ADD26R,1.2532X1.6532*%
%ADD27R,1.1032X1.1032*%
%ADD28R,1.4532X1.7032*%
%ADD29R,0.8032X1.8232*%
%ADD30R,5.0032X4.7832*%
%ADD31R,1.8032X1.8032*%
%ADD32C,1.8032*%
%ADD33C,3.7032*%
%ADD34O,3.2512X1.7272*%
%ADD35C,3.3782*%
D22*
X241250Y195550D02*
D03*
Y208250D02*
D03*
Y220950D02*
D03*
Y233650D02*
D03*
Y246350D02*
D03*
Y259050D02*
D03*
Y271750D02*
D03*
Y284450D02*
D03*
X178750Y195550D02*
D03*
Y208250D02*
D03*
Y220950D02*
D03*
Y233650D02*
D03*
Y246350D02*
D03*
Y259050D02*
D03*
Y271750D02*
D03*
Y284450D02*
D03*
X241250Y60550D02*
D03*
Y73250D02*
D03*
Y85950D02*
D03*
Y98650D02*
D03*
Y111350D02*
D03*
Y124050D02*
D03*
Y136750D02*
D03*
Y149450D02*
D03*
X178750Y60550D02*
D03*
Y73250D02*
D03*
Y85950D02*
D03*
Y98650D02*
D03*
Y111350D02*
D03*
Y124050D02*
D03*
Y136750D02*
D03*
Y149450D02*
D03*
D23*
X300700Y473300D02*
D03*
Y455300D02*
D03*
X205700Y473300D02*
D03*
Y455300D02*
D03*
X105000Y474000D02*
D03*
Y456000D02*
D03*
D24*
X105000Y415500D02*
D03*
Y394500D02*
D03*
X205000Y415500D02*
D03*
Y394500D02*
D03*
X300000Y415500D02*
D03*
Y394500D02*
D03*
D25*
X165000Y410000D02*
D03*
Y391500D02*
D03*
X370000Y409250D02*
D03*
Y390750D02*
D03*
X265700Y408550D02*
D03*
Y390050D02*
D03*
D26*
X270750Y95000D02*
D03*
X289250D02*
D03*
X270750Y115000D02*
D03*
X289250D02*
D03*
X270750Y135000D02*
D03*
X289250D02*
D03*
D27*
X127500Y150000D02*
D03*
X142500D02*
D03*
X127500Y120000D02*
D03*
X142500D02*
D03*
X127500Y135000D02*
D03*
X142500D02*
D03*
D28*
X119500Y210000D02*
D03*
X140500D02*
D03*
X119500Y235000D02*
D03*
X140500D02*
D03*
X119500Y260000D02*
D03*
X140500D02*
D03*
D29*
X374050Y437900D02*
D03*
X361350D02*
D03*
X348650D02*
D03*
X335950D02*
D03*
X274750Y437200D02*
D03*
X262050D02*
D03*
X249350D02*
D03*
X236650D02*
D03*
X174050Y437900D02*
D03*
X161350D02*
D03*
X148650D02*
D03*
X135950D02*
D03*
D30*
X355000Y475000D02*
D03*
X255700Y474300D02*
D03*
X155000Y475000D02*
D03*
D31*
X137700Y565000D02*
D03*
X227700D02*
D03*
X317700D02*
D03*
D32*
X112300D02*
D03*
X202300D02*
D03*
X292300D02*
D03*
D33*
X430000Y510000D02*
D03*
Y560000D02*
D03*
D34*
X70000Y109499D02*
D03*
Y160299D02*
D03*
Y58699D02*
D03*
Y541299D02*
D03*
Y515899D02*
D03*
Y490499D02*
D03*
Y465099D02*
D03*
Y439699D02*
D03*
Y414299D02*
D03*
Y388899D02*
D03*
Y363499D02*
D03*
Y338099D02*
D03*
Y312699D02*
D03*
Y287299D02*
D03*
Y261899D02*
D03*
Y236499D02*
D03*
Y211099D02*
D03*
Y185699D02*
D03*
Y134899D02*
D03*
Y84099D02*
D03*
X479999Y58699D02*
D03*
Y84099D02*
D03*
Y439699D02*
D03*
Y465099D02*
D03*
Y490499D02*
D03*
Y515899D02*
D03*
Y541299D02*
D03*
Y363499D02*
D03*
Y388899D02*
D03*
Y211099D02*
D03*
Y261899D02*
D03*
Y312699D02*
D03*
Y414299D02*
D03*
Y160299D02*
D03*
Y185699D02*
D03*
Y236499D02*
D03*
Y287299D02*
D03*
Y338099D02*
D03*
Y134899D02*
D03*
Y109499D02*
D03*
D35*
X25400Y25400D02*
D03*
X520700D02*
D03*
Y571500D02*
D03*
X25400D02*
D03*
M02*
