G04*
G04 #@! TF.GenerationSoftware,Altium Limited,Altium Designer,23.2.1 (34)*
G04*
G04 Layer_Color=16711935*
%FSLAX25Y25*%
%MOIN*%
G70*
G04*
G04 #@! TF.SameCoordinates,FA501D23-0FC8-4D01-95ED-A428C5D77BEE*
G04*
G04*
G04 #@! TF.FilePolarity,Negative*
G04*
G01*
G75*
%ADD40R,0.11040X0.06506*%
%ADD51O,0.12800X0.06800*%
%ADD52C,0.05839*%
%ADD53C,0.04737*%
%ADD54C,0.06181*%
%ADD55R,0.05556X0.05556*%
%ADD56C,0.05556*%
%ADD57C,0.06902*%
%ADD58R,0.06902X0.06902*%
%ADD59C,0.07099*%
%ADD60R,0.07099X0.07099*%
%ADD61C,0.13300*%
%ADD62C,0.03950*%
D40*
X156250Y74783D02*
D03*
Y85217D02*
D03*
D51*
X188976Y213110D02*
D03*
Y203110D02*
D03*
Y193110D02*
D03*
Y183110D02*
D03*
Y173110D02*
D03*
Y163110D02*
D03*
Y153110D02*
D03*
Y143110D02*
D03*
Y133110D02*
D03*
Y123110D02*
D03*
Y113110D02*
D03*
Y103110D02*
D03*
Y93110D02*
D03*
Y83110D02*
D03*
Y73110D02*
D03*
Y63110D02*
D03*
Y53110D02*
D03*
Y43110D02*
D03*
Y33110D02*
D03*
Y23110D02*
D03*
X27559Y213110D02*
D03*
Y203110D02*
D03*
Y193110D02*
D03*
Y183110D02*
D03*
Y173110D02*
D03*
Y163110D02*
D03*
Y153110D02*
D03*
Y143110D02*
D03*
Y133110D02*
D03*
Y123110D02*
D03*
Y113110D02*
D03*
Y103110D02*
D03*
Y93110D02*
D03*
Y83110D02*
D03*
Y73110D02*
D03*
Y63110D02*
D03*
Y53110D02*
D03*
Y43110D02*
D03*
Y33110D02*
D03*
Y23110D02*
D03*
D52*
X141408Y208750D02*
D03*
X161092D02*
D03*
D53*
X58755Y18777D02*
D03*
X90156D02*
D03*
D54*
X128750Y173750D02*
D03*
X169732Y64557D02*
D03*
X106250Y166250D02*
D03*
X120777Y77500D02*
D03*
X41250Y106084D02*
D03*
Y131416D02*
D03*
Y118750D02*
D03*
X133750Y55000D02*
D03*
Y41250D02*
D03*
D55*
X56250Y200000D02*
D03*
D56*
Y170000D02*
D03*
X86250D02*
D03*
Y200000D02*
D03*
D57*
X155000Y179234D02*
D03*
Y168998D02*
D03*
D58*
Y158762D02*
D03*
D59*
X87500Y225000D02*
D03*
X67500D02*
D03*
X77500D02*
D03*
X97500D02*
D03*
X107500D02*
D03*
D60*
X57500D02*
D03*
D61*
X10000D02*
D03*
X205000D02*
D03*
Y10000D02*
D03*
X10000D02*
D03*
D62*
X68713Y67425D02*
D03*
X147494Y134999D02*
D03*
X150000Y138750D02*
D03*
X173750Y103750D02*
D03*
Y113750D02*
D03*
X171250Y117500D02*
D03*
X117500Y101250D02*
D03*
X120000Y107500D02*
D03*
X205000D02*
D03*
Y97500D02*
D03*
Y77500D02*
D03*
X140000Y156082D02*
D03*
X145000Y156250D02*
D03*
X118750Y191250D02*
D03*
X115000Y158750D02*
D03*
X112500Y172500D02*
D03*
X122500Y186250D02*
D03*
X154730Y109857D02*
D03*
X80000Y106250D02*
D03*
X73750Y128750D02*
D03*
X146250Y65000D02*
D03*
Y50000D02*
D03*
X87500Y102500D02*
D03*
X78750Y68750D02*
D03*
X135000Y76250D02*
D03*
X166682Y94182D02*
D03*
X146250Y92500D02*
D03*
X113750Y87575D02*
D03*
X117500Y85000D02*
D03*
X122500Y86250D02*
D03*
X132500Y80000D02*
D03*
X140000Y77500D02*
D03*
X63750Y73750D02*
D03*
X61250Y78750D02*
D03*
X85000Y147500D02*
D03*
X97500Y162588D02*
D03*
X61250Y70000D02*
D03*
X72500D02*
D03*
X107500Y153750D02*
D03*
M02*
