G04*
G04 #@! TF.GenerationSoftware,Altium Limited,Altium Designer,23.2.1 (34)*
G04*
G04 Layer_Physical_Order=1*
G04 Layer_Color=255*
%FSLAX25Y25*%
%MOIN*%
G70*
G04*
G04 #@! TF.SameCoordinates,FA501D23-0FC8-4D01-95ED-A428C5D77BEE*
G04*
G04*
G04 #@! TF.FilePolarity,Positive*
G04*
G01*
G75*
%ADD19C,0.01000*%
%ADD21R,0.05709X0.03740*%
%ADD22R,0.03150X0.03937*%
%ADD23R,0.02756X0.02559*%
%ADD24R,0.02410X0.06911*%
G04:AMPARAMS|DCode=25|XSize=69.11mil|YSize=24.1mil|CornerRadius=12.05mil|HoleSize=0mil|Usage=FLASHONLY|Rotation=90.000|XOffset=0mil|YOffset=0mil|HoleType=Round|Shape=RoundedRectangle|*
%AMROUNDEDRECTD25*
21,1,0.06911,0.00000,0,0,90.0*
21,1,0.04501,0.02410,0,0,90.0*
1,1,0.02410,0.00000,0.02251*
1,1,0.02410,0.00000,-0.02251*
1,1,0.02410,0.00000,-0.02251*
1,1,0.02410,0.00000,0.02251*
%
%ADD25ROUNDEDRECTD25*%
%ADD26R,0.04724X0.03543*%
%ADD27R,0.02756X0.05118*%
%ADD28R,0.05700X0.06500*%
%ADD29R,0.05700X0.09600*%
%ADD30R,0.07300X0.06500*%
%ADD31O,0.01181X0.06299*%
%ADD32O,0.06299X0.01181*%
%ADD33R,0.03150X0.03543*%
%ADD34R,0.03985X0.04560*%
%ADD35R,0.03543X0.03150*%
G04:AMPARAMS|DCode=36|XSize=35.43mil|YSize=24.02mil|CornerRadius=6mil|HoleSize=0mil|Usage=FLASHONLY|Rotation=90.000|XOffset=0mil|YOffset=0mil|HoleType=Round|Shape=RoundedRectangle|*
%AMROUNDEDRECTD36*
21,1,0.03543,0.01201,0,0,90.0*
21,1,0.02343,0.02402,0,0,90.0*
1,1,0.01201,0.00600,0.01171*
1,1,0.01201,0.00600,-0.01171*
1,1,0.01201,-0.00600,-0.01171*
1,1,0.01201,-0.00600,0.01171*
%
%ADD36ROUNDEDRECTD36*%
G04:AMPARAMS|DCode=37|XSize=35.43mil|YSize=20.87mil|CornerRadius=5.22mil|HoleSize=0mil|Usage=FLASHONLY|Rotation=90.000|XOffset=0mil|YOffset=0mil|HoleType=Round|Shape=RoundedRectangle|*
%AMROUNDEDRECTD37*
21,1,0.03543,0.01043,0,0,90.0*
21,1,0.02500,0.02087,0,0,90.0*
1,1,0.01043,0.00522,0.01250*
1,1,0.01043,0.00522,-0.01250*
1,1,0.01043,-0.00522,-0.01250*
1,1,0.01043,-0.00522,0.01250*
%
%ADD37ROUNDEDRECTD37*%
%ADD38R,0.06506X0.11040*%
%ADD39R,0.05709X0.04724*%
%ADD40R,0.11040X0.06506*%
%ADD54C,0.06181*%
%ADD63C,0.02500*%
%ADD64C,0.02000*%
%ADD65O,0.12000X0.06000*%
%ADD66C,0.05039*%
%ADD67C,0.03937*%
%ADD68R,0.04756X0.04756*%
%ADD69C,0.04756*%
%ADD70C,0.06102*%
%ADD71R,0.06102X0.06102*%
%ADD72C,0.06299*%
%ADD73R,0.06299X0.06299*%
%ADD74C,0.12500*%
%ADD75C,0.03150*%
G36*
X215732Y803D02*
X803D01*
Y235417D01*
X215732D01*
Y803D01*
D02*
G37*
%LPC*%
G36*
X88500Y229028D02*
Y226000D01*
X91528D01*
X91367Y226602D01*
X90820Y227548D01*
X90048Y228321D01*
X89102Y228867D01*
X88500Y229028D01*
D02*
G37*
G36*
X86500D02*
X85898Y228867D01*
X84952Y228321D01*
X84180Y227548D01*
X83633Y226602D01*
X83472Y226000D01*
X86500D01*
Y229028D01*
D02*
G37*
G36*
X108018Y228937D02*
X106982D01*
X105980Y228669D01*
X105083Y228150D01*
X104350Y227417D01*
X103831Y226520D01*
X103563Y225518D01*
Y224482D01*
X103831Y223480D01*
X104350Y222583D01*
X105083Y221850D01*
X105980Y221331D01*
X106982Y221063D01*
X108018D01*
X109020Y221331D01*
X109917Y221850D01*
X110650Y222583D01*
X111169Y223480D01*
X111437Y224482D01*
Y225518D01*
X111169Y226520D01*
X110650Y227417D01*
X109917Y228150D01*
X109020Y228669D01*
X108018Y228937D01*
D02*
G37*
G36*
X78018D02*
X76982D01*
X75980Y228669D01*
X75083Y228150D01*
X74350Y227417D01*
X73831Y226520D01*
X73563Y225518D01*
Y224482D01*
X73831Y223480D01*
X73939Y223295D01*
X72822Y222178D01*
X72537Y221752D01*
X72437Y221250D01*
Y130763D01*
X72412Y130753D01*
X71747Y130088D01*
X71388Y129220D01*
Y128280D01*
X71747Y127412D01*
X72412Y126747D01*
X73280Y126388D01*
X74220D01*
X75088Y126747D01*
X75753Y127412D01*
X76112Y128280D01*
Y129220D01*
X75753Y130088D01*
X75088Y130753D01*
X75063Y130763D01*
Y220706D01*
X75795Y221439D01*
X75980Y221331D01*
X76982Y221063D01*
X78018D01*
X79020Y221331D01*
X79917Y221850D01*
X80650Y222583D01*
X81169Y223480D01*
X81437Y224482D01*
Y225518D01*
X81169Y226520D01*
X80650Y227417D01*
X79917Y228150D01*
X79020Y228669D01*
X78018Y228937D01*
D02*
G37*
G36*
X68018D02*
X66982D01*
X65980Y228669D01*
X65083Y228150D01*
X64350Y227417D01*
X63831Y226520D01*
X63563Y225518D01*
Y224482D01*
X63831Y223480D01*
X64350Y222583D01*
X65083Y221850D01*
X65980Y221331D01*
X66982Y221063D01*
X68018D01*
X69020Y221331D01*
X69917Y221850D01*
X70650Y222583D01*
X71169Y223480D01*
X71437Y224482D01*
Y225518D01*
X71169Y226520D01*
X70650Y227417D01*
X69917Y228150D01*
X69020Y228669D01*
X68018Y228937D01*
D02*
G37*
G36*
X61437D02*
X53563D01*
Y221063D01*
X61437D01*
Y228937D01*
D02*
G37*
G36*
X91528Y224000D02*
X88500D01*
Y220972D01*
X89102Y221133D01*
X90048Y221679D01*
X90820Y222452D01*
X91367Y223398D01*
X91528Y224000D01*
D02*
G37*
G36*
X86500D02*
X83472D01*
X83633Y223398D01*
X84180Y222452D01*
X84952Y221679D01*
X85898Y221133D01*
X86500Y220972D01*
Y224000D01*
D02*
G37*
G36*
X205616Y232053D02*
X204384D01*
X204307Y232037D01*
X204228D01*
X203020Y231797D01*
X202947Y231767D01*
X202870Y231751D01*
X201732Y231280D01*
X201666Y231237D01*
X201593Y231206D01*
X200570Y230522D01*
X200514Y230466D01*
X200448Y230422D01*
X199578Y229552D01*
X199534Y229486D01*
X199478Y229430D01*
X198794Y228407D01*
X198764Y228333D01*
X198720Y228268D01*
X198249Y227130D01*
X198233Y227053D01*
X198203Y226980D01*
X197963Y225772D01*
Y225693D01*
X197947Y225616D01*
Y224384D01*
X197963Y224307D01*
Y224228D01*
X198203Y223020D01*
X198233Y222947D01*
X198249Y222870D01*
X198720Y221732D01*
X198764Y221667D01*
X198794Y221593D01*
X199478Y220570D01*
X199534Y220514D01*
X199578Y220448D01*
X200448Y219578D01*
X200514Y219534D01*
X200570Y219478D01*
X201593Y218794D01*
X201666Y218763D01*
X201732Y218720D01*
X202870Y218249D01*
X202947Y218233D01*
X203020Y218203D01*
X204228Y217963D01*
X204307D01*
X204384Y217947D01*
X205616D01*
X205693Y217963D01*
X205772D01*
X206980Y218203D01*
X207053Y218233D01*
X207130Y218249D01*
X208268Y218720D01*
X208333Y218763D01*
X208406Y218794D01*
X209430Y219478D01*
X209486Y219534D01*
X209552Y219578D01*
X210422Y220448D01*
X210466Y220514D01*
X210522Y220570D01*
X211206Y221593D01*
X211237Y221667D01*
X211280Y221732D01*
X211752Y222870D01*
X211767Y222947D01*
X211797Y223020D01*
X212037Y224228D01*
Y224307D01*
X212053Y224384D01*
Y225616D01*
X212037Y225693D01*
Y225772D01*
X211797Y226980D01*
X211767Y227053D01*
X211752Y227130D01*
X211280Y228268D01*
X211237Y228333D01*
X211206Y228407D01*
X210522Y229430D01*
X210466Y229486D01*
X210422Y229552D01*
X209552Y230422D01*
X209486Y230466D01*
X209430Y230522D01*
X208406Y231206D01*
X208333Y231237D01*
X208268Y231280D01*
X207130Y231751D01*
X207053Y231767D01*
X206980Y231797D01*
X205772Y232037D01*
X205693D01*
X205616Y232053D01*
D02*
G37*
G36*
X10616D02*
X9384D01*
X9307Y232037D01*
X9228D01*
X8020Y231797D01*
X7947Y231767D01*
X7870Y231751D01*
X6732Y231280D01*
X6667Y231237D01*
X6594Y231206D01*
X5570Y230522D01*
X5514Y230466D01*
X5448Y230422D01*
X4578Y229552D01*
X4534Y229486D01*
X4478Y229430D01*
X3794Y228407D01*
X3763Y228333D01*
X3720Y228268D01*
X3249Y227130D01*
X3233Y227053D01*
X3203Y226980D01*
X2963Y225772D01*
Y225693D01*
X2947Y225616D01*
X2947Y225000D01*
Y224384D01*
X2963Y224307D01*
Y224228D01*
X3203Y223020D01*
X3233Y222947D01*
X3249Y222870D01*
X3720Y221732D01*
X3763Y221667D01*
X3794Y221593D01*
X4478Y220570D01*
X4534Y220514D01*
X4578Y220448D01*
X5448Y219578D01*
X5514Y219534D01*
X5570Y219478D01*
X6594Y218794D01*
X6667Y218763D01*
X6732Y218720D01*
X7870Y218249D01*
X7947Y218233D01*
X8020Y218203D01*
X9228Y217963D01*
X9307D01*
X9384Y217947D01*
X10616D01*
X10693Y217963D01*
X10772D01*
X11980Y218203D01*
X12053Y218233D01*
X12130Y218249D01*
X13268Y218720D01*
X13333Y218763D01*
X13407Y218794D01*
X14430Y219478D01*
X14486Y219534D01*
X14552Y219578D01*
X15422Y220448D01*
X15466Y220514D01*
X15522Y220570D01*
X16206Y221593D01*
X16236Y221667D01*
X16280Y221732D01*
X16751Y222870D01*
X16767Y222947D01*
X16797Y223020D01*
X17037Y224228D01*
Y224307D01*
X17053Y224384D01*
Y225616D01*
X17037Y225693D01*
Y225772D01*
X16797Y226980D01*
X16767Y227053D01*
X16751Y227130D01*
X16280Y228268D01*
X16237Y228333D01*
X16206Y228407D01*
X15522Y229430D01*
X15466Y229486D01*
X15422Y229552D01*
X14552Y230422D01*
X14486Y230466D01*
X14430Y230522D01*
X13407Y231206D01*
X13333Y231237D01*
X13268Y231280D01*
X12130Y231751D01*
X12053Y231767D01*
X11980Y231797D01*
X10772Y232037D01*
X10693D01*
X10616Y232053D01*
D02*
G37*
G36*
X191976Y216930D02*
X185976D01*
X184987Y216800D01*
X184066Y216418D01*
X183275Y215811D01*
X182668Y215020D01*
X182286Y214099D01*
X182156Y213110D01*
X182286Y212121D01*
X182668Y211200D01*
X183275Y210409D01*
X184066Y209802D01*
X184987Y209420D01*
X185976Y209290D01*
X191976D01*
X192965Y209420D01*
X193886Y209802D01*
X194677Y210409D01*
X195284Y211200D01*
X195666Y212121D01*
X195796Y213110D01*
X195666Y214099D01*
X195284Y215020D01*
X194677Y215811D01*
X193886Y216418D01*
X192965Y216800D01*
X191976Y216930D01*
D02*
G37*
G36*
X30559D02*
X24559D01*
X23570Y216800D01*
X22649Y216418D01*
X21858Y215811D01*
X21251Y215020D01*
X20869Y214099D01*
X20739Y213110D01*
X20869Y212121D01*
X21251Y211200D01*
X21858Y210409D01*
X22649Y209802D01*
X23570Y209420D01*
X24559Y209290D01*
X30559D01*
X31548Y209420D01*
X32469Y209802D01*
X33260Y210409D01*
X33867Y211200D01*
X34249Y212121D01*
X34379Y213110D01*
X34249Y214099D01*
X33867Y215020D01*
X33260Y215811D01*
X32469Y216418D01*
X31548Y216800D01*
X30559Y216930D01*
D02*
G37*
G36*
X191976Y206930D02*
X185976D01*
X184987Y206800D01*
X184066Y206418D01*
X183275Y205811D01*
X182668Y205020D01*
X182286Y204099D01*
X182156Y203110D01*
X182286Y202121D01*
X182668Y201200D01*
X183275Y200409D01*
X184066Y199802D01*
X184987Y199420D01*
X185976Y199290D01*
X191976D01*
X192965Y199420D01*
X193886Y199802D01*
X194677Y200409D01*
X195284Y201200D01*
X195666Y202121D01*
X195796Y203110D01*
X195666Y204099D01*
X195284Y205020D01*
X194677Y205811D01*
X193886Y206418D01*
X192965Y206800D01*
X191976Y206930D01*
D02*
G37*
G36*
X30559D02*
X24559D01*
X23570Y206800D01*
X22649Y206418D01*
X21858Y205811D01*
X21251Y205020D01*
X20869Y204099D01*
X20739Y203110D01*
X20869Y202121D01*
X21251Y201200D01*
X21858Y200409D01*
X22649Y199802D01*
X23570Y199420D01*
X24559Y199290D01*
X30559D01*
X31548Y199420D01*
X32469Y199802D01*
X33260Y200409D01*
X33867Y201200D01*
X34249Y202121D01*
X34379Y203110D01*
X34249Y204099D01*
X33867Y205020D01*
X33260Y205811D01*
X32469Y206418D01*
X31548Y206800D01*
X30559Y206930D01*
D02*
G37*
G36*
X86667Y203165D02*
X85833D01*
X85028Y202950D01*
X84306Y202533D01*
X83717Y201944D01*
X83300Y201222D01*
X83085Y200417D01*
Y199583D01*
X83300Y198778D01*
X83717Y198056D01*
X84306Y197467D01*
X85028Y197050D01*
X85833Y196835D01*
X86667D01*
X87472Y197050D01*
X88194Y197467D01*
X88783Y198056D01*
X89200Y198778D01*
X89415Y199583D01*
Y200417D01*
X89200Y201222D01*
X88783Y201944D01*
X88194Y202533D01*
X87472Y202950D01*
X86667Y203165D01*
D02*
G37*
G36*
X59415D02*
X53085D01*
Y196835D01*
X59415D01*
Y203165D01*
D02*
G37*
G36*
X98018Y228937D02*
X96982D01*
X95980Y228669D01*
X95083Y228150D01*
X94350Y227417D01*
X93831Y226520D01*
X93563Y225518D01*
Y224482D01*
X93831Y223480D01*
X94350Y222583D01*
X95083Y221850D01*
X95980Y221331D01*
X96187Y221276D01*
Y196773D01*
X96287Y196271D01*
X96572Y195845D01*
X114937Y177479D01*
Y174057D01*
X114745Y173960D01*
X114437Y173903D01*
X113838Y174503D01*
X112970Y174862D01*
X112030D01*
X111162Y174503D01*
X110497Y173838D01*
X110138Y172970D01*
Y172030D01*
X110497Y171162D01*
X111162Y170497D01*
X111187Y170487D01*
Y166852D01*
X110590Y166255D01*
X110128Y166446D01*
Y166761D01*
X109864Y167747D01*
X109353Y168631D01*
X108631Y169353D01*
X107747Y169864D01*
X106761Y170128D01*
X105739D01*
X104753Y169864D01*
X103869Y169353D01*
X103147Y168631D01*
X102636Y167747D01*
X102587Y167563D01*
X90544D01*
X89227Y168879D01*
X89415Y169583D01*
Y170417D01*
X89200Y171222D01*
X88783Y171944D01*
X88194Y172533D01*
X87472Y172950D01*
X86667Y173165D01*
X85833D01*
X85028Y172950D01*
X84306Y172533D01*
X83717Y171944D01*
X83300Y171222D01*
X83085Y170417D01*
Y169583D01*
X83300Y168778D01*
X83717Y168056D01*
X84306Y167467D01*
X85028Y167050D01*
X85833Y166835D01*
X86667D01*
X87371Y167023D01*
X89072Y165322D01*
X89498Y165037D01*
X90000Y164937D01*
X92838D01*
X92939Y164437D01*
X92369Y164057D01*
X92369Y164057D01*
X83531Y155219D01*
X83081Y154545D01*
X82923Y153750D01*
Y148658D01*
X82638Y147970D01*
Y147030D01*
X82997Y146162D01*
X83662Y145497D01*
X84530Y145138D01*
X85470D01*
X86338Y145497D01*
X87003Y146162D01*
X87362Y147030D01*
Y147970D01*
X87077Y148658D01*
Y152890D01*
X94698Y160511D01*
X96342D01*
X97030Y160226D01*
X97970D01*
X98838Y160585D01*
X99503Y161250D01*
X99862Y162118D01*
Y163058D01*
X99503Y163926D01*
X98991Y164437D01*
X99198Y164937D01*
X102587D01*
X102636Y164753D01*
X103147Y163869D01*
X103869Y163147D01*
X104753Y162636D01*
X105739Y162372D01*
X106054D01*
X106245Y161910D01*
X91497Y147162D01*
X91212Y146736D01*
X91113Y146234D01*
Y132457D01*
X91212Y131955D01*
X91497Y131529D01*
X98081Y124944D01*
X98141Y124905D01*
X98449Y124597D01*
X98607Y124360D01*
X98308Y123914D01*
X98201Y123376D01*
X98308Y122838D01*
X98607Y122392D01*
X98308Y121945D01*
X98201Y121407D01*
X98308Y120870D01*
X98607Y120423D01*
X98308Y119977D01*
X98201Y119439D01*
X98308Y118901D01*
X98607Y118455D01*
X98308Y118008D01*
X98308Y118006D01*
X97765Y117841D01*
X92178Y123428D01*
X91752Y123713D01*
X91250Y123813D01*
X51250D01*
X50748Y123713D01*
X50322Y123428D01*
X45628Y118734D01*
X45128Y118941D01*
Y119261D01*
X44864Y120247D01*
X44353Y121131D01*
X43631Y121853D01*
X42747Y122364D01*
X41761Y122628D01*
X40740D01*
X39753Y122364D01*
X38869Y121853D01*
X38147Y121131D01*
X37636Y120247D01*
X37372Y119261D01*
Y118239D01*
X37636Y117253D01*
X38147Y116369D01*
X38869Y115647D01*
X39753Y115136D01*
X40740Y114872D01*
X41059D01*
X41266Y114372D01*
X32946Y106052D01*
X32469Y106418D01*
X31548Y106800D01*
X30559Y106930D01*
X24559D01*
X23570Y106800D01*
X22649Y106418D01*
X21858Y105811D01*
X21251Y105020D01*
X20869Y104099D01*
X20739Y103110D01*
X20869Y102121D01*
X21251Y101200D01*
X21858Y100409D01*
X22649Y99802D01*
X23570Y99420D01*
X24559Y99290D01*
X30559D01*
X31548Y99420D01*
X32469Y99802D01*
X33260Y100409D01*
X33867Y101200D01*
X34249Y102121D01*
X34379Y103110D01*
X34302Y103696D01*
X36872Y106266D01*
X37372Y106059D01*
Y105573D01*
X37636Y104587D01*
X38147Y103702D01*
X38869Y102980D01*
X39753Y102470D01*
X40740Y102206D01*
X41761D01*
X42747Y102470D01*
X43631Y102980D01*
X44353Y103702D01*
X44864Y104587D01*
X45128Y105573D01*
Y106594D01*
X44864Y107580D01*
X44353Y108465D01*
X43631Y109187D01*
X42747Y109697D01*
X41761Y109962D01*
X41275D01*
X41068Y110462D01*
X51794Y121187D01*
X90706D01*
X91342Y120552D01*
X91308Y120370D01*
X91124Y120063D01*
X62860D01*
X62358Y119963D01*
X61932Y119678D01*
X36676Y94423D01*
X34115D01*
X33867Y95020D01*
X33260Y95811D01*
X32469Y96418D01*
X31548Y96800D01*
X30559Y96930D01*
X24559D01*
X23570Y96800D01*
X22649Y96418D01*
X21858Y95811D01*
X21251Y95020D01*
X20869Y94099D01*
X20739Y93110D01*
X20869Y92121D01*
X21251Y91200D01*
X21858Y90409D01*
X22649Y89802D01*
X23570Y89420D01*
X24559Y89290D01*
X30559D01*
X31548Y89420D01*
X32469Y89802D01*
X33260Y90409D01*
X33867Y91200D01*
X34115Y91797D01*
X37220D01*
X37723Y91897D01*
X38148Y92182D01*
X63404Y117437D01*
X90706D01*
X91342Y116802D01*
X91308Y116620D01*
X91124Y116313D01*
X65000D01*
X64498Y116213D01*
X64072Y115928D01*
X33830Y85686D01*
X33331Y85719D01*
X33260Y85811D01*
X32469Y86418D01*
X31548Y86800D01*
X30559Y86930D01*
X24559D01*
X23570Y86800D01*
X22649Y86418D01*
X21858Y85811D01*
X21251Y85020D01*
X20869Y84099D01*
X20739Y83110D01*
X20869Y82121D01*
X21251Y81200D01*
X21858Y80409D01*
X22649Y79802D01*
X23570Y79420D01*
X24559Y79290D01*
X30559D01*
X31548Y79420D01*
X32469Y79802D01*
X33260Y80409D01*
X33867Y81200D01*
X34249Y82121D01*
X34334Y82767D01*
X34519Y82804D01*
X34945Y83088D01*
X65544Y113687D01*
X90706D01*
X93023Y111371D01*
X92831Y110909D01*
X66414D01*
X65912Y110809D01*
X65486Y110525D01*
X31699Y76737D01*
X31548Y76800D01*
X30559Y76930D01*
X24559D01*
X23570Y76800D01*
X22649Y76418D01*
X21858Y75811D01*
X21251Y75020D01*
X20869Y74099D01*
X20739Y73110D01*
X20869Y72121D01*
X21251Y71200D01*
X21858Y70409D01*
X22649Y69802D01*
X23570Y69420D01*
X24559Y69290D01*
X30559D01*
X31548Y69420D01*
X32469Y69802D01*
X33260Y70409D01*
X33867Y71200D01*
X34249Y72121D01*
X34379Y73110D01*
X34249Y74099D01*
X33867Y75020D01*
X33792Y75118D01*
X44961Y86286D01*
X45423Y86095D01*
Y73750D01*
X45581Y72955D01*
X46031Y72281D01*
X53583Y64729D01*
X53392Y64267D01*
X50423D01*
Y62124D01*
X48004D01*
Y57874D01*
Y53624D01*
X50854D01*
Y57574D01*
X54754D01*
X54970Y57164D01*
Y55453D01*
X55128Y54658D01*
X55578Y53984D01*
X61031Y48531D01*
X61031Y48531D01*
X61705Y48081D01*
X62500Y47923D01*
X81250D01*
X82045Y48081D01*
X82719Y48531D01*
X87234Y53047D01*
X90500Y49781D01*
X91173Y49331D01*
X91969Y49173D01*
X112500D01*
X113295Y49331D01*
X113969Y49781D01*
X117111Y52923D01*
X130472D01*
X130647Y52619D01*
X131369Y51897D01*
X132253Y51386D01*
X133239Y51122D01*
X134260D01*
X134599Y51213D01*
X137281Y48531D01*
X137955Y48081D01*
X138750Y47923D01*
X138750Y47923D01*
X144173D01*
Y45974D01*
X144085D01*
Y41841D01*
X146198D01*
X146250Y41830D01*
X146302Y41841D01*
X148415D01*
Y45974D01*
X148327D01*
Y48842D01*
X148612Y49530D01*
Y50470D01*
X148253Y51338D01*
X147653Y51937D01*
X147710Y52245D01*
X147807Y52437D01*
X179616D01*
X180118Y52537D01*
X180544Y52822D01*
X181529Y53807D01*
X182002Y53573D01*
X181941Y53110D01*
X182079Y52066D01*
X182482Y51093D01*
X183123Y50257D01*
X183959Y49616D01*
X184932Y49213D01*
X185976Y49075D01*
X187976D01*
Y53110D01*
Y57144D01*
X185976D01*
X185513Y57084D01*
X185280Y57557D01*
X187012Y59290D01*
X191976D01*
X192965Y59420D01*
X193886Y59802D01*
X194677Y60409D01*
X195284Y61200D01*
X195666Y62121D01*
X195796Y63110D01*
X195666Y64099D01*
X195284Y65020D01*
X194677Y65811D01*
X193886Y66418D01*
X192965Y66800D01*
X191976Y66930D01*
X185976D01*
X184987Y66800D01*
X184066Y66418D01*
X183704Y66141D01*
X183373Y66517D01*
X185948Y69091D01*
X186080Y69290D01*
X191976D01*
X192965Y69420D01*
X193886Y69802D01*
X194677Y70409D01*
X195284Y71200D01*
X195666Y72121D01*
X195796Y73110D01*
X195666Y74099D01*
X195284Y75020D01*
X194677Y75811D01*
X193886Y76418D01*
X192965Y76800D01*
X191976Y76930D01*
X185976D01*
X184987Y76800D01*
X184066Y76418D01*
X183275Y75811D01*
X182668Y75020D01*
X182286Y74099D01*
X182156Y73110D01*
X182286Y72121D01*
X182668Y71200D01*
X183275Y70409D01*
X183292Y70148D01*
X171956Y58813D01*
X148044D01*
X131234Y75622D01*
Y77518D01*
X131650Y77795D01*
X132030Y77638D01*
X132477D01*
X132811Y77138D01*
X132638Y76720D01*
Y75780D01*
X132997Y74912D01*
X133662Y74247D01*
X134530Y73888D01*
X135470D01*
X136338Y74247D01*
X137003Y74912D01*
X137362Y75780D01*
Y76389D01*
X137862Y76488D01*
X137997Y76162D01*
X138662Y75497D01*
X139530Y75138D01*
X140470D01*
X141338Y75497D01*
X142003Y76162D01*
X142362Y77030D01*
Y77970D01*
X142003Y78838D01*
X141338Y79503D01*
X140470Y79862D01*
X139823D01*
X137887Y81798D01*
Y82997D01*
X138547D01*
Y85769D01*
X139547D01*
Y86769D01*
X142122D01*
Y86787D01*
X142584Y86978D01*
X143091Y86471D01*
Y83210D01*
X143375D01*
Y79723D01*
X143534Y78928D01*
X143984Y78254D01*
X144173Y78065D01*
Y66158D01*
X143888Y65470D01*
Y64530D01*
X144247Y63662D01*
X144912Y62997D01*
X145780Y62638D01*
X146720D01*
X147588Y62997D01*
X148253Y63662D01*
X148612Y64530D01*
Y65470D01*
X148327Y66158D01*
Y78926D01*
X148327Y78926D01*
X148169Y79721D01*
X147719Y80395D01*
X147530Y80584D01*
Y83210D01*
X147815D01*
Y83246D01*
X149943D01*
Y80837D01*
X162557D01*
X162557Y88538D01*
Y88554D01*
D01*
X162557Y88629D01*
X162686Y88682D01*
X163057Y88836D01*
X166018Y85875D01*
X166444Y85591D01*
X166946Y85491D01*
X167288D01*
Y84553D01*
X167356Y84212D01*
X164072Y80928D01*
X163787Y80502D01*
X163687Y80000D01*
Y70547D01*
X163787Y70044D01*
X164072Y69619D01*
X166691Y67000D01*
X166629Y66938D01*
X166118Y66053D01*
X165854Y65067D01*
Y64046D01*
X166118Y63060D01*
X166629Y62176D01*
X167350Y61453D01*
X168235Y60943D01*
X169221Y60679D01*
X170242D01*
X171228Y60943D01*
X172113Y61453D01*
X172835Y62176D01*
X173345Y63060D01*
X173610Y64046D01*
Y65067D01*
X173345Y66053D01*
X172835Y66938D01*
X172113Y67660D01*
X171228Y68170D01*
X170242Y68435D01*
X169221D01*
X169022Y68381D01*
X166313Y71091D01*
Y79456D01*
X166653Y79797D01*
X167115Y79605D01*
Y78549D01*
X169320D01*
Y77549D01*
X170320D01*
Y73093D01*
X171525D01*
Y73142D01*
X171966Y73377D01*
X172060Y73314D01*
Y77549D01*
Y81783D01*
X171966Y81720D01*
X171525Y81956D01*
Y82004D01*
X170040D01*
X169741Y82504D01*
X169801Y82617D01*
X170097Y82676D01*
X170756Y83117D01*
X171197Y83776D01*
X171351Y84553D01*
Y89054D01*
X171197Y89832D01*
X170756Y90491D01*
X170097Y90931D01*
X169320Y91086D01*
X168543Y90931D01*
X167884Y90491D01*
X167443Y89832D01*
X167288Y89054D01*
Y88971D01*
X166826Y88780D01*
X160745Y94862D01*
X160319Y95146D01*
X159816Y95246D01*
X150360D01*
X145751Y99856D01*
X145942Y100318D01*
X150394D01*
X150858Y100410D01*
X153276D01*
X153691Y99995D01*
Y97127D01*
X158809D01*
Y97412D01*
X165415D01*
X165895Y96931D01*
X165762Y96358D01*
X165344Y96185D01*
X164680Y95520D01*
X164320Y94652D01*
Y93712D01*
X164680Y92844D01*
X165344Y92180D01*
X166212Y91820D01*
X167152D01*
X168020Y92180D01*
X168685Y92844D01*
X168858Y93262D01*
X169431Y93395D01*
X174723Y88104D01*
Y86804D01*
X174769Y86573D01*
Y84553D01*
X174923Y83776D01*
X175364Y83117D01*
X176023Y82676D01*
X176800Y82522D01*
X177578Y82676D01*
X178237Y83117D01*
X178677Y83776D01*
X178832Y84553D01*
Y86573D01*
X178877Y86804D01*
Y88964D01*
X178719Y89759D01*
X178680Y89819D01*
X178677Y89832D01*
X178319Y90368D01*
X178707Y90687D01*
X181572Y87822D01*
X181998Y87537D01*
X182500Y87437D01*
X201963D01*
X202466Y87537D01*
X202891Y87822D01*
X204814Y89744D01*
X207682D01*
Y95256D01*
X206804D01*
X206597Y95756D01*
X207003Y96162D01*
X207362Y97030D01*
Y97970D01*
X207003Y98838D01*
X206597Y99244D01*
X206804Y99744D01*
X207682D01*
Y105256D01*
X206804D01*
X206597Y105756D01*
X207003Y106162D01*
X207362Y107030D01*
Y107970D01*
X207003Y108838D01*
X206597Y109244D01*
X206804Y109744D01*
X207682D01*
Y115256D01*
X202957D01*
Y109744D01*
X203196D01*
X203403Y109244D01*
X202997Y108838D01*
X202638Y107970D01*
Y107030D01*
X202997Y106162D01*
X203403Y105756D01*
X203196Y105256D01*
X202957D01*
Y99744D01*
X203196D01*
X203403Y99244D01*
X202997Y98838D01*
X202638Y97970D01*
Y97030D01*
X202997Y96162D01*
X203403Y95756D01*
X203196Y95256D01*
X202957D01*
Y91600D01*
X202238Y90881D01*
X201776Y91073D01*
Y95256D01*
X197052D01*
Y94423D01*
X195532D01*
X195284Y95020D01*
X194677Y95811D01*
X193886Y96418D01*
X192965Y96800D01*
X191976Y96930D01*
X185976D01*
X184987Y96800D01*
X184066Y96418D01*
X183275Y95811D01*
X182668Y95020D01*
X182286Y94099D01*
X182156Y93110D01*
X182286Y92121D01*
X182668Y91200D01*
X182847Y90967D01*
X182470Y90636D01*
X165928Y107178D01*
X165502Y107463D01*
X165000Y107563D01*
X163172D01*
X161899Y108836D01*
X162090Y109298D01*
X168846D01*
X172401Y105742D01*
X171747Y105088D01*
X171388Y104220D01*
Y103280D01*
X171747Y102412D01*
X172412Y101747D01*
X173280Y101388D01*
X174220D01*
X175088Y101747D01*
X175753Y102412D01*
X176112Y103280D01*
Y104220D01*
X175753Y105088D01*
X175088Y105753D01*
X175063Y105763D01*
Y106250D01*
X174963Y106752D01*
X174678Y107178D01*
X170318Y111538D01*
X169892Y111823D01*
X169390Y111923D01*
X160933D01*
X157412Y115444D01*
X157603Y115906D01*
X160492D01*
Y118186D01*
X157500D01*
Y120186D01*
X160492D01*
Y122466D01*
X160492D01*
X160280Y122631D01*
Y123469D01*
X163691D01*
Y123032D01*
X168809D01*
Y127757D01*
X168327D01*
Y129685D01*
X168809D01*
Y134409D01*
X163691D01*
Y129685D01*
X164173D01*
Y127757D01*
X163691D01*
Y127624D01*
X160280D01*
Y128765D01*
X159577D01*
Y132718D01*
X159665D01*
Y136851D01*
X157552D01*
X157500Y136862D01*
X157448Y136851D01*
X155335D01*
Y132718D01*
X155423D01*
Y128765D01*
X154720D01*
Y126657D01*
X152370D01*
X152163Y127157D01*
X154112Y129107D01*
X154397Y129533D01*
X154497Y130035D01*
Y135566D01*
X154397Y136068D01*
X154112Y136494D01*
X152352Y138255D01*
X152362Y138280D01*
Y138993D01*
X152862Y139200D01*
X153402Y138660D01*
X154076Y138210D01*
X154871Y138052D01*
X155335D01*
Y138032D01*
X157448D01*
X157500Y138022D01*
X157552Y138032D01*
X159665D01*
Y142166D01*
X157671D01*
X157471Y142206D01*
X155731D01*
X146212Y151725D01*
X146404Y152187D01*
X148038D01*
X149903Y150322D01*
X150329Y150037D01*
X150831Y149937D01*
X160897D01*
X161400Y150037D01*
X161825Y150322D01*
X173301Y161797D01*
X182420D01*
X182668Y161200D01*
X183275Y160409D01*
X184066Y159802D01*
X184987Y159420D01*
X185976Y159290D01*
X191976D01*
X192965Y159420D01*
X193886Y159802D01*
X194677Y160409D01*
X195284Y161200D01*
X195666Y162121D01*
X195796Y163110D01*
X195666Y164099D01*
X195284Y165020D01*
X194677Y165811D01*
X193886Y166418D01*
X192965Y166800D01*
X191976Y166930D01*
X185976D01*
X184987Y166800D01*
X184066Y166418D01*
X183275Y165811D01*
X182668Y165020D01*
X182420Y164423D01*
X174458D01*
X174267Y164885D01*
X181180Y171797D01*
X182420D01*
X182668Y171200D01*
X183275Y170409D01*
X184066Y169802D01*
X184987Y169420D01*
X185976Y169290D01*
X191976D01*
X192965Y169420D01*
X193886Y169802D01*
X194677Y170409D01*
X195284Y171200D01*
X195666Y172121D01*
X195796Y173110D01*
X195666Y174099D01*
X195284Y175020D01*
X194677Y175811D01*
X193886Y176418D01*
X192965Y176800D01*
X191976Y176930D01*
X185976D01*
X184987Y176800D01*
X184613Y176645D01*
X184330Y177069D01*
X185948Y178686D01*
X186232Y179112D01*
X186267Y179290D01*
X191976D01*
X192965Y179420D01*
X193886Y179802D01*
X194677Y180409D01*
X195284Y181200D01*
X195666Y182121D01*
X195796Y183110D01*
X195666Y184099D01*
X195284Y185020D01*
X194677Y185811D01*
X193886Y186418D01*
X192965Y186800D01*
X191976Y186930D01*
X185976D01*
X184987Y186800D01*
X184066Y186418D01*
X183275Y185811D01*
X182668Y185020D01*
X182286Y184099D01*
X182156Y183110D01*
X182286Y182121D01*
X182668Y181200D01*
X183275Y180409D01*
X183360Y180343D01*
X183393Y179844D01*
X178231Y174683D01*
X177769Y174874D01*
Y183047D01*
X184390Y189667D01*
X184987Y189420D01*
X185976Y189290D01*
X191976D01*
X192965Y189420D01*
X193886Y189802D01*
X194677Y190409D01*
X195284Y191200D01*
X195666Y192121D01*
X195796Y193110D01*
X195666Y194099D01*
X195284Y195020D01*
X194677Y195811D01*
X193886Y196418D01*
X192965Y196800D01*
X191976Y196930D01*
X185976D01*
X184987Y196800D01*
X184066Y196418D01*
X183275Y195811D01*
X182668Y195020D01*
X182286Y194099D01*
X182156Y193110D01*
X182286Y192121D01*
X182534Y191524D01*
X175528Y184519D01*
X175244Y184093D01*
X175144Y183590D01*
Y173717D01*
X171604Y170177D01*
X171142Y170368D01*
Y173997D01*
X163858D01*
Y173997D01*
X163358Y173813D01*
X158755Y178417D01*
X158839Y178729D01*
Y179739D01*
X158577Y180716D01*
X158072Y181591D01*
X157357Y182306D01*
X156482Y182811D01*
X155505Y183072D01*
X154495D01*
X154183Y182989D01*
X143485Y193687D01*
Y206150D01*
X144054Y206719D01*
X144489Y207473D01*
X144715Y208315D01*
Y209185D01*
X144489Y210027D01*
X144054Y210781D01*
X143438Y211396D01*
X142684Y211832D01*
X141843Y212057D01*
X140972D01*
X140131Y211832D01*
X139377Y211396D01*
X138761Y210781D01*
X138326Y210027D01*
X138100Y209185D01*
Y208315D01*
X138326Y207473D01*
X138761Y206719D01*
X139330Y206150D01*
Y192826D01*
X139488Y192032D01*
X139939Y191358D01*
X151245Y180051D01*
X151161Y179739D01*
Y178729D01*
X151423Y177752D01*
X151928Y176877D01*
X152643Y176162D01*
X153518Y175657D01*
X154495Y175395D01*
X155505D01*
X155817Y175479D01*
X161214Y170082D01*
X161214Y170082D01*
X161888Y169631D01*
X162683Y169473D01*
X163858D01*
Y167698D01*
X164781D01*
X164933Y167198D01*
X164694Y167038D01*
X163612Y165956D01*
X158040D01*
X157849Y166418D01*
X158072Y166641D01*
X158577Y167516D01*
X158839Y168492D01*
Y169503D01*
X158577Y170479D01*
X158072Y171355D01*
X157357Y172069D01*
X156482Y172575D01*
X155505Y172836D01*
X154495D01*
X153518Y172575D01*
X152643Y172069D01*
X151928Y171355D01*
X151695Y170951D01*
X143642D01*
Y171014D01*
X136358D01*
Y165956D01*
X135132D01*
X134629Y165857D01*
X134204Y165572D01*
X121853Y153222D01*
X121391Y153413D01*
Y183285D01*
X122005Y183898D01*
X122030Y183888D01*
X122970D01*
X123838Y184247D01*
X124503Y184912D01*
X124862Y185780D01*
Y186720D01*
X124503Y187588D01*
X123838Y188253D01*
X122970Y188612D01*
X122030D01*
X121162Y188253D01*
X120497Y187588D01*
X120138Y186720D01*
Y185891D01*
X119923Y185714D01*
X119682Y185774D01*
X119423Y185975D01*
Y188972D01*
X120088Y189247D01*
X120753Y189912D01*
X121112Y190780D01*
Y191720D01*
X120753Y192588D01*
X120088Y193253D01*
X119220Y193612D01*
X118280D01*
X117412Y193253D01*
X116747Y192588D01*
X116388Y191720D01*
Y190780D01*
X116747Y189912D01*
X116798Y189862D01*
Y179985D01*
X116336Y179794D01*
X98813Y197317D01*
Y221276D01*
X99020Y221331D01*
X99917Y221850D01*
X100650Y222583D01*
X101169Y223480D01*
X101437Y224482D01*
Y225518D01*
X101169Y226520D01*
X100650Y227417D01*
X99917Y228150D01*
X99020Y228669D01*
X98018Y228937D01*
D02*
G37*
G36*
X30559Y196930D02*
X24559D01*
X23570Y196800D01*
X22649Y196418D01*
X21858Y195811D01*
X21251Y195020D01*
X20869Y194099D01*
X20739Y193110D01*
X20869Y192121D01*
X21251Y191200D01*
X21858Y190409D01*
X22649Y189802D01*
X23570Y189420D01*
X24559Y189290D01*
X30559D01*
X31548Y189420D01*
X32469Y189802D01*
X33260Y190409D01*
X33867Y191200D01*
X34249Y192121D01*
X34379Y193110D01*
X34249Y194099D01*
X33867Y195020D01*
X33260Y195811D01*
X32469Y196418D01*
X31548Y196800D01*
X30559Y196930D01*
D02*
G37*
G36*
Y186930D02*
X24559D01*
X23570Y186800D01*
X22649Y186418D01*
X21858Y185811D01*
X21251Y185020D01*
X20869Y184099D01*
X20739Y183110D01*
X20869Y182121D01*
X21251Y181200D01*
X21858Y180409D01*
X22649Y179802D01*
X23570Y179420D01*
X24559Y179290D01*
X30559D01*
X31548Y179420D01*
X32469Y179802D01*
X33260Y180409D01*
X33867Y181200D01*
X34249Y182121D01*
X34379Y183110D01*
X34249Y184099D01*
X33867Y185020D01*
X33260Y185811D01*
X32469Y186418D01*
X31548Y186800D01*
X30559Y186930D01*
D02*
G37*
G36*
X143642Y178691D02*
X136358D01*
Y177717D01*
X131636D01*
X130841Y177559D01*
X130409Y177270D01*
X130247Y177364D01*
X129261Y177628D01*
X128240D01*
X127253Y177364D01*
X126369Y176853D01*
X125647Y176131D01*
X125136Y175247D01*
X124872Y174260D01*
Y173240D01*
X125136Y172253D01*
X125647Y171369D01*
X126369Y170647D01*
X127253Y170136D01*
X128240Y169872D01*
X129261D01*
X130247Y170136D01*
X131131Y170647D01*
X131853Y171369D01*
X132364Y172253D01*
X132628Y173240D01*
Y173562D01*
X136358D01*
Y173376D01*
X143642D01*
Y178691D01*
D02*
G37*
G36*
X57250Y173229D02*
Y171000D01*
X59479D01*
X59398Y171304D01*
X58953Y172074D01*
X58324Y172703D01*
X57554Y173148D01*
X57250Y173229D01*
D02*
G37*
G36*
X55250D02*
X54946Y173148D01*
X54176Y172703D01*
X53547Y172074D01*
X53102Y171304D01*
X53021Y171000D01*
X55250D01*
Y173229D01*
D02*
G37*
G36*
X30559Y176930D02*
X24559D01*
X23570Y176800D01*
X22649Y176418D01*
X21858Y175811D01*
X21251Y175020D01*
X20869Y174099D01*
X20739Y173110D01*
X20869Y172121D01*
X21251Y171200D01*
X21858Y170409D01*
X22649Y169802D01*
X23570Y169420D01*
X24559Y169290D01*
X30559D01*
X31548Y169420D01*
X32469Y169802D01*
X33260Y170409D01*
X33867Y171200D01*
X34249Y172121D01*
X34379Y173110D01*
X34249Y174099D01*
X33867Y175020D01*
X33260Y175811D01*
X32469Y176418D01*
X31548Y176800D01*
X30559Y176930D01*
D02*
G37*
G36*
X59479Y169000D02*
X57250D01*
Y166771D01*
X57554Y166852D01*
X58324Y167297D01*
X58953Y167926D01*
X59398Y168696D01*
X59479Y169000D01*
D02*
G37*
G36*
X55250D02*
X53021D01*
X53102Y168696D01*
X53547Y167926D01*
X54176Y167297D01*
X54946Y166852D01*
X55250Y166771D01*
Y169000D01*
D02*
G37*
G36*
X30559Y166930D02*
X24559D01*
X23570Y166800D01*
X22649Y166418D01*
X21858Y165811D01*
X21251Y165020D01*
X20869Y164099D01*
X20739Y163110D01*
X20869Y162121D01*
X21251Y161200D01*
X21858Y160409D01*
X22649Y159802D01*
X23570Y159420D01*
X24559Y159290D01*
X30559D01*
X31548Y159420D01*
X32469Y159802D01*
X33260Y160409D01*
X33867Y161200D01*
X34249Y162121D01*
X34379Y163110D01*
X34249Y164099D01*
X33867Y165020D01*
X33260Y165811D01*
X32469Y166418D01*
X31548Y166800D01*
X30559Y166930D01*
D02*
G37*
G36*
X191976Y156930D02*
X185976D01*
X184987Y156800D01*
X184066Y156418D01*
X183275Y155811D01*
X182668Y155020D01*
X182286Y154099D01*
X182156Y153110D01*
X182286Y152121D01*
X182668Y151200D01*
X183275Y150409D01*
X184066Y149802D01*
X184987Y149420D01*
X185976Y149290D01*
X191976D01*
X192965Y149420D01*
X193886Y149802D01*
X194677Y150409D01*
X195284Y151200D01*
X195666Y152121D01*
X195796Y153110D01*
X195666Y154099D01*
X195284Y155020D01*
X194677Y155811D01*
X193886Y156418D01*
X192965Y156800D01*
X191976Y156930D01*
D02*
G37*
G36*
X30559D02*
X24559D01*
X23570Y156800D01*
X22649Y156418D01*
X21858Y155811D01*
X21251Y155020D01*
X20869Y154099D01*
X20739Y153110D01*
X20869Y152121D01*
X21251Y151200D01*
X21858Y150409D01*
X22649Y149802D01*
X23570Y149420D01*
X24559Y149290D01*
X30559D01*
X31548Y149420D01*
X32469Y149802D01*
X33260Y150409D01*
X33867Y151200D01*
X34249Y152121D01*
X34379Y153110D01*
X34249Y154099D01*
X33867Y155020D01*
X33260Y155811D01*
X32469Y156418D01*
X31548Y156800D01*
X30559Y156930D01*
D02*
G37*
G36*
X191976Y146930D02*
X185976D01*
X184987Y146800D01*
X184066Y146418D01*
X183275Y145811D01*
X182668Y145020D01*
X182286Y144099D01*
X182156Y143110D01*
X182286Y142121D01*
X182668Y141200D01*
X183275Y140409D01*
X184066Y139802D01*
X184987Y139420D01*
X185976Y139290D01*
X191976D01*
X192965Y139420D01*
X193886Y139802D01*
X194677Y140409D01*
X195284Y141200D01*
X195666Y142121D01*
X195796Y143110D01*
X195666Y144099D01*
X195284Y145020D01*
X194677Y145811D01*
X193886Y146418D01*
X192965Y146800D01*
X191976Y146930D01*
D02*
G37*
G36*
X30559D02*
X24559D01*
X23570Y146800D01*
X22649Y146418D01*
X21858Y145811D01*
X21251Y145020D01*
X20869Y144099D01*
X20739Y143110D01*
X20869Y142121D01*
X21251Y141200D01*
X21858Y140409D01*
X22649Y139802D01*
X23570Y139420D01*
X24559Y139290D01*
X30559D01*
X31548Y139420D01*
X32469Y139802D01*
X33260Y140409D01*
X33867Y141200D01*
X34249Y142121D01*
X34379Y143110D01*
X34249Y144099D01*
X33867Y145020D01*
X33260Y145811D01*
X32469Y146418D01*
X31548Y146800D01*
X30559Y146930D01*
D02*
G37*
G36*
X169022Y140528D02*
X167250D01*
Y138953D01*
X169022D01*
Y140528D01*
D02*
G37*
G36*
X165250D02*
X163478D01*
Y138953D01*
X165250D01*
Y140528D01*
D02*
G37*
G36*
X169022Y136953D02*
X167250D01*
Y135378D01*
X169022D01*
Y136953D01*
D02*
G37*
G36*
X165250D02*
X163478D01*
Y135378D01*
X165250D01*
Y136953D01*
D02*
G37*
G36*
X30559Y136930D02*
X24559D01*
X23570Y136800D01*
X22649Y136418D01*
X21858Y135811D01*
X21251Y135020D01*
X20869Y134099D01*
X20739Y133110D01*
X20869Y132121D01*
X21251Y131200D01*
X21858Y130409D01*
X22649Y129802D01*
X23570Y129420D01*
X24559Y129290D01*
X30559D01*
X31548Y129420D01*
X32469Y129802D01*
X33260Y130409D01*
X33867Y131200D01*
X34249Y132121D01*
X34379Y133110D01*
X34249Y134099D01*
X33867Y135020D01*
X33260Y135811D01*
X32469Y136418D01*
X31548Y136800D01*
X30559Y136930D01*
D02*
G37*
G36*
X41761Y135294D02*
X40740D01*
X39753Y135030D01*
X38869Y134520D01*
X38147Y133798D01*
X37636Y132913D01*
X37372Y131927D01*
Y130906D01*
X37636Y129920D01*
X38147Y129035D01*
X38869Y128313D01*
X39753Y127803D01*
X40740Y127538D01*
X41761D01*
X42747Y127803D01*
X43631Y128313D01*
X44353Y129035D01*
X44864Y129920D01*
X45128Y130906D01*
Y131927D01*
X44864Y132913D01*
X44353Y133798D01*
X43631Y134520D01*
X42747Y135030D01*
X41761Y135294D01*
D02*
G37*
G36*
X165250Y122064D02*
X163478D01*
Y120489D01*
X165250D01*
Y122064D01*
D02*
G37*
G36*
X30559Y126930D02*
X24559D01*
X23570Y126800D01*
X22649Y126418D01*
X21858Y125811D01*
X21251Y125020D01*
X20869Y124099D01*
X20739Y123110D01*
X20869Y122121D01*
X21251Y121200D01*
X21858Y120409D01*
X22649Y119802D01*
X23570Y119420D01*
X24559Y119290D01*
X30559D01*
X31548Y119420D01*
X32469Y119802D01*
X33260Y120409D01*
X33867Y121200D01*
X34249Y122121D01*
X34379Y123110D01*
X34249Y124099D01*
X33867Y125020D01*
X33260Y125811D01*
X32469Y126418D01*
X31548Y126800D01*
X30559Y126930D01*
D02*
G37*
G36*
X191976Y136930D02*
X185976D01*
X184987Y136800D01*
X184066Y136418D01*
X183275Y135811D01*
X182668Y135020D01*
X182286Y134099D01*
X182156Y133110D01*
X182286Y132121D01*
X182668Y131200D01*
X183275Y130409D01*
X184066Y129802D01*
X184987Y129420D01*
X185804Y129313D01*
X185771Y128813D01*
X183750D01*
X183248Y128713D01*
X182822Y128428D01*
X173242Y118849D01*
X172588Y119503D01*
X171720Y119862D01*
X170780D01*
X169912Y119503D01*
X169522Y119112D01*
X169022Y119319D01*
Y122064D01*
X167250D01*
Y119489D01*
Y116914D01*
X168936D01*
X169247Y116162D01*
X169912Y115497D01*
X170780Y115138D01*
X171227D01*
X171561Y114638D01*
X171388Y114220D01*
Y113280D01*
X171747Y112412D01*
X172412Y111747D01*
X173280Y111388D01*
X174220D01*
X175088Y111747D01*
X175753Y112412D01*
X175763Y112437D01*
X177500D01*
X178002Y112537D01*
X178428Y112822D01*
X181794Y116187D01*
X183002D01*
X183180Y115687D01*
X182668Y115020D01*
X182286Y114099D01*
X182156Y113110D01*
X182286Y112121D01*
X182668Y111200D01*
X183275Y110409D01*
X184066Y109802D01*
X184987Y109420D01*
X185976Y109290D01*
X191976D01*
X192965Y109420D01*
X193886Y109802D01*
X194677Y110409D01*
X195284Y111200D01*
X195532Y111797D01*
X197052D01*
Y109744D01*
X201776D01*
Y115256D01*
X197052D01*
Y114423D01*
X195532D01*
X195284Y115020D01*
X194772Y115687D01*
X194949Y116187D01*
X200713D01*
X201216Y116287D01*
X201641Y116572D01*
X204814Y119744D01*
X207682D01*
Y125256D01*
X202957D01*
Y121600D01*
X202238Y120881D01*
X201776Y121073D01*
Y125256D01*
X197052D01*
Y124423D01*
X195532D01*
X195284Y125020D01*
X194772Y125687D01*
X194949Y126187D01*
X200713D01*
X201216Y126287D01*
X201641Y126572D01*
X204814Y129744D01*
X207682D01*
Y135256D01*
X202957D01*
Y131600D01*
X202238Y130881D01*
X201776Y131073D01*
Y135256D01*
X197052D01*
Y134423D01*
X195532D01*
X195284Y135020D01*
X194677Y135811D01*
X193886Y136418D01*
X192965Y136800D01*
X191976Y136930D01*
D02*
G37*
G36*
X165250Y118489D02*
X163478D01*
Y116914D01*
X165250D01*
Y118489D01*
D02*
G37*
G36*
X30559Y116930D02*
X24559D01*
X23570Y116800D01*
X22649Y116418D01*
X21858Y115811D01*
X21251Y115020D01*
X20869Y114099D01*
X20739Y113110D01*
X20869Y112121D01*
X21251Y111200D01*
X21858Y110409D01*
X22649Y109802D01*
X23570Y109420D01*
X24559Y109290D01*
X30559D01*
X31548Y109420D01*
X32469Y109802D01*
X33260Y110409D01*
X33867Y111200D01*
X34249Y112121D01*
X34379Y113110D01*
X34249Y114099D01*
X33867Y115020D01*
X33260Y115811D01*
X32469Y116418D01*
X31548Y116800D01*
X30559Y116930D01*
D02*
G37*
G36*
X191976Y106930D02*
X185976D01*
X184987Y106800D01*
X184066Y106418D01*
X183275Y105811D01*
X182668Y105020D01*
X182286Y104099D01*
X182156Y103110D01*
X182286Y102121D01*
X182668Y101200D01*
X183275Y100409D01*
X184066Y99802D01*
X184987Y99420D01*
X185976Y99290D01*
X191976D01*
X192965Y99420D01*
X193886Y99802D01*
X194677Y100409D01*
X195284Y101200D01*
X195532Y101797D01*
X197052D01*
Y99744D01*
X201776D01*
Y105256D01*
X197052D01*
Y104423D01*
X195532D01*
X195284Y105020D01*
X194677Y105811D01*
X193886Y106418D01*
X192965Y106800D01*
X191976Y106930D01*
D02*
G37*
G36*
X142122Y84769D02*
X140547D01*
Y82997D01*
X142122D01*
Y84769D01*
D02*
G37*
G36*
X191976Y86930D02*
X185976D01*
X184987Y86800D01*
X184066Y86418D01*
X183275Y85811D01*
X182668Y85020D01*
X182286Y84099D01*
X182156Y83110D01*
X182286Y82121D01*
X182668Y81200D01*
X183275Y80409D01*
X184066Y79802D01*
X184987Y79420D01*
X185976Y79290D01*
X191976D01*
X192965Y79420D01*
X193886Y79802D01*
X194677Y80409D01*
X195284Y81200D01*
X195532Y81797D01*
X197052D01*
Y79744D01*
X201776D01*
Y85256D01*
X197052D01*
Y84423D01*
X195532D01*
X195284Y85020D01*
X194677Y85811D01*
X193886Y86418D01*
X192965Y86800D01*
X191976Y86930D01*
D02*
G37*
G36*
X177800Y81783D02*
Y78549D01*
X179048D01*
Y79799D01*
X178877Y80660D01*
X178390Y81389D01*
X177800Y81783D01*
D02*
G37*
G36*
X162770Y78696D02*
X157250D01*
Y75443D01*
X162770D01*
Y78696D01*
D02*
G37*
G36*
X155250D02*
X149730D01*
Y75443D01*
X155250D01*
Y78696D01*
D02*
G37*
G36*
X207682Y85256D02*
X202957D01*
Y79744D01*
X203196D01*
X203403Y79244D01*
X202997Y78838D01*
X202638Y77970D01*
Y77030D01*
X202997Y76162D01*
X203662Y75497D01*
X204530Y75138D01*
X205470D01*
X206338Y75497D01*
X207003Y76162D01*
X207362Y77030D01*
Y77970D01*
X207003Y78838D01*
X206597Y79244D01*
X206804Y79744D01*
X207682D01*
Y85256D01*
D02*
G37*
G36*
X179048Y76549D02*
X177800D01*
Y73314D01*
X178390Y73708D01*
X178877Y74438D01*
X179048Y75298D01*
Y76549D01*
D02*
G37*
G36*
X174060Y81783D02*
Y77549D01*
Y73314D01*
X174622Y73690D01*
X174763Y73754D01*
X175098D01*
X175239Y73690D01*
X175800Y73314D01*
Y77549D01*
Y81783D01*
X175210Y81389D01*
X175180Y81344D01*
X174680D01*
X174650Y81389D01*
X174060Y81783D01*
D02*
G37*
G36*
X168320Y76549D02*
X167115D01*
Y73093D01*
X168320D01*
Y76549D01*
D02*
G37*
G36*
X162770Y73443D02*
X157250D01*
Y70189D01*
X162770D01*
Y73443D01*
D02*
G37*
G36*
X155250D02*
X149730D01*
Y70189D01*
X155250D01*
Y73443D01*
D02*
G37*
G36*
X30559Y66930D02*
X24559D01*
X23570Y66800D01*
X22649Y66418D01*
X21858Y65811D01*
X21251Y65020D01*
X20869Y64099D01*
X20739Y63110D01*
X20869Y62121D01*
X21251Y61200D01*
X21858Y60409D01*
X22649Y59802D01*
X23570Y59420D01*
X24559Y59290D01*
X30559D01*
X31548Y59420D01*
X32469Y59802D01*
X33260Y60409D01*
X33867Y61200D01*
X34249Y62121D01*
X34379Y63110D01*
X34249Y64099D01*
X33867Y65020D01*
X33260Y65811D01*
X32469Y66418D01*
X31548Y66800D01*
X30559Y66930D01*
D02*
G37*
G36*
X46004Y62124D02*
X43154D01*
Y58874D01*
X46004D01*
Y62124D01*
D02*
G37*
G36*
X191976Y57144D02*
X189976D01*
Y54110D01*
X195879D01*
X195873Y54154D01*
X195470Y55127D01*
X194829Y55963D01*
X193993Y56604D01*
X193020Y57007D01*
X191976Y57144D01*
D02*
G37*
G36*
X46004Y56874D02*
X43154D01*
Y53624D01*
X46004D01*
Y56874D01*
D02*
G37*
G36*
X30559Y56930D02*
X24559D01*
X23570Y56800D01*
X22649Y56418D01*
X21858Y55811D01*
X21251Y55020D01*
X20869Y54099D01*
X20739Y53110D01*
X20869Y52121D01*
X21251Y51200D01*
X21858Y50409D01*
X22649Y49802D01*
X23570Y49420D01*
X24559Y49290D01*
X30559D01*
X31548Y49420D01*
X32469Y49802D01*
X33260Y50409D01*
X33867Y51200D01*
X34249Y52121D01*
X34379Y53110D01*
X34249Y54099D01*
X33867Y55020D01*
X33260Y55811D01*
X32469Y56418D01*
X31548Y56800D01*
X30559Y56930D01*
D02*
G37*
G36*
X195879Y52110D02*
X189976D01*
Y49075D01*
X191976D01*
X193020Y49213D01*
X193993Y49616D01*
X194829Y50257D01*
X195470Y51093D01*
X195873Y52066D01*
X195879Y52110D01*
D02*
G37*
G36*
X134750Y45217D02*
Y42250D01*
X137717D01*
X137562Y42829D01*
X137023Y43762D01*
X136262Y44523D01*
X135329Y45062D01*
X134750Y45217D01*
D02*
G37*
G36*
X132750D02*
X132171Y45062D01*
X131238Y44523D01*
X130477Y43762D01*
X129938Y42829D01*
X129783Y42250D01*
X132750D01*
Y45217D01*
D02*
G37*
G36*
X191976Y46930D02*
X185976D01*
X184987Y46800D01*
X184066Y46418D01*
X183275Y45811D01*
X182668Y45020D01*
X182286Y44099D01*
X182156Y43110D01*
X182286Y42121D01*
X182668Y41200D01*
X183275Y40409D01*
X184066Y39802D01*
X184987Y39420D01*
X185976Y39290D01*
X191976D01*
X192965Y39420D01*
X193886Y39802D01*
X194677Y40409D01*
X195284Y41200D01*
X195666Y42121D01*
X195796Y43110D01*
X195666Y44099D01*
X195284Y45020D01*
X194677Y45811D01*
X193886Y46418D01*
X192965Y46800D01*
X191976Y46930D01*
D02*
G37*
G36*
X30559D02*
X24559D01*
X23570Y46800D01*
X22649Y46418D01*
X21858Y45811D01*
X21251Y45020D01*
X20869Y44099D01*
X20739Y43110D01*
X20869Y42121D01*
X21251Y41200D01*
X21858Y40409D01*
X22649Y39802D01*
X23570Y39420D01*
X24559Y39290D01*
X30559D01*
X31548Y39420D01*
X32469Y39802D01*
X33260Y40409D01*
X33867Y41200D01*
X34249Y42121D01*
X34379Y43110D01*
X34249Y44099D01*
X33867Y45020D01*
X33260Y45811D01*
X32469Y46418D01*
X31548Y46800D01*
X30559Y46930D01*
D02*
G37*
G36*
X137717Y40250D02*
X134750D01*
Y37283D01*
X135329Y37438D01*
X136262Y37977D01*
X137023Y38738D01*
X137562Y39671D01*
X137717Y40250D01*
D02*
G37*
G36*
X132750D02*
X129783D01*
X129938Y39671D01*
X130477Y38738D01*
X131238Y37977D01*
X132171Y37438D01*
X132750Y37283D01*
Y40250D01*
D02*
G37*
G36*
X91956Y46735D02*
X52755D01*
X52351Y46654D01*
X52008Y46425D01*
X51778Y46082D01*
X51698Y45677D01*
Y36377D01*
X51778Y35972D01*
X52008Y35629D01*
X52351Y35400D01*
X52755Y35319D01*
X91956D01*
X92360Y35400D01*
X92703Y35629D01*
X92933Y35972D01*
X93013Y36377D01*
Y45677D01*
X92933Y46082D01*
X92703Y46425D01*
X92360Y46654D01*
X91956Y46735D01*
D02*
G37*
G36*
X191976Y36930D02*
X185976D01*
X184987Y36800D01*
X184066Y36418D01*
X183275Y35811D01*
X182668Y35020D01*
X182286Y34099D01*
X182156Y33110D01*
X182286Y32121D01*
X182668Y31200D01*
X183275Y30409D01*
X184066Y29802D01*
X184987Y29420D01*
X185976Y29290D01*
X191976D01*
X192965Y29420D01*
X193886Y29802D01*
X194677Y30409D01*
X195284Y31200D01*
X195666Y32121D01*
X195796Y33110D01*
X195666Y34099D01*
X195284Y35020D01*
X194677Y35811D01*
X193886Y36418D01*
X192965Y36800D01*
X191976Y36930D01*
D02*
G37*
G36*
X30559D02*
X24559D01*
X23570Y36800D01*
X22649Y36418D01*
X21858Y35811D01*
X21251Y35020D01*
X20869Y34099D01*
X20739Y33110D01*
X20869Y32121D01*
X21251Y31200D01*
X21858Y30409D01*
X22649Y29802D01*
X23570Y29420D01*
X24559Y29290D01*
X30559D01*
X31548Y29420D01*
X32469Y29802D01*
X33260Y30409D01*
X33867Y31200D01*
X34249Y32121D01*
X34379Y33110D01*
X34249Y34099D01*
X33867Y35020D01*
X33260Y35811D01*
X32469Y36418D01*
X31548Y36800D01*
X30559Y36930D01*
D02*
G37*
G36*
X195000Y223327D02*
X173592D01*
X172798Y223169D01*
X172124Y222719D01*
X161462Y212057D01*
X160657D01*
X159816Y211832D01*
X159062Y211396D01*
X158446Y210781D01*
X158011Y210027D01*
X157785Y209185D01*
Y208315D01*
X158011Y207473D01*
X158446Y206719D01*
X159015Y206150D01*
Y201408D01*
X159173Y200612D01*
X159624Y199939D01*
X165423Y194140D01*
Y181871D01*
X163858D01*
Y175572D01*
X171142D01*
Y181871D01*
X169577D01*
Y195000D01*
X169577Y195000D01*
X169419Y195795D01*
X168969Y196469D01*
X168969Y196469D01*
X163170Y202268D01*
Y206150D01*
X163739Y206719D01*
X164174Y207473D01*
X164400Y208315D01*
Y209119D01*
X174453Y219173D01*
X194140D01*
X200423Y212890D01*
Y202500D01*
X200581Y201705D01*
X201031Y201031D01*
X209173Y192889D01*
Y29610D01*
X204749Y25187D01*
X195156D01*
X194677Y25811D01*
X193886Y26418D01*
X192965Y26800D01*
X191976Y26930D01*
X185976D01*
X184987Y26800D01*
X184066Y26418D01*
X183275Y25811D01*
X182796Y25187D01*
X162691D01*
X148415Y39463D01*
Y40659D01*
X146401D01*
X146348Y40670D01*
X146250D01*
X146198Y40659D01*
X144085D01*
Y36526D01*
X145478D01*
X160362Y21641D01*
X161036Y21191D01*
X161831Y21033D01*
X182796D01*
X183275Y20409D01*
X184066Y19802D01*
X184987Y19420D01*
X185976Y19290D01*
X191976D01*
X192965Y19420D01*
X193886Y19802D01*
X194677Y20409D01*
X195156Y21033D01*
X205610D01*
X206405Y21191D01*
X207079Y21641D01*
X212719Y27281D01*
X212719Y27281D01*
X213169Y27955D01*
X213327Y28750D01*
Y193750D01*
X213327Y193750D01*
X213169Y194545D01*
X212719Y195219D01*
X204577Y203361D01*
Y213750D01*
X204577Y213750D01*
X204419Y214545D01*
X203969Y215219D01*
X196469Y222719D01*
X195795Y223169D01*
X195000Y223327D01*
D02*
G37*
G36*
X113157Y25485D02*
X110307D01*
Y20685D01*
X113157D01*
Y25485D01*
D02*
G37*
G36*
X50854D02*
X48004D01*
Y20685D01*
X50854D01*
Y25485D01*
D02*
G37*
G36*
X108307D02*
X105457D01*
Y20685D01*
X108307D01*
Y25485D01*
D02*
G37*
G36*
X46004D02*
X43154D01*
Y20685D01*
X46004D01*
Y25485D01*
D02*
G37*
G36*
X30559Y26930D02*
X24559D01*
X23570Y26800D01*
X22649Y26418D01*
X21858Y25811D01*
X21251Y25020D01*
X20869Y24099D01*
X20739Y23110D01*
X20869Y22121D01*
X21251Y21200D01*
X21858Y20409D01*
X22649Y19802D01*
X23570Y19420D01*
X24559Y19290D01*
X30559D01*
X31548Y19420D01*
X32469Y19802D01*
X33260Y20409D01*
X33867Y21200D01*
X34249Y22121D01*
X34379Y23110D01*
X34249Y24099D01*
X33867Y25020D01*
X33260Y25811D01*
X32469Y26418D01*
X31548Y26800D01*
X30559Y26930D01*
D02*
G37*
G36*
X90518Y21533D02*
X89793D01*
X89092Y21345D01*
X88463Y20982D01*
X87950Y20469D01*
X87587Y19841D01*
X87400Y19140D01*
Y18414D01*
X87587Y17713D01*
X87950Y17085D01*
X88463Y16572D01*
X89092Y16209D01*
X89793Y16021D01*
X90518D01*
X91219Y16209D01*
X91848Y16572D01*
X92361Y17085D01*
X92724Y17713D01*
X92911Y18414D01*
Y19140D01*
X92724Y19841D01*
X92361Y20469D01*
X91848Y20982D01*
X91219Y21345D01*
X90518Y21533D01*
D02*
G37*
G36*
X59118D02*
X58393D01*
X57692Y21345D01*
X57063Y20982D01*
X56550Y20469D01*
X56187Y19841D01*
X56000Y19140D01*
Y18414D01*
X56187Y17713D01*
X56550Y17085D01*
X57063Y16572D01*
X57692Y16209D01*
X58393Y16021D01*
X59118D01*
X59819Y16209D01*
X60448Y16572D01*
X60961Y17085D01*
X61324Y17713D01*
X61511Y18414D01*
Y19140D01*
X61324Y19841D01*
X60961Y20469D01*
X60448Y20982D01*
X59819Y21345D01*
X59118Y21533D01*
D02*
G37*
G36*
X113157Y18685D02*
X110307D01*
Y13885D01*
X113157D01*
Y18685D01*
D02*
G37*
G36*
X108307D02*
X105457D01*
Y13885D01*
X108307D01*
Y18685D01*
D02*
G37*
G36*
X50854D02*
X48004D01*
Y13885D01*
X50854D01*
Y18685D01*
D02*
G37*
G36*
X46004D02*
X43154D01*
Y13885D01*
X46004D01*
Y18685D01*
D02*
G37*
G36*
X205616Y17053D02*
X204384D01*
X204307Y17037D01*
X204228D01*
X203020Y16797D01*
X202947Y16767D01*
X202870Y16751D01*
X201732Y16280D01*
X201666Y16237D01*
X201593Y16206D01*
X200570Y15522D01*
X200514Y15466D01*
X200448Y15422D01*
X199578Y14552D01*
X199534Y14486D01*
X199478Y14430D01*
X198794Y13407D01*
X198764Y13333D01*
X198720Y13268D01*
X198249Y12130D01*
X198233Y12053D01*
X198203Y11980D01*
X197963Y10772D01*
Y10693D01*
X197947Y10616D01*
Y9384D01*
X197963Y9307D01*
Y9228D01*
X198203Y8020D01*
X198233Y7947D01*
X198249Y7870D01*
X198720Y6732D01*
X198764Y6667D01*
X198794Y6594D01*
X199478Y5570D01*
X199534Y5514D01*
X199578Y5448D01*
X200448Y4578D01*
X200514Y4534D01*
X200570Y4478D01*
X201593Y3794D01*
X201666Y3763D01*
X201732Y3720D01*
X202870Y3249D01*
X202947Y3233D01*
X203020Y3203D01*
X204228Y2963D01*
X204307D01*
X204384Y2947D01*
X205000Y2947D01*
X205616D01*
X205693Y2963D01*
X205772D01*
X206980Y3203D01*
X207053Y3233D01*
X207130Y3249D01*
X208268Y3720D01*
X208333Y3763D01*
X208406Y3794D01*
X209430Y4478D01*
X209486Y4534D01*
X209552Y4578D01*
X210422Y5448D01*
X210466Y5514D01*
X210522Y5570D01*
X211206Y6594D01*
X211237Y6667D01*
X211280Y6732D01*
X211752Y7870D01*
X211767Y7947D01*
X211797Y8020D01*
X212037Y9228D01*
Y9307D01*
X212053Y9384D01*
Y10616D01*
X212037Y10693D01*
Y10772D01*
X211797Y11980D01*
X211767Y12053D01*
X211752Y12130D01*
X211280Y13268D01*
X211237Y13333D01*
X211206Y13407D01*
X210522Y14430D01*
X210466Y14486D01*
X210422Y14552D01*
X209552Y15422D01*
X209486Y15466D01*
X209430Y15522D01*
X208406Y16206D01*
X208333Y16236D01*
X208268Y16280D01*
X207130Y16751D01*
X207053Y16767D01*
X206980Y16797D01*
X205772Y17037D01*
X205693D01*
X205616Y17053D01*
D02*
G37*
G36*
X10616D02*
X9384D01*
X9307Y17037D01*
X9228D01*
X8020Y16797D01*
X7947Y16767D01*
X7870Y16751D01*
X6732Y16280D01*
X6667Y16237D01*
X6594Y16206D01*
X5570Y15522D01*
X5514Y15466D01*
X5448Y15422D01*
X4578Y14552D01*
X4534Y14486D01*
X4478Y14430D01*
X3794Y13407D01*
X3763Y13333D01*
X3720Y13268D01*
X3249Y12130D01*
X3233Y12053D01*
X3203Y11980D01*
X2963Y10772D01*
Y10693D01*
X2947Y10616D01*
X2947Y10000D01*
Y9384D01*
X2963Y9307D01*
Y9228D01*
X3203Y8020D01*
X3233Y7947D01*
X3249Y7870D01*
X3720Y6732D01*
X3763Y6667D01*
X3794Y6594D01*
X4478Y5570D01*
X4534Y5514D01*
X4578Y5448D01*
X5448Y4578D01*
X5514Y4534D01*
X5570Y4478D01*
X6594Y3794D01*
X6667Y3763D01*
X6732Y3720D01*
X7870Y3249D01*
X7947Y3233D01*
X8020Y3203D01*
X9228Y2963D01*
X9307D01*
X9384Y2947D01*
X10000Y2947D01*
X10616D01*
X10693Y2963D01*
X10772D01*
X11980Y3203D01*
X12053Y3233D01*
X12130Y3249D01*
X13268Y3720D01*
X13333Y3763D01*
X13407Y3794D01*
X14430Y4478D01*
X14486Y4534D01*
X14552Y4578D01*
X15422Y5448D01*
X15466Y5514D01*
X15522Y5570D01*
X16206Y6594D01*
X16236Y6667D01*
X16280Y6732D01*
X16751Y7870D01*
X16767Y7947D01*
X16797Y8020D01*
X17037Y9228D01*
Y9307D01*
X17053Y9384D01*
Y10616D01*
X17037Y10693D01*
Y10772D01*
X16797Y11980D01*
X16767Y12053D01*
X16751Y12130D01*
X16280Y13268D01*
X16237Y13333D01*
X16206Y13407D01*
X15522Y14430D01*
X15466Y14486D01*
X15422Y14552D01*
X14552Y15422D01*
X14486Y15466D01*
X14430Y15522D01*
X13407Y16206D01*
X13333Y16236D01*
X13268Y16280D01*
X12130Y16751D01*
X12053Y16767D01*
X11980Y16797D01*
X10772Y17037D01*
X10693D01*
X10616Y17053D01*
D02*
G37*
%LPD*%
G36*
X168505Y162835D02*
X160732Y155063D01*
X159051D01*
Y157762D01*
X155000D01*
Y159762D01*
X159051D01*
Y161831D01*
X164778D01*
X165280Y161931D01*
X165706Y162216D01*
X166787Y163297D01*
X168314D01*
X168505Y162835D01*
D02*
G37*
G36*
X150450Y141612D02*
X150243Y141112D01*
X149530D01*
X148662Y140753D01*
X147997Y140088D01*
X147638Y139220D01*
Y138280D01*
X147811Y137861D01*
X147477Y137361D01*
X147024D01*
X146156Y137001D01*
X145492Y136337D01*
X145132Y135468D01*
Y134529D01*
X145492Y133660D01*
X145997Y133155D01*
X145790Y132655D01*
X145276D01*
X144738Y132548D01*
X144282Y132244D01*
X143978Y131788D01*
X143871Y131250D01*
X143978Y130712D01*
X144276Y130266D01*
X143978Y129819D01*
X143871Y129281D01*
X143978Y128744D01*
X144276Y128297D01*
X143978Y127851D01*
X143871Y127313D01*
X143978Y126775D01*
X144276Y126329D01*
X143978Y125882D01*
X143871Y125345D01*
X143978Y124807D01*
X144156Y124540D01*
X144129Y124523D01*
X143777Y123997D01*
X143654Y123376D01*
X143685Y123220D01*
X143275Y122720D01*
X117657D01*
X117155Y122620D01*
X116729Y122336D01*
X115495Y121102D01*
X115470Y121112D01*
X114530D01*
X113662Y120753D01*
X112997Y120088D01*
X112638Y119220D01*
Y118280D01*
X112997Y117412D01*
X113662Y116747D01*
X114530Y116388D01*
X115470D01*
X116338Y116747D01*
X117003Y117412D01*
X117362Y118280D01*
Y119220D01*
X117352Y119245D01*
X118201Y120095D01*
X120085D01*
X120277Y119633D01*
X115706Y115063D01*
X114513D01*
X114503Y115088D01*
X113838Y115753D01*
X112970Y116112D01*
X112030D01*
X111162Y115753D01*
X110563Y115153D01*
X110255Y115210D01*
X110063Y115307D01*
Y120016D01*
X110478Y120294D01*
X110855Y120138D01*
X111795D01*
X112663Y120497D01*
X113327Y121162D01*
X113687Y122030D01*
Y122970D01*
X113654Y123048D01*
X117070Y126464D01*
X117354Y126889D01*
X117454Y127392D01*
Y134987D01*
X117954Y135388D01*
X118110Y135357D01*
X118648Y135464D01*
X119095Y135762D01*
X119541Y135464D01*
X120079Y135357D01*
X120616Y135464D01*
X121063Y135762D01*
X121510Y135464D01*
X122047Y135357D01*
X122585Y135464D01*
X122747Y135572D01*
X122762Y135559D01*
X122997Y135088D01*
X122638Y134220D01*
Y133280D01*
X122997Y132412D01*
X123662Y131747D01*
X124530Y131388D01*
X125470D01*
X126338Y131747D01*
X127003Y132412D01*
X127013Y132437D01*
X133750D01*
X134252Y132537D01*
X134678Y132822D01*
X136744Y134888D01*
X136773Y134931D01*
X136795Y134949D01*
Y134964D01*
X137029Y135314D01*
X137129Y135816D01*
Y136244D01*
X137232Y136762D01*
Y139321D01*
X138359D01*
Y136762D01*
X138466Y136224D01*
X138770Y135768D01*
X138795Y135751D01*
Y135517D01*
X138942Y135615D01*
X138960Y135642D01*
X139226Y135464D01*
X139764Y135357D01*
X140301Y135464D01*
X140757Y135768D01*
X141062Y136224D01*
X141169Y136762D01*
Y141880D01*
X141062Y142418D01*
X140757Y142873D01*
X140301Y143178D01*
X139764Y143285D01*
X139226Y143178D01*
X138960Y143000D01*
X138942Y143027D01*
X138416Y143378D01*
X137795Y143502D01*
X137639Y143471D01*
X137139Y143881D01*
Y145643D01*
X137039Y146145D01*
X136935Y146302D01*
Y146425D01*
X136909Y146552D01*
Y147121D01*
X137416Y147628D01*
X137878Y147436D01*
Y144728D01*
X139453D01*
Y147500D01*
X140453D01*
Y148500D01*
X143314D01*
X143490Y148573D01*
X150450Y141612D01*
D02*
G37*
G36*
X116798Y164738D02*
Y143655D01*
X116298Y143254D01*
X116142Y143285D01*
X115604Y143178D01*
X115157Y142879D01*
X114711Y143178D01*
X114173Y143285D01*
X113636Y143178D01*
X113369Y143000D01*
X113351Y143027D01*
X112825Y143378D01*
X112205Y143502D01*
X112049Y143471D01*
X111593Y143845D01*
X111559Y144353D01*
X111892Y144728D01*
X111953D01*
Y146500D01*
X109946D01*
X109916Y146487D01*
X109409Y146994D01*
Y150059D01*
X109125D01*
Y152034D01*
X109503Y152412D01*
X109862Y153280D01*
Y154220D01*
X109503Y155088D01*
X108838Y155753D01*
X108151Y156037D01*
X107980Y156574D01*
X116336Y164930D01*
X116798Y164738D01*
D02*
G37*
G36*
X143902Y117626D02*
X143871Y117471D01*
X143978Y116933D01*
X144276Y116486D01*
X143978Y116040D01*
X143871Y115502D01*
X143902Y115346D01*
X143501Y114846D01*
X133353D01*
X133253Y115088D01*
X132588Y115753D01*
X131720Y116112D01*
X130780D01*
X129912Y115753D01*
X129247Y115088D01*
X128888Y114220D01*
Y113280D01*
X129247Y112412D01*
X129912Y111747D01*
X130780Y111388D01*
X131720D01*
X132588Y111747D01*
X133062Y112221D01*
X138173D01*
X138380Y111721D01*
X137997Y111338D01*
X137638Y110470D01*
Y109530D01*
X137997Y108662D01*
X138662Y107997D01*
X139530Y107638D01*
X140470D01*
X141338Y107997D01*
X141659Y108318D01*
X143524D01*
X143909Y107818D01*
X143871Y107628D01*
X143909Y107437D01*
X143524Y106937D01*
X143125D01*
X142622Y106837D01*
X142197Y106553D01*
X141572Y105928D01*
X141287Y105502D01*
X141187Y105000D01*
Y101250D01*
X141287Y100748D01*
X141572Y100322D01*
X146531Y95362D01*
X146324Y94862D01*
X145780D01*
X144912Y94503D01*
X144247Y93838D01*
X144237Y93813D01*
X141169D01*
Y96211D01*
X141062Y96748D01*
X140757Y97204D01*
X140301Y97509D01*
X139764Y97616D01*
X139226Y97509D01*
X138960Y97331D01*
X138942Y97357D01*
X138795Y97455D01*
Y97221D01*
X138770Y97204D01*
X138466Y96748D01*
X138359Y96211D01*
Y93652D01*
X137232D01*
Y96211D01*
X137125Y96748D01*
X136820Y97204D01*
X136795Y97221D01*
Y97455D01*
X136649Y97357D01*
X136631Y97331D01*
X136364Y97509D01*
X135827Y97616D01*
X135289Y97509D01*
X134843Y97210D01*
X134396Y97509D01*
X133858Y97616D01*
X133321Y97509D01*
X132874Y97210D01*
X132427Y97509D01*
X131890Y97616D01*
X131352Y97509D01*
X130905Y97210D01*
X130459Y97509D01*
X129921Y97616D01*
X129384Y97509D01*
X128937Y97210D01*
X128490Y97509D01*
X127953Y97616D01*
X127415Y97509D01*
X126969Y97210D01*
X126522Y97509D01*
X125984Y97616D01*
X125447Y97509D01*
X125000Y97210D01*
X124553Y97509D01*
X124016Y97616D01*
X123907Y97594D01*
X123661Y98055D01*
X124678Y99072D01*
X124963Y99498D01*
X125063Y100000D01*
Y108750D01*
X124963Y109252D01*
X124678Y109678D01*
X122178Y112178D01*
X121752Y112463D01*
X121250Y112563D01*
X120763D01*
X120753Y112588D01*
X120088Y113253D01*
X119220Y113612D01*
X118676D01*
X118468Y114112D01*
X122483Y118126D01*
X143501D01*
X143902Y117626D01*
D02*
G37*
G36*
X78193Y107784D02*
X77997Y107588D01*
X77638Y106720D01*
Y105780D01*
X77997Y104912D01*
X78662Y104247D01*
X79530Y103888D01*
X80470D01*
X81338Y104247D01*
X82003Y104912D01*
X82013Y104937D01*
X85524D01*
X86026Y105037D01*
X86452Y105322D01*
X87787Y106657D01*
X90978D01*
Y106395D01*
X93750D01*
Y104395D01*
X90978D01*
Y102820D01*
X94517D01*
X94724Y102320D01*
X94256Y101851D01*
X91191D01*
X90807Y102131D01*
X89788Y103150D01*
X89503Y103838D01*
X88838Y104503D01*
X87970Y104862D01*
X87030D01*
X86162Y104503D01*
X85497Y103838D01*
X85138Y102970D01*
Y102030D01*
X85497Y101162D01*
X86162Y100497D01*
X86850Y100213D01*
X88312Y98750D01*
X87005Y97442D01*
X86554Y96768D01*
X86396Y95973D01*
Y90059D01*
X85935D01*
Y84941D01*
X86229D01*
Y82557D01*
X84274D01*
Y69943D01*
X85285D01*
Y64678D01*
X85069Y64267D01*
X84511D01*
Y67943D01*
X84411Y68446D01*
X84126Y68871D01*
X76828Y76170D01*
X76402Y76455D01*
X75899Y76554D01*
X71601D01*
X64687Y83469D01*
X64565Y83550D01*
Y84921D01*
X64457Y85463D01*
X64150Y85922D01*
X63691Y86229D01*
X63150Y86336D01*
X61949D01*
X61407Y86229D01*
X61208Y86095D01*
X60707Y85944D01*
X60274Y86233D01*
X59764Y86335D01*
X58720D01*
X58210Y86233D01*
X58041Y86120D01*
X57667Y85984D01*
X57293Y86120D01*
X57125Y86233D01*
X56614Y86335D01*
X55571D01*
X55060Y86233D01*
X54627Y85944D01*
X54127Y86095D01*
X53927Y86229D01*
X53386Y86336D01*
X52185D01*
X51644Y86229D01*
X51184Y85922D01*
X50878Y85463D01*
X50770Y84921D01*
Y82579D01*
X50878Y82037D01*
X51184Y81578D01*
X51473Y81386D01*
Y74054D01*
X51573Y73551D01*
X51857Y73125D01*
X60216Y64767D01*
X60193Y64267D01*
X59085D01*
X58828Y64661D01*
X58710Y65254D01*
X58260Y65928D01*
X58260Y65928D01*
X49577Y74611D01*
Y86639D01*
X51364Y88427D01*
X51644Y88240D01*
X52185Y88132D01*
X53386D01*
X53927Y88240D01*
X54131Y88376D01*
X54627Y88525D01*
X55060Y88235D01*
X55571Y88134D01*
X56614D01*
X57125Y88235D01*
X57293Y88348D01*
X57667Y88485D01*
X58041Y88348D01*
X58210Y88235D01*
X58720Y88134D01*
X59764D01*
X60274Y88235D01*
X60708Y88525D01*
X61204Y88376D01*
X61407Y88240D01*
X61949Y88132D01*
X63150D01*
X63691Y88240D01*
X64150Y88547D01*
X64457Y89006D01*
X64565Y89547D01*
Y90407D01*
X64626Y90719D01*
X64565Y91030D01*
Y91890D01*
X64457Y92431D01*
X64150Y92890D01*
X63691Y93197D01*
X63150Y93305D01*
X61949D01*
X61407Y93197D01*
X61204Y93061D01*
X60707Y92912D01*
X60274Y93202D01*
X59764Y93303D01*
X58720D01*
X58210Y93202D01*
X58041Y93089D01*
X57667Y92952D01*
X57293Y93089D01*
X57125Y93202D01*
X56614Y93303D01*
X55571D01*
X55060Y93202D01*
X54627Y92912D01*
X54131Y93061D01*
X53927Y93197D01*
X53386Y93305D01*
X52686D01*
X52479Y93805D01*
X66958Y108284D01*
X77986D01*
X78193Y107784D01*
D02*
G37*
G36*
X158553Y108469D02*
X158345Y107969D01*
X157250D01*
Y106395D01*
X159022D01*
Y107293D01*
X159522Y107500D01*
X161700Y105322D01*
X162126Y105037D01*
X162628Y104937D01*
X164456D01*
X168016Y101378D01*
X167697Y100989D01*
X167070Y101408D01*
X166275Y101567D01*
X158809D01*
Y101851D01*
X155547D01*
X155079Y102320D01*
X155250Y102733D01*
Y104395D01*
X153478D01*
Y103035D01*
X152168D01*
X151768Y103535D01*
X151799Y103691D01*
X151692Y104229D01*
X151393Y104675D01*
X151692Y105122D01*
X151799Y105659D01*
X151692Y106197D01*
X151393Y106644D01*
X151692Y107090D01*
X151799Y107628D01*
X151692Y108166D01*
X151393Y108612D01*
X151692Y109059D01*
X151799Y109597D01*
X151692Y110134D01*
X151393Y110581D01*
X151692Y111027D01*
X151799Y111565D01*
X151692Y112103D01*
X151393Y112549D01*
X151692Y112996D01*
X151799Y113533D01*
X151768Y113689D01*
X152168Y114189D01*
X152833D01*
X158553Y108469D01*
D02*
G37*
G36*
X103310Y154555D02*
Y143750D01*
X103410Y143248D01*
X103694Y142822D01*
X107437Y139079D01*
Y96852D01*
X107537Y96350D01*
X107822Y95924D01*
X108429Y95317D01*
X108831Y95048D01*
Y91092D01*
X108938Y90555D01*
X109243Y90099D01*
X109699Y89794D01*
X110236Y89688D01*
X110774Y89794D01*
X111221Y90093D01*
X111667Y89794D01*
X111880Y89752D01*
X112044Y89210D01*
X111747Y88913D01*
X111388Y88045D01*
Y87105D01*
X111747Y86237D01*
X112412Y85572D01*
X113280Y85213D01*
X114220D01*
X114638Y85386D01*
X115138Y85052D01*
Y84530D01*
X115497Y83662D01*
X116162Y82997D01*
X117030Y82638D01*
X117970D01*
X118838Y82997D01*
X119503Y83662D01*
X119862Y84530D01*
Y85139D01*
X120362Y85238D01*
X120497Y84912D01*
X121162Y84247D01*
X122030Y83888D01*
X122970D01*
X123838Y84247D01*
X124503Y84912D01*
X124862Y85780D01*
Y86720D01*
X124852Y86745D01*
X126178Y88072D01*
X126640Y87880D01*
Y72047D01*
X126740Y71545D01*
X127025Y71119D01*
X145322Y52822D01*
X145422Y52755D01*
X145366Y52191D01*
X145092Y52077D01*
X139611D01*
X137537Y54151D01*
X137628Y54489D01*
Y55510D01*
X137364Y56497D01*
X136853Y57381D01*
X136131Y58103D01*
X135247Y58614D01*
X134260Y58878D01*
X133239D01*
X132253Y58614D01*
X131369Y58103D01*
X130647Y57381D01*
X130472Y57077D01*
X124612D01*
Y58616D01*
X121250D01*
X117888D01*
Y57077D01*
X116250D01*
X115455Y56919D01*
X114781Y56469D01*
X111639Y53327D01*
X111283D01*
X110906Y53624D01*
X110906Y53827D01*
Y56874D01*
X106255D01*
X101605D01*
Y53827D01*
X101605Y53624D01*
X101228Y53327D01*
X92829D01*
X89312Y56845D01*
Y57574D01*
X89400D01*
Y60848D01*
X89439Y61048D01*
Y69943D01*
X92356D01*
Y82557D01*
X90383D01*
Y84941D01*
X90659D01*
Y90059D01*
X90551D01*
Y95113D01*
X92565Y97127D01*
X96309D01*
Y100192D01*
X96527Y100410D01*
X99142D01*
X99606Y100318D01*
X104724D01*
X105262Y100424D01*
X105718Y100729D01*
X106022Y101185D01*
X106129Y101722D01*
X106022Y102260D01*
X105844Y102526D01*
X105871Y102544D01*
X105969Y102691D01*
X105735D01*
X105718Y102716D01*
X105262Y103021D01*
X104724Y103128D01*
X102165D01*
Y104254D01*
X104724D01*
X105262Y104361D01*
X105718Y104666D01*
X105735Y104691D01*
X105969D01*
X105871Y104838D01*
X105844Y104856D01*
X106022Y105122D01*
X106129Y105659D01*
X106022Y106197D01*
X105724Y106644D01*
X106022Y107090D01*
X106129Y107628D01*
X106022Y108166D01*
X105724Y108612D01*
X106022Y109059D01*
X106129Y109597D01*
X106022Y110134D01*
X105724Y110581D01*
X106022Y111027D01*
X106129Y111565D01*
X106022Y112103D01*
X105724Y112549D01*
X106022Y112996D01*
X106129Y113533D01*
X106022Y114071D01*
X105724Y114518D01*
X106022Y114964D01*
X106129Y115502D01*
X106022Y116040D01*
X105724Y116486D01*
X106022Y116933D01*
X106129Y117471D01*
X106022Y118008D01*
X105724Y118455D01*
X106022Y118901D01*
X106129Y119439D01*
X106022Y119977D01*
X105724Y120423D01*
X106022Y120870D01*
X106129Y121407D01*
X106022Y121945D01*
X105724Y122392D01*
X106022Y122838D01*
X106129Y123376D01*
X106022Y123914D01*
X105724Y124360D01*
X106022Y124807D01*
X106129Y125345D01*
X106022Y125882D01*
X105724Y126329D01*
X106022Y126775D01*
X106129Y127313D01*
X106022Y127851D01*
X105724Y128297D01*
X106022Y128744D01*
X106129Y129281D01*
X106022Y129819D01*
X105724Y130266D01*
X106022Y130712D01*
X106129Y131250D01*
X106022Y131788D01*
X105718Y132244D01*
X105262Y132548D01*
X104724Y132655D01*
X99606D01*
X99069Y132548D01*
X98613Y132244D01*
X98308Y131788D01*
X98201Y131250D01*
X98308Y130712D01*
X98607Y130266D01*
X98308Y129819D01*
X98201Y129281D01*
X98211Y129235D01*
X97750Y128989D01*
X93738Y133001D01*
Y145690D01*
X102810Y154762D01*
X103310Y154555D01*
D02*
G37*
G36*
X57929Y80758D02*
X58029Y80256D01*
X58314Y79830D01*
X58898Y79245D01*
X58888Y79220D01*
Y78280D01*
X59247Y77412D01*
X59912Y76747D01*
X60780Y76388D01*
X61720D01*
X62588Y76747D01*
X63242Y77402D01*
X64031Y76612D01*
X63824Y76112D01*
X63280D01*
X62412Y75753D01*
X61747Y75088D01*
X61388Y74220D01*
Y73280D01*
X61561Y72862D01*
X61227Y72362D01*
X60780D01*
X59912Y72003D01*
X59883Y71974D01*
X56313Y75544D01*
Y78605D01*
X57021Y79313D01*
X57305Y79739D01*
X57405Y80242D01*
Y80752D01*
X57670Y80897D01*
X57929Y80758D01*
D02*
G37*
G36*
X66581Y57361D02*
X67959D01*
Y57574D01*
X72165D01*
Y52077D01*
X63361D01*
X59125Y56313D01*
Y57574D01*
X63203D01*
Y57361D01*
X64581D01*
Y60921D01*
X66581D01*
Y57361D01*
D02*
G37*
%LPC*%
G36*
X143028Y146500D02*
X141453D01*
Y144728D01*
X143028D01*
Y146500D01*
D02*
G37*
G36*
X115528Y150272D02*
X113953D01*
Y148500D01*
X115528D01*
Y150272D01*
D02*
G37*
G36*
X111953D02*
X110378D01*
Y148500D01*
X111953D01*
Y150272D01*
D02*
G37*
G36*
X115528Y146500D02*
X113953D01*
Y144728D01*
X115528D01*
Y146500D01*
D02*
G37*
G36*
X155250Y107969D02*
X153478D01*
Y106395D01*
X155250D01*
Y107969D01*
D02*
G37*
G36*
X159022Y104395D02*
X157250D01*
Y102820D01*
X159022D01*
Y104395D01*
D02*
G37*
G36*
X96778Y90272D02*
X95203D01*
Y88500D01*
X96778D01*
Y90272D01*
D02*
G37*
G36*
X93203D02*
X91628D01*
Y88500D01*
X93203D01*
Y90272D01*
D02*
G37*
G36*
X96778Y86500D02*
X95203D01*
Y84728D01*
X96778D01*
Y86500D01*
D02*
G37*
G36*
X93203D02*
X91628D01*
Y84728D01*
X93203D01*
Y86500D01*
D02*
G37*
G36*
X103003Y82770D02*
X99750D01*
Y77250D01*
X103003D01*
Y82770D01*
D02*
G37*
G36*
X97750D02*
X94497D01*
Y77250D01*
X97750D01*
Y82770D01*
D02*
G37*
G36*
X103003Y75250D02*
X99750D01*
Y69730D01*
X103003D01*
Y75250D01*
D02*
G37*
G36*
X97750D02*
X94497D01*
Y69730D01*
X97750D01*
Y75250D01*
D02*
G37*
G36*
X121287Y81378D02*
X120266D01*
X119280Y81114D01*
X118395Y80603D01*
X117674Y79881D01*
X117163Y78997D01*
X116899Y78010D01*
Y76990D01*
X117163Y76003D01*
X117674Y75119D01*
X118395Y74397D01*
X119280Y73886D01*
X119464Y73837D01*
Y70443D01*
X118100D01*
Y65325D01*
X124400D01*
Y70443D01*
X122089D01*
Y73837D01*
X122273Y73886D01*
X123158Y74397D01*
X123880Y75119D01*
X124390Y76003D01*
X124654Y76990D01*
Y78010D01*
X124390Y78997D01*
X123880Y79881D01*
X123158Y80603D01*
X122273Y81114D01*
X121287Y81378D01*
D02*
G37*
G36*
X124612Y62388D02*
X122250D01*
Y60616D01*
X124612D01*
Y62388D01*
D02*
G37*
G36*
X120250D02*
X117888D01*
Y60616D01*
X120250D01*
Y62388D01*
D02*
G37*
G36*
X110906Y62124D02*
X107255D01*
Y58874D01*
X110906D01*
Y62124D01*
D02*
G37*
G36*
X105255D02*
X101605D01*
Y58874D01*
X105255D01*
Y62124D01*
D02*
G37*
%LPD*%
D19*
X70206Y61215D02*
Y65350D01*
X68713Y66843D02*
X70206Y65350D01*
X68713Y66843D02*
Y67425D01*
X73750Y128750D02*
Y221250D01*
X77500Y225000D01*
X147494Y134999D02*
X147904Y134589D01*
X149092D01*
X125000Y133750D02*
X133750D01*
X135816Y139310D02*
X135827Y139321D01*
X133750Y133750D02*
X135816Y135816D01*
X135827Y139321D02*
Y145643D01*
X135816Y135816D02*
Y139310D01*
X150971Y127841D02*
X150990D01*
X150443Y127313D02*
X150971Y127841D01*
X147835Y127313D02*
X150443D01*
X150990Y127841D02*
X153184Y130035D01*
Y135566D01*
X150000Y138750D02*
X153184Y135566D01*
X149092Y134589D02*
X151834Y131847D01*
Y130653D02*
Y131847D01*
X150990Y129809D02*
X151834Y130653D01*
X150971Y129809D02*
X150990D01*
X150443Y129281D02*
X150971Y129809D01*
X147835Y129281D02*
X150443D01*
X116250Y113750D02*
X121939Y119439D01*
X147835D01*
X112500Y113750D02*
X116250D01*
X110236Y136713D02*
Y144311D01*
X112500Y133750D02*
Y134332D01*
X111665Y135166D02*
X112500Y134332D01*
X110764Y136165D02*
Y136185D01*
X111665Y135166D02*
Y135264D01*
X110236Y136713D02*
X110764Y136185D01*
Y136165D02*
X111665Y135264D01*
X115000Y118750D02*
X117657Y121407D01*
X147835D01*
X56093Y80242D02*
Y83750D01*
X55000Y75000D02*
Y79149D01*
X56093Y80242D01*
X27559Y103110D02*
X31860D01*
X51250Y122500D02*
X91250D01*
X31860Y103110D02*
X51250Y122500D01*
X92425Y132457D02*
X99010Y125872D01*
X99029D01*
X99557Y125345D01*
X102165D01*
X92425Y132457D02*
Y146234D01*
X112500Y166309D01*
Y172500D01*
X116250Y166700D02*
Y178023D01*
X104622Y155073D02*
X116250Y166700D01*
X104622Y143750D02*
Y155073D01*
Y143750D02*
X108750Y139622D01*
X173750Y103750D02*
Y106250D01*
X169390Y110610D02*
X173750Y106250D01*
X181250Y117500D02*
X200713D01*
X173750Y113750D02*
X177500D01*
X181250Y117500D01*
X173750D02*
X183750Y127500D01*
X200713D01*
X171250Y117500D02*
X173750D01*
X205319Y122106D02*
Y122500D01*
X200713Y117500D02*
X205319Y122106D01*
X200713Y127500D02*
X205319Y132106D01*
Y132500D01*
X140369Y109631D02*
X147800D01*
X140000Y110000D02*
X140369Y109631D01*
X120079Y93652D02*
Y100079D01*
X121250Y101250D02*
Y105839D01*
X120079Y100079D02*
X121250Y101250D01*
X122047Y98297D02*
X123750Y100000D01*
Y108750D01*
X122047Y93652D02*
Y98297D01*
X117500Y101250D02*
X118110Y100640D01*
Y93652D02*
Y100640D01*
X120000Y107089D02*
Y107500D01*
Y107089D02*
X121250Y105839D01*
X118750Y111250D02*
X121250D01*
X123750Y108750D01*
X205000Y107500D02*
Y112180D01*
X205319Y112500D01*
X205000Y102181D02*
X205319Y102500D01*
X205000Y97500D02*
Y102181D01*
Y77500D02*
Y82181D01*
X205319Y82500D01*
X160389Y110610D02*
X169390D01*
X147835Y117471D02*
X153529D01*
X160389Y110610D01*
X153376Y115502D02*
X162628Y106250D01*
X165000D02*
X182500Y88750D01*
X162628Y106250D02*
X165000D01*
X182500Y88750D02*
X201963D01*
X205319Y92106D01*
Y92500D01*
X147835Y115502D02*
X153376D01*
X198804Y83110D02*
X199414Y82500D01*
X188976Y83110D02*
X198804D01*
X188976Y93110D02*
X198804D01*
X199414Y92500D01*
X198804Y103110D02*
X199414Y102500D01*
X188976Y103110D02*
X198804D01*
X188976Y113110D02*
X198804D01*
X199414Y112500D01*
X188976Y123110D02*
X198804D01*
X199414Y122500D01*
X188976Y133110D02*
X198804D01*
X199414Y132500D01*
X52785Y74054D02*
Y83750D01*
X55000Y75000D02*
X59589Y70411D01*
X52785Y74054D02*
X61545Y65294D01*
X125984Y151254D02*
X135981Y161250D01*
X143750D02*
X151250Y153750D01*
X135981Y161250D02*
X143750D01*
X145000Y156250D02*
Y156832D01*
X143175Y158657D02*
X145000Y156832D01*
X135223Y156250D02*
X139832D01*
X135509Y158657D02*
X143175D01*
X127953Y151101D02*
X135509Y158657D01*
X139832Y156250D02*
X140000Y156082D01*
X129921Y150948D02*
X135223Y156250D01*
X60839Y70411D02*
X61250Y70000D01*
X59589Y70411D02*
X60839D01*
X118750Y190668D02*
Y191250D01*
X118110Y139321D02*
Y190029D01*
X118750Y190668D01*
X120079Y139321D02*
Y183829D01*
X122500Y186250D01*
X97500Y196773D02*
X116250Y178023D01*
X122047Y151559D02*
X135132Y164644D01*
X122047Y139321D02*
Y151559D01*
X124016Y139321D02*
Y151406D01*
X135753Y163144D01*
X86145Y104750D02*
X86790Y105395D01*
X75000Y100000D02*
X81333D01*
X86790Y105395D02*
X93750D01*
X86083Y104750D02*
X86145D01*
X81333Y100000D02*
X86083Y104750D01*
X85524Y106250D02*
X87243Y107969D01*
X80000Y106250D02*
X85524D01*
X91250Y115000D02*
X94685Y111565D01*
X65000Y115000D02*
X91250D01*
X94685Y111565D02*
X102165D01*
X96466Y113533D02*
X102165D01*
X62860Y118750D02*
X91250D01*
X96466Y113533D01*
X91250Y122500D02*
X98248Y115502D01*
X102165D01*
X28466Y84017D02*
X34016D01*
X65000Y115000D01*
X27559Y83110D02*
X28466Y84017D01*
X29928Y73110D02*
X66414Y109597D01*
X102165D01*
X87243Y107969D02*
X95936D01*
X165000Y80000D02*
X169320Y84320D01*
X165000Y70547D02*
Y80000D01*
X169320Y84320D02*
Y86804D01*
X165000Y70547D02*
X169732Y65815D01*
Y64557D02*
Y65815D01*
X179616Y53750D02*
X188976Y63110D01*
X127953Y72047D02*
X146250Y53750D01*
X179616D01*
X187329Y73110D02*
X188976D01*
X172500Y57500D02*
X185019Y70019D01*
X147500Y57500D02*
X172500D01*
X185019Y70800D02*
X187329Y73110D01*
X185019Y70019D02*
Y70800D01*
X129921Y75079D02*
X147500Y57500D01*
X129921Y75079D02*
Y93652D01*
X127953Y72047D02*
Y93652D01*
X149816Y93934D02*
X159816D01*
X166946Y86804D02*
X169320D01*
X159816Y93934D02*
X166946Y86804D01*
X142500Y101250D02*
Y105000D01*
Y101250D02*
X149816Y93934D01*
X142500Y105000D02*
X143125Y105625D01*
X147800D01*
X147835Y105659D01*
X120777Y68357D02*
X121250Y67884D01*
X120777Y68357D02*
Y77500D01*
X125950Y89700D02*
Y93617D01*
X122500Y86250D02*
X125950Y89700D01*
Y93617D02*
X125984Y93652D01*
X96522Y106245D02*
Y107384D01*
X161276Y153750D02*
X180636Y173110D01*
X151250Y153750D02*
X161276D01*
X150831Y151250D02*
X160897D01*
X148581Y153500D02*
X150831Y151250D01*
X160897D02*
X172757Y163110D01*
X139764Y91141D02*
Y92584D01*
Y93652D01*
Y92584D02*
X139847Y92500D01*
X146250D01*
X145453Y85769D02*
Y85966D01*
X140360Y91058D02*
X145453Y85966D01*
X139847Y91058D02*
X140360D01*
X139764Y91141D02*
X139847Y91058D01*
X139547Y85769D02*
Y89040D01*
X137830Y90758D02*
X139547Y89040D01*
X137830Y90758D02*
Y93617D01*
X137795Y93652D02*
X137830Y93617D01*
X37220Y93110D02*
X62860Y118750D01*
X27559Y93110D02*
X37220D01*
X27559Y73110D02*
X29928D01*
X114139Y93617D02*
X114173Y93652D01*
X114139Y87963D02*
Y93617D01*
X113750Y87575D02*
X114139Y87963D01*
X117089Y85411D02*
X117500Y85000D01*
X117089Y85411D02*
Y87663D01*
X116176Y88575D02*
X117089Y87663D01*
X116176Y88575D02*
Y93617D01*
X116142Y93652D02*
X116176Y93617D01*
X136575Y81254D02*
X140000Y77829D01*
Y77500D02*
Y77829D01*
X135827Y84173D02*
Y93652D01*
X136575Y81254D02*
Y83425D01*
X135827Y84173D02*
X136575Y83425D01*
X135075Y77575D02*
Y81340D01*
X134222Y82193D02*
X135075Y81340D01*
X132500Y80000D02*
Y88082D01*
X134222Y82193D02*
Y88481D01*
X135000Y77500D02*
X135075Y77575D01*
X133858Y88845D02*
X134222Y88481D01*
X133858Y88845D02*
Y93652D01*
X131890Y88692D02*
X132500Y88082D01*
X131890Y88692D02*
Y93652D01*
X95936Y107969D02*
X96522Y107384D01*
X97107Y105659D02*
X102165D01*
X96522Y106245D02*
X97107Y105659D01*
X164156Y164644D02*
X165622Y166110D01*
X164778Y163144D02*
X166244Y164610D01*
X131890Y150795D02*
X134595Y153500D01*
X148581D01*
X125984Y139321D02*
Y151254D01*
X180636Y173110D02*
X188976D01*
X135753Y163144D02*
X164778D01*
X135132Y164644D02*
X164156D01*
X172757Y163110D02*
X188976D01*
X127953Y139321D02*
Y151101D01*
X131890Y139321D02*
Y150795D01*
X129921Y139321D02*
Y150948D01*
X165622Y166110D02*
X169393D01*
X166244Y164610D02*
X170015D01*
X169393Y166110D02*
X176456Y173173D01*
X170015Y164610D02*
X185019Y179615D01*
X187329Y183110D02*
X188976D01*
X185019Y180800D02*
X187329Y183110D01*
X176456Y173173D02*
Y183590D01*
X185019Y179615D02*
Y180800D01*
X185976Y193110D02*
X188976D01*
X176456Y183590D02*
X185976Y193110D01*
X78573Y60921D02*
X78661Y61009D01*
Y68661D01*
X78750Y68750D01*
X82903Y60921D02*
X83198Y61215D01*
Y67943D01*
X69911Y60921D02*
X70206Y61215D01*
X61250Y60921D02*
X61545Y61215D01*
Y65294D01*
X66250Y70000D02*
Y71250D01*
X63750Y73750D02*
X66250Y71250D01*
X61250Y78750D02*
X63750D01*
X68758Y73742D01*
X73758D01*
X59242Y80758D02*
X61250Y78750D01*
X59242Y80758D02*
Y83750D01*
X97500Y196773D02*
Y225000D01*
X108750Y96852D02*
Y139622D01*
X71057Y75242D02*
X75899D01*
X62549Y83233D02*
Y83750D01*
Y83233D02*
X63242Y82540D01*
X63759D01*
X71057Y75242D01*
X73758Y73742D02*
X78750Y68750D01*
X75899Y75242D02*
X83198Y67943D01*
X61545Y65294D02*
X66250Y70000D01*
X72500D01*
X111325Y122500D02*
Y122575D01*
X116142Y127392D01*
Y139321D01*
X108750Y96852D02*
X109357Y96245D01*
X110236Y93652D02*
Y96162D01*
X110153Y96245D02*
X110236Y96162D01*
X109357Y96245D02*
X110153D01*
X132500Y113750D02*
X132717Y113533D01*
X147835D01*
X135622Y145847D02*
Y146425D01*
Y145847D02*
X135827Y145643D01*
X134547Y147500D02*
X135622Y146425D01*
X185976Y103110D02*
X188976D01*
X184972Y113110D02*
X188976D01*
X147800Y109631D02*
X147835Y109597D01*
X86250Y170000D02*
X90000Y166250D01*
X106250D01*
X153597Y123376D02*
X157500Y119474D01*
Y119186D02*
Y119474D01*
X147835Y123376D02*
X153597D01*
X157147Y125345D02*
X157500Y125698D01*
X147835Y125345D02*
X157147D01*
X93947Y105395D02*
X95022Y104320D01*
Y104311D02*
Y104320D01*
X93750Y105395D02*
X93947D01*
X95022Y104311D02*
X95607Y103726D01*
X102131D01*
X95022Y100761D02*
X95983Y101722D01*
X102165D01*
X93947Y99489D02*
X95022Y100564D01*
Y100761D01*
X102131Y103726D02*
X102165Y103691D01*
X107047Y147303D02*
X108122Y146228D01*
X108319D02*
X110236Y144311D01*
X108122Y146228D02*
X108319D01*
X107047Y147303D02*
Y147500D01*
X112205Y146752D02*
X112953Y147500D01*
X112205Y139321D02*
Y146752D01*
X137795Y145838D02*
X139203Y147245D01*
X137795Y139321D02*
Y145838D01*
X153820Y101722D02*
X156053Y99489D01*
X147835Y101722D02*
X153820D01*
D21*
X140000Y168356D02*
D03*
Y176033D02*
D03*
D22*
X199414Y112500D02*
D03*
X205319D02*
D03*
X199414Y102500D02*
D03*
X205319D02*
D03*
X199414Y122500D02*
D03*
X205319D02*
D03*
X205319Y132500D02*
D03*
X199414D02*
D03*
X199414Y92500D02*
D03*
X205319D02*
D03*
X199414Y82500D02*
D03*
X205319D02*
D03*
D23*
X146250Y38592D02*
D03*
Y43907D02*
D03*
X157500Y134784D02*
D03*
Y140099D02*
D03*
D24*
X169320Y77549D02*
D03*
D25*
X173060D02*
D03*
X176800D02*
D03*
Y86804D02*
D03*
X169320D02*
D03*
D26*
X121250Y67884D02*
D03*
Y59616D02*
D03*
D27*
X87234Y60921D02*
D03*
X82903D02*
D03*
X78573D02*
D03*
X74242D02*
D03*
X69911D02*
D03*
X65581D02*
D03*
X61250D02*
D03*
X56919D02*
D03*
X52589D02*
D03*
D28*
X47004Y57874D02*
D03*
D29*
Y19685D02*
D03*
X109307D02*
D03*
D30*
X106255Y57874D02*
D03*
D31*
X125984Y139321D02*
D03*
X124016D02*
D03*
X122047D02*
D03*
X120079D02*
D03*
X118110D02*
D03*
X139764D02*
D03*
X137795D02*
D03*
X135827D02*
D03*
X133858D02*
D03*
X131890D02*
D03*
X129921D02*
D03*
X127953D02*
D03*
X116142D02*
D03*
X114173D02*
D03*
X112205D02*
D03*
X110236D02*
D03*
Y93652D02*
D03*
X112205D02*
D03*
X114173D02*
D03*
X116142D02*
D03*
X118110D02*
D03*
X120079D02*
D03*
X122047D02*
D03*
X124016D02*
D03*
X125984D02*
D03*
X127953D02*
D03*
X129921D02*
D03*
X131890D02*
D03*
X133858D02*
D03*
X135827D02*
D03*
X137795D02*
D03*
X139764D02*
D03*
D32*
X147835Y101722D02*
D03*
Y103691D02*
D03*
Y105659D02*
D03*
Y107628D02*
D03*
Y109597D02*
D03*
Y111565D02*
D03*
Y113533D02*
D03*
Y115502D02*
D03*
Y117471D02*
D03*
Y119439D02*
D03*
Y121407D02*
D03*
Y123376D02*
D03*
Y125345D02*
D03*
Y127313D02*
D03*
Y129281D02*
D03*
Y131250D02*
D03*
X102165D02*
D03*
Y129281D02*
D03*
Y127313D02*
D03*
Y125345D02*
D03*
Y123376D02*
D03*
Y121407D02*
D03*
Y119439D02*
D03*
Y117471D02*
D03*
Y115502D02*
D03*
Y113533D02*
D03*
Y111565D02*
D03*
Y109597D02*
D03*
Y107628D02*
D03*
Y105659D02*
D03*
Y103691D02*
D03*
Y101722D02*
D03*
D33*
X112953Y147500D02*
D03*
X107047D02*
D03*
X140453D02*
D03*
X134547D02*
D03*
X139547Y85769D02*
D03*
X145453D02*
D03*
X94203Y87500D02*
D03*
X88297D02*
D03*
D34*
X157500Y119186D02*
D03*
Y125698D02*
D03*
D35*
X166250Y119489D02*
D03*
Y125395D02*
D03*
Y137953D02*
D03*
Y132047D02*
D03*
X156250Y105395D02*
D03*
Y99489D02*
D03*
X93750Y105395D02*
D03*
Y99489D02*
D03*
D36*
X52785Y83750D02*
D03*
X62549D02*
D03*
Y90719D02*
D03*
X52785D02*
D03*
D37*
X56093Y83750D02*
D03*
X59242D02*
D03*
Y90719D02*
D03*
X56093D02*
D03*
D38*
X98750Y76250D02*
D03*
X88315D02*
D03*
D39*
X167500Y178721D02*
D03*
Y170847D02*
D03*
D40*
X156250Y74443D02*
D03*
Y84878D02*
D03*
D54*
X128750Y173750D02*
D03*
X169732Y64557D02*
D03*
X106250Y166250D02*
D03*
X120777Y77500D02*
D03*
X41250Y106084D02*
D03*
Y131416D02*
D03*
Y118750D02*
D03*
X133750Y55000D02*
D03*
Y41250D02*
D03*
D63*
X166447Y119489D02*
X172371Y125413D01*
X166250Y119489D02*
X166447D01*
X172371Y125413D02*
Y137953D01*
X140453Y147303D02*
X145000Y142756D01*
Y142500D02*
Y142588D01*
Y142756D01*
X141408Y192826D02*
Y208750D01*
Y192826D02*
X162683Y171551D01*
X167500Y178721D02*
Y195000D01*
X161092Y201408D02*
X167500Y195000D01*
X161092Y201408D02*
Y208750D01*
X195000Y221250D02*
X202500Y213750D01*
Y202500D02*
X211250Y193750D01*
X202500Y202500D02*
Y213750D01*
X211250Y28750D02*
Y193750D01*
X173592Y221250D02*
X195000D01*
X161092Y208750D02*
X173592Y221250D01*
X205610Y23110D02*
X211250Y28750D01*
X112953Y147500D02*
Y156527D01*
X115000Y158574D02*
Y158750D01*
X112953Y156527D02*
X115000Y158574D01*
X88473Y87676D02*
Y95973D01*
X91989Y99489D01*
X90306Y99695D02*
X91989D01*
X93348D01*
X93553Y99489D01*
X166797Y171551D02*
X167500Y170847D01*
X162683Y171551D02*
X166797D01*
X88297Y87500D02*
X88473Y87676D01*
X146250Y38592D02*
X146348D01*
X161831Y23110D01*
X188976D01*
X133750Y55000D02*
X138750Y50000D01*
X146250D01*
Y43907D02*
Y50000D01*
Y65000D02*
Y78926D01*
X145453Y79723D02*
X146250Y78926D01*
X145453Y85648D02*
Y85769D01*
Y79723D02*
Y85648D01*
X145778Y85323D02*
X155805D01*
X116250Y55000D02*
X133750D01*
X112500Y51250D02*
X116250Y55000D01*
X91969Y51250D02*
X112500D01*
X87234Y55984D02*
X91969Y51250D01*
X87234Y60921D02*
X87362Y61048D01*
Y75297D01*
X88315Y76250D01*
X87500Y102500D02*
X90306Y99695D01*
X88306Y76259D02*
Y87491D01*
Y76259D02*
X88315Y76250D01*
X88297Y87500D02*
X88306Y87491D01*
X145453Y85648D02*
X145778Y85323D01*
X155805D02*
X156250Y84878D01*
X146250Y92500D02*
X146361D01*
X153983Y84878D02*
X156250D01*
X166682Y94182D02*
X169132Y96632D01*
X140453Y147303D02*
Y147500D01*
X157471Y140129D02*
X157500Y140099D01*
X143750Y151250D02*
X154871Y140129D01*
X157471D01*
X138100Y151250D02*
X143750D01*
X134872Y148022D02*
X138100Y151250D01*
X134872Y147825D02*
Y148022D01*
X134547Y147500D02*
X134872Y147825D01*
X75000Y50000D02*
X81250D01*
X62500D02*
X75000D01*
X74242Y50758D02*
X75000Y50000D01*
X74242Y50758D02*
Y60921D01*
X81250Y50000D02*
X87234Y55984D01*
Y60921D01*
X57047Y55453D02*
X62500Y50000D01*
X56919Y60921D02*
X57047Y60792D01*
Y55453D02*
Y60792D01*
X56791Y61048D02*
Y64459D01*
Y61048D02*
X56919Y60921D01*
X47500Y73750D02*
X56791Y64459D01*
X128750Y173750D02*
X129746D01*
X131636Y175640D01*
X140000D01*
Y168750D02*
X140124Y168874D01*
X154876D01*
X155000Y168998D01*
X85000Y147500D02*
Y153750D01*
X93838Y162588D01*
X97500D01*
X47500Y73750D02*
Y87500D01*
X50669Y90669D02*
X52736D01*
X47500Y87500D02*
X50669Y90669D01*
X52736D02*
X52785Y90719D01*
X59242D02*
X62549D01*
X56093D02*
X59242D01*
X52785D02*
X56093D01*
X188976Y23110D02*
X205610D01*
X107047Y147500D02*
Y153121D01*
X107500Y153574D01*
Y153750D01*
X156053Y99489D02*
X156250D01*
X169132Y96632D02*
X176800Y88964D01*
X156250Y99489D02*
X166275D01*
X169132Y96632D01*
X176800Y86804D02*
Y88964D01*
X157652Y119338D02*
X166098D01*
X166250Y119489D01*
X157500Y125698D02*
Y134784D01*
X166250Y125395D02*
Y132047D01*
X166098Y125546D02*
X166250Y125395D01*
X157652Y125546D02*
X166098D01*
X157500Y125698D02*
X157652Y125546D01*
D64*
X93102Y94243D02*
X93322Y94023D01*
Y89716D02*
Y94023D01*
Y89716D02*
X93628Y89410D01*
Y88075D02*
X94203Y87500D01*
X93628Y88075D02*
Y89410D01*
X65203Y60543D02*
X65581Y60921D01*
X65203Y56919D02*
Y60543D01*
X64844Y56561D02*
X65203Y56919D01*
X64844Y56250D02*
Y56561D01*
X35000Y60000D02*
X35311D01*
X37437Y57874D02*
X47004D01*
X35311Y60000D02*
X37437Y57874D01*
X98750Y73983D02*
Y76250D01*
X106255Y57874D02*
Y66478D01*
X98750Y73983D02*
X106255Y66478D01*
Y57874D02*
X107998Y59616D01*
X121250D01*
X109622Y20000D02*
X115000D01*
X109307Y19685D02*
X109622Y20000D01*
X156108Y66462D02*
Y74301D01*
X156250Y74443D01*
X173060Y77549D02*
X176800D01*
X169320D02*
X173060D01*
X169320D02*
X169660Y77209D01*
Y70340D02*
Y77209D01*
Y70340D02*
X170000Y70000D01*
X94203Y83064D02*
X98750Y78517D01*
Y76250D02*
Y78517D01*
X94203Y83064D02*
Y87500D01*
X172371Y137953D02*
X174198Y139780D01*
X174780D02*
X175000Y140000D01*
X166250Y137953D02*
X172371D01*
X174198Y139780D02*
X174780D01*
X154730Y109799D02*
X156250Y108279D01*
X154730Y109799D02*
Y109857D01*
X156250Y105395D02*
Y108279D01*
D65*
X188976Y213110D02*
D03*
Y203110D02*
D03*
Y193110D02*
D03*
Y183110D02*
D03*
Y173110D02*
D03*
Y163110D02*
D03*
Y153110D02*
D03*
Y143110D02*
D03*
Y133110D02*
D03*
Y123110D02*
D03*
Y113110D02*
D03*
Y103110D02*
D03*
Y93110D02*
D03*
Y83110D02*
D03*
Y73110D02*
D03*
Y63110D02*
D03*
Y53110D02*
D03*
Y43110D02*
D03*
Y33110D02*
D03*
Y23110D02*
D03*
X27559Y213110D02*
D03*
Y203110D02*
D03*
Y193110D02*
D03*
Y183110D02*
D03*
Y173110D02*
D03*
Y163110D02*
D03*
Y153110D02*
D03*
Y143110D02*
D03*
Y133110D02*
D03*
Y123110D02*
D03*
Y113110D02*
D03*
Y103110D02*
D03*
Y93110D02*
D03*
Y83110D02*
D03*
Y73110D02*
D03*
Y63110D02*
D03*
Y53110D02*
D03*
Y43110D02*
D03*
Y33110D02*
D03*
Y23110D02*
D03*
D66*
X141408Y208750D02*
D03*
X161092D02*
D03*
D67*
X58755Y18777D02*
D03*
X90156D02*
D03*
D68*
X56250Y200000D02*
D03*
D69*
Y170000D02*
D03*
X86250D02*
D03*
Y200000D02*
D03*
D70*
X155000Y179234D02*
D03*
Y168998D02*
D03*
D71*
Y158762D02*
D03*
D72*
X87500Y225000D02*
D03*
X67500D02*
D03*
X77500D02*
D03*
X97500D02*
D03*
X107500D02*
D03*
D73*
X57500D02*
D03*
D74*
X10000D02*
D03*
X205000D02*
D03*
Y10000D02*
D03*
X10000D02*
D03*
D75*
X80000Y150000D02*
D03*
Y130000D02*
D03*
X145000Y141250D02*
D03*
X132500Y128750D02*
D03*
X123750Y126250D02*
D03*
X130000Y110075D02*
D03*
X93102Y94243D02*
D03*
X114925Y200000D02*
D03*
X105000Y180000D02*
D03*
X64844Y56250D02*
D03*
X210000Y210000D02*
D03*
X200000Y190000D02*
D03*
X205000Y180000D02*
D03*
X200000Y170000D02*
D03*
X205000Y160000D02*
D03*
X200000Y150000D02*
D03*
X205000Y140000D02*
D03*
X200000Y70000D02*
D03*
X205000Y60000D02*
D03*
X200000Y50000D02*
D03*
X205000Y40000D02*
D03*
X200000Y30000D02*
D03*
X190000Y230000D02*
D03*
Y10000D02*
D03*
X180000Y230000D02*
D03*
Y130000D02*
D03*
Y70000D02*
D03*
Y50000D02*
D03*
Y30000D02*
D03*
Y10000D02*
D03*
X170000Y230000D02*
D03*
X175000Y160000D02*
D03*
Y140000D02*
D03*
X170000Y70000D02*
D03*
Y50000D02*
D03*
X175000Y40000D02*
D03*
X170000Y30000D02*
D03*
Y10000D02*
D03*
X160000Y230000D02*
D03*
Y50000D02*
D03*
X165000Y40000D02*
D03*
X160000Y30000D02*
D03*
Y10000D02*
D03*
X150000Y230000D02*
D03*
Y50000D02*
D03*
X155000Y40000D02*
D03*
X150000Y30000D02*
D03*
X155000Y20000D02*
D03*
X150000Y10000D02*
D03*
X140000Y230000D02*
D03*
Y70000D02*
D03*
Y30000D02*
D03*
X145000Y20000D02*
D03*
X140000Y10000D02*
D03*
X130000Y230000D02*
D03*
Y50000D02*
D03*
Y30000D02*
D03*
X135000Y20000D02*
D03*
X130000Y10000D02*
D03*
X120000Y230000D02*
D03*
X125000Y220000D02*
D03*
X120000Y50000D02*
D03*
X125000Y40000D02*
D03*
X120000Y30000D02*
D03*
X125000Y20000D02*
D03*
X120000Y10000D02*
D03*
X110000Y230000D02*
D03*
X115000Y220000D02*
D03*
X110000Y210000D02*
D03*
Y190000D02*
D03*
X115000Y40000D02*
D03*
X110000Y30000D02*
D03*
X115000Y20000D02*
D03*
X110000Y10000D02*
D03*
X100000Y230000D02*
D03*
X105000Y200000D02*
D03*
X100000Y190000D02*
D03*
Y30000D02*
D03*
Y10000D02*
D03*
X90000Y230000D02*
D03*
Y210000D02*
D03*
Y190000D02*
D03*
X95000Y140000D02*
D03*
X90000Y30000D02*
D03*
X95000Y20000D02*
D03*
X90000Y10000D02*
D03*
X80000Y230000D02*
D03*
X85000Y220000D02*
D03*
X80000Y210000D02*
D03*
Y190000D02*
D03*
X85000Y180000D02*
D03*
X80000Y170000D02*
D03*
X85000Y160000D02*
D03*
X80000Y30000D02*
D03*
X85000Y20000D02*
D03*
X80000Y10000D02*
D03*
X70000Y230000D02*
D03*
Y150000D02*
D03*
Y130000D02*
D03*
X75000Y100000D02*
D03*
X70000Y90000D02*
D03*
X75000Y80000D02*
D03*
X70000Y30000D02*
D03*
X75000Y20000D02*
D03*
X70000Y10000D02*
D03*
X65000Y160000D02*
D03*
X60000Y150000D02*
D03*
X65000Y140000D02*
D03*
X60000Y130000D02*
D03*
Y30000D02*
D03*
X65000Y20000D02*
D03*
X60000Y10000D02*
D03*
X50000Y230000D02*
D03*
Y210000D02*
D03*
Y190000D02*
D03*
X55000Y180000D02*
D03*
X50000Y170000D02*
D03*
X55000Y160000D02*
D03*
X50000Y150000D02*
D03*
X55000Y140000D02*
D03*
X50000Y130000D02*
D03*
Y50000D02*
D03*
Y30000D02*
D03*
Y10000D02*
D03*
X40000Y230000D02*
D03*
X45000Y220000D02*
D03*
X40000Y210000D02*
D03*
X45000Y200000D02*
D03*
X40000Y190000D02*
D03*
X45000Y180000D02*
D03*
X40000Y170000D02*
D03*
X45000Y160000D02*
D03*
X40000Y150000D02*
D03*
X45000Y140000D02*
D03*
X40000Y70000D02*
D03*
Y50000D02*
D03*
X45000Y40000D02*
D03*
X40000Y30000D02*
D03*
Y10000D02*
D03*
X30000Y230000D02*
D03*
X35000Y220000D02*
D03*
Y200000D02*
D03*
Y180000D02*
D03*
Y160000D02*
D03*
Y140000D02*
D03*
Y120000D02*
D03*
Y100000D02*
D03*
Y60000D02*
D03*
Y40000D02*
D03*
Y20000D02*
D03*
X30000Y10000D02*
D03*
X20000Y230000D02*
D03*
X25000Y220000D02*
D03*
X20000Y210000D02*
D03*
Y190000D02*
D03*
Y170000D02*
D03*
Y150000D02*
D03*
Y130000D02*
D03*
Y110000D02*
D03*
Y90000D02*
D03*
Y70000D02*
D03*
Y50000D02*
D03*
Y30000D02*
D03*
Y10000D02*
D03*
X10000Y210000D02*
D03*
X15000Y200000D02*
D03*
X10000Y190000D02*
D03*
X15000Y180000D02*
D03*
X10000Y170000D02*
D03*
X15000Y160000D02*
D03*
X10000Y150000D02*
D03*
X15000Y140000D02*
D03*
X10000Y130000D02*
D03*
X15000Y120000D02*
D03*
X10000Y110000D02*
D03*
X15000Y100000D02*
D03*
X10000Y90000D02*
D03*
X15000Y80000D02*
D03*
X10000Y70000D02*
D03*
X15000Y60000D02*
D03*
X10000Y50000D02*
D03*
X15000Y40000D02*
D03*
X10000Y30000D02*
D03*
X15000Y20000D02*
D03*
X68713Y67425D02*
D03*
X147494Y134999D02*
D03*
X150000Y138750D02*
D03*
X112500Y113750D02*
D03*
X125000Y133750D02*
D03*
X173750Y103750D02*
D03*
Y113750D02*
D03*
X171250Y117500D02*
D03*
X140000Y110000D02*
D03*
X117500Y101250D02*
D03*
X120000Y107500D02*
D03*
X205000D02*
D03*
Y97500D02*
D03*
Y77500D02*
D03*
X140000Y156082D02*
D03*
X145000Y156250D02*
D03*
X58051Y76951D02*
D03*
X100000Y93750D02*
D03*
X132346Y103200D02*
D03*
X161469Y130296D02*
D03*
X97102Y44275D02*
D03*
X112500Y66250D02*
D03*
X156108Y66462D02*
D03*
X118750Y191250D02*
D03*
X115000Y158750D02*
D03*
X112500Y172500D02*
D03*
X122500Y186250D02*
D03*
X154730Y109857D02*
D03*
X80000Y106250D02*
D03*
X73750Y128750D02*
D03*
X146250Y65000D02*
D03*
Y50000D02*
D03*
X87500Y102500D02*
D03*
X78750Y68750D02*
D03*
X135000Y76250D02*
D03*
X166682Y94182D02*
D03*
X112500Y133750D02*
D03*
X146250Y92500D02*
D03*
X113750Y87575D02*
D03*
X117500Y85000D02*
D03*
X122500Y86250D02*
D03*
X132500Y80000D02*
D03*
X140000Y77500D02*
D03*
X63750Y73750D02*
D03*
X61250Y78750D02*
D03*
X85000Y147500D02*
D03*
X97500Y162588D02*
D03*
X61250Y70000D02*
D03*
X72500D02*
D03*
X111325Y122500D02*
D03*
X115000Y118750D02*
D03*
X107500Y153750D02*
D03*
X131250Y113750D02*
D03*
X118750Y111250D02*
D03*
M02*
