M48
;Layer_Color=9474304
;FILE_FORMAT=4:4
METRIC,LZ
;TYPE=PLATED
T1F00S00C0.3000
T2F00S00C0.3500
T3F00S00C1.0160
T4F00S00C1.1000
T5F00S00C2.8468
;TYPE=NON_PLATED
T6F00S00C1.1000
T7F00S00C3.1750
%
T01
X000762Y000254
X00127
X001778
X002286
X002794
Y000762
X003302
Y00127
X003048Y001778
Y002286
Y002794
X00254
X002032
X001524
Y002286
X002032
Y001778
Y000762
X001524
X000508
Y00127
Y001778
X000254Y002286
Y002794
Y003302
Y00381
X00127Y003556
X002032
X003048Y003302
X003556
Y002794
Y002286
Y001778
X00381Y000762
Y000254
X003302
X004318
Y000762
X004572Y00127
X00508
Y001778
Y002286
Y002794
Y003302
Y00381
X004572
X004064
Y003302
X004572
Y002794
X004064
Y002286
X004572
Y001778
X004064
Y00127
X004826Y000254
X00508Y004318
Y004826
X004572
X004064
Y004318
X004572
X00508Y005334
X004826Y005842
X003556
X000254Y004826
Y004318
T02
X00127508Y00109982
X00117602Y00134874
X00195481Y0013675
X00194564Y00380746
X00317246Y00408432
T03
X0007Y00058699
Y00084099
Y00109499
Y00134899
Y00160299
Y00185699
Y00211099
Y00236499
Y00261899
Y00287299
Y00312699
Y00338099
Y00363499
Y00388899
X00479999
Y00363499
Y00338099
Y00312699
Y00287299
Y00261899
Y00236499
Y00211099
Y00185699
Y00160299
Y00134899
Y00109499
Y00084099
Y00058699
Y00414299
Y00439699
Y00465099
Y00490499
Y00515899
Y00541299
X0007
Y00515899
Y00490499
Y00465099
Y00439699
Y00414299
T04
X001123Y00565
X001377
X002023
X002277
X002923
X003177
T05
X004318Y004572
Y005588
T06
X001123Y005904
X001377
X002023
X002277
X002923
X003177
T07
X000254Y000254
X005207
Y005715
X000254
M30
