M48
;Layer_Color=9474304
;FILE_FORMAT=4:4
METRIC,LZ
;TYPE=PLATED
T1F00S00C0.3000
T2F00S00C0.3500
T3F00S00C1.0160
T4F00S00C1.1000
T5F00S00C2.4130
;TYPE=NON_PLATED
T6F00S00C1.1000
T7F00S00C3.1750
%
T01
X000762Y000254
X001524
Y000762
Y00127
X002286Y000762
Y000254
X003048
Y000762
Y00127
Y001778
Y002286
Y002794
Y003302
Y00381
X00254Y003556
Y003048
X001524
Y003556
X001016
Y003048
X00381Y003302
Y00381
Y002794
Y002286
Y001778
Y00127
Y000762
Y000254
X004572
Y000762
Y00127
Y001778
Y002286
Y002794
Y003302
Y00381
Y004318
Y004572
X004064Y004826
Y004318
X00381Y005334
X003302
X00254
X001778
T02
X0016Y00085
X0026Y00125
X0024Y00165
X00152Y002225
Y002475
X00285Y00415
T03
X0007Y00058699
Y00084099
Y00109499
Y00134899
Y00160299
Y00185699
Y00211099
Y00236499
Y00261899
Y00287299
Y00312699
Y00338099
Y00363499
Y00388899
X00479999
Y00363499
Y00338099
Y00312699
Y00287299
Y00261899
Y00236499
Y00211099
Y00185699
Y00160299
Y00134899
Y00109499
Y00084099
Y00058699
Y00414299
Y00439699
Y00465099
Y00490499
Y00515899
Y00541299
X0007
Y00515899
Y00490499
Y00465099
Y00439699
Y00414299
T04
X001123Y00565
X001377
X002023
X002277
X002923
X003177
T05
X0043Y0051
Y0056
T06
X001123Y005904
X001377
X002023
X002277
X002923
X003177
T07
X000254Y000254
X005207
Y005715
X000254
M30
