M48
;Layer_Color=9474304
;FILE_FORMAT=2:4
INCH,TZ
;TYPE=PLATED
T1F00S00C0.0157
T2F00S00C0.0276
T3F00S00C0.0335
T4F00S00C0.0400
T5F00S00C0.0402
T6F00S00C0.0413
T7F00S00C0.0433
;TYPE=NON_PLATED
T8F00S00C0.0394
T9F00S00C0.1250
%
T01
X2000Y1000
X3000
X4000
X5000
X6000
X7000
X8000
X9000
X10000
X11000
X12000
X13000
X14000
X15000
X15500Y2000
X14500
X13500
X12500
X11500
X12000Y3000
X13000
X14000
X15000
X15500Y4000
X15000Y5000
X14625
Y6500
X14000Y7000
Y7750
X13500Y7625
X13250Y8000
X12250Y8625
X11750Y8500
X11375Y8757
X11750Y10125
X12000Y10750
X11875Y11125
X11250Y11375
X11500Y11875
X11132Y12250
X11250Y13375
X12500
X12375Y12625
X13250Y12875
X13125Y11375
X13000Y11007
X13235Y10320
X14000Y11000
X15473Y10986
X14625Y9250
X15611Y6646
X13000Y5000
X12000
X12500Y4000
X11500
X11000Y3000
X10000
X9000
X8000
X7000
X6000
X5000
X4000
X4500Y4000
X3500
X4000Y5000
X5000
X6484Y5625
X6871Y6743
X7250Y7000
X7875Y6875
X7500Y8000
X7000Y9000
X7500Y10000
X8000Y10625
X8750Y10250
X9310Y9424
X10000Y9375
X11250Y6625
X9710Y4428
X9500Y2000
X8500
X7500
X6500
X3500
X1500
X2000Y3000
X1000
X1500Y4000
X2000Y5000
X1000
X1500Y6000
X2000Y7000
X1000
X1500Y8000
X2000Y9000
X1000
X1500Y10000
X2000Y11000
X1000
X1500Y12000
X2000Y13000
X1000
X1500Y14000
X2000Y15000
X1000
X4000
X5000
X6000
X7000
X8000
X8500Y14750
X9500Y14000
X8000Y13000
X7375Y12875
X7000Y13000
X6000
X5000
X5500Y14000
X6500
X4500
X3500
Y12000
Y10000
X4000Y7000
X3500Y6000
X6125Y7000
X6375Y7375
X6125Y7875
X5805Y7695
X10750Y15375
X14000Y15608
X14500Y14125
X15000Y13875
X14749Y13500
X16147Y13030
X18000Y13000
X17500Y14000
X17125Y11750
X17375Y11375
Y10375
X16668Y9418
X17000Y7000
X18000
X20000
X20500Y7750
Y6000
X20000Y5000
X20500Y4000
X20000Y3000
X18000
X17000
X16000
X16500Y4000
X17500
X18000Y5000
X17000
X16000
Y1000
X17000
X18000
X19000
X20500Y9750
Y10750
Y14000
X20000Y15000
X20500Y16000
X20000Y17000
X20500Y18000
X20000Y19000
X21000Y21000
X19000Y23000
X18000
X17000
X16000
X17500Y16000
X14500Y15625
X11500Y15875
X11250Y17250
X10500Y18000
X11000Y19000
X10000
X9000
X8000
X8500Y18000
X8000Y17000
X8500Y16000
X9750Y16259
X6500Y16000
X5500
X4500
X3500
X4000Y17000
X5000
X5500Y18000
X4500
X3500
X4000Y19000
X5000
X4500Y20000
X3500
X4000Y21000
X5000
X4500Y22000
X3500
X2500
X3000Y23000
X4000
X5000
X7000
X8000
X9000
X10000
X11000
X12000
X13000
X14000
X15000
X12500Y22000
X11500
X11000Y21000
X11493Y20000
X10500
X11875Y19125
X12250Y18625
X9000Y21000
X8000
X8500Y22000
X2000Y23000
Y21000
X1000
X1500Y20000
X2000Y19000
X1000
X1500Y18000
X2000Y17000
X1000
X1500Y16000
T02
X5625Y17000
Y20000
X8625
Y17000
T03
X16109Y20875
X14141
T04
X2756Y2311
Y3311
Y4311
Y5311
Y6311
Y7311
Y8311
Y9311
Y10311
Y11311
Y12311
Y13311
Y14311
Y15311
X18898
Y14311
Y13311
Y12311
Y11311
Y10311
Y9311
Y8311
Y7311
Y6311
Y5311
Y4311
Y3311
Y2311
Y16311
Y17311
Y18311
Y19311
Y20311
Y21311
X2756
Y20311
Y19311
Y18311
Y17311
Y16311
T05
X4125Y10608
Y11875
Y13142
X12078Y7750
X13375Y5500
Y4125
X16973Y6456
X12875Y17375
X10625Y16625
T06
X15500Y15876
Y16900
Y17923
T07
X5750Y22500
X6750
X7750
X8750
X9750
X10750
T08
X5876Y1878
X9016
T09
X1000Y1000
X20500
Y22500
X1000
M30
