G04*
G04 #@! TF.GenerationSoftware,Altium Limited,Altium Designer,22.11.1 (43)*
G04*
G04 Layer_Physical_Order=2*
G04 Layer_Color=16711680*
%FSLAX44Y44*%
%MOMM*%
G71*
G04*
G04 #@! TF.SameCoordinates,A50CEC98-9E7F-4872-83A6-73E00EFDE561*
G04*
G04*
G04 #@! TF.FilePolarity,Positive*
G04*
G01*
G75*
%ADD37C,0.2540*%
%ADD38C,4.5000*%
%ADD39R,1.6000X1.6000*%
%ADD40C,1.6000*%
%ADD41O,3.0480X1.5240*%
%ADD42C,3.1750*%
%ADD43C,0.6000*%
%ADD44C,0.7564*%
G36*
X500828Y588481D02*
X500511Y588068D01*
X499848Y587313D01*
X498111Y584713D01*
X497667Y583812D01*
X497164Y582941D01*
X495967Y580052D01*
X495707Y579081D01*
X495384Y578130D01*
X494774Y575063D01*
X494709Y574060D01*
X494577Y573064D01*
Y569936D01*
X494709Y568940D01*
X494774Y567937D01*
X495384Y564870D01*
X495707Y563918D01*
X495967Y562948D01*
X497164Y560059D01*
X497667Y559188D01*
X498111Y558287D01*
X499848Y555687D01*
X500511Y554931D01*
X501123Y554134D01*
X503334Y551923D01*
X504132Y551311D01*
X504887Y550648D01*
X507487Y548911D01*
X508388Y548467D01*
X509259Y547964D01*
X512148Y546767D01*
X513119Y546507D01*
X514070Y546184D01*
X517137Y545574D01*
X518140Y545508D01*
X519136Y545377D01*
X522263D01*
X523260Y545508D01*
X524263Y545574D01*
X527330Y546184D01*
X528281Y546507D01*
X529252Y546767D01*
X532141Y547964D01*
X533012Y548467D01*
X533913Y548911D01*
X536513Y550648D01*
X537268Y551311D01*
X538066Y551923D01*
X538578Y552435D01*
X539751Y551949D01*
Y44951D01*
X538578Y44465D01*
X538066Y44977D01*
X537268Y45589D01*
X536513Y46252D01*
X533913Y47989D01*
X533012Y48433D01*
X532141Y48936D01*
X529252Y50132D01*
X528281Y50393D01*
X527330Y50716D01*
X524263Y51326D01*
X523260Y51392D01*
X522263Y51523D01*
X519136D01*
X518140Y51392D01*
X517137Y51326D01*
X514070Y50716D01*
X513119Y50393D01*
X512148Y50132D01*
X509259Y48936D01*
X508388Y48433D01*
X507487Y47989D01*
X504887Y46252D01*
X504132Y45589D01*
X503334Y44977D01*
X501123Y42766D01*
X500511Y41968D01*
X499848Y41213D01*
X498111Y38613D01*
X497667Y37712D01*
X497164Y36841D01*
X495967Y33952D01*
X495707Y32981D01*
X495384Y32030D01*
X494774Y28963D01*
X494709Y27960D01*
X494577Y26964D01*
Y23836D01*
X494709Y22840D01*
X494774Y21837D01*
X495384Y18770D01*
X495707Y17818D01*
X495967Y16848D01*
X497164Y13959D01*
X497667Y13088D01*
X498111Y12187D01*
X498659Y11368D01*
X498060Y10248D01*
X48040D01*
X47441Y11368D01*
X47989Y12187D01*
X48433Y13088D01*
X48936Y13959D01*
X50132Y16848D01*
X50393Y17819D01*
X50716Y18770D01*
X51326Y21837D01*
X51392Y22840D01*
X51523Y23836D01*
Y26964D01*
X51392Y27960D01*
X51326Y28963D01*
X50716Y32030D01*
X50393Y32981D01*
X50132Y33952D01*
X48936Y36841D01*
X48433Y37712D01*
X47989Y38613D01*
X46252Y41213D01*
X45589Y41968D01*
X44977Y42766D01*
X42766Y44977D01*
X41968Y45589D01*
X41213Y46252D01*
X38613Y47989D01*
X37712Y48433D01*
X36841Y48936D01*
X33952Y50132D01*
X32981Y50393D01*
X32030Y50716D01*
X28963Y51326D01*
X27960Y51392D01*
X26964Y51523D01*
X23836D01*
X22840Y51392D01*
X21837Y51326D01*
X18770Y50716D01*
X17819Y50393D01*
X16848Y50132D01*
X13959Y48936D01*
X13088Y48433D01*
X12187Y47989D01*
X11368Y47441D01*
X10248Y48040D01*
Y548860D01*
X11368Y549459D01*
X12187Y548911D01*
X13088Y548467D01*
X13959Y547964D01*
X16848Y546767D01*
X17819Y546507D01*
X18770Y546184D01*
X21837Y545574D01*
X22840Y545508D01*
X23836Y545377D01*
X26964D01*
X27960Y545508D01*
X28963Y545574D01*
X32030Y546184D01*
X32981Y546507D01*
X33952Y546767D01*
X36841Y547964D01*
X37712Y548467D01*
X38613Y548911D01*
X41213Y550648D01*
X41968Y551311D01*
X42766Y551923D01*
X44977Y554134D01*
X45589Y554932D01*
X46252Y555687D01*
X47989Y558287D01*
X48433Y559188D01*
X48936Y560059D01*
X50132Y562948D01*
X50393Y563919D01*
X50716Y564870D01*
X51326Y567937D01*
X51392Y568940D01*
X51523Y569936D01*
Y573064D01*
X51392Y574060D01*
X51326Y575063D01*
X50716Y578130D01*
X50393Y579081D01*
X50132Y580052D01*
X48936Y582941D01*
X48433Y583812D01*
X47989Y584713D01*
X46252Y587313D01*
X45589Y588069D01*
X45272Y588481D01*
X45791Y589751D01*
X105276D01*
Y589475D01*
X105755Y587689D01*
X106679Y586087D01*
X107987Y584780D01*
X109589Y583855D01*
X111375Y583376D01*
X113225D01*
X115011Y583855D01*
X116613Y584780D01*
X117921Y586087D01*
X118845Y587689D01*
X119324Y589475D01*
Y589751D01*
X130676D01*
Y589475D01*
X131155Y587689D01*
X132079Y586087D01*
X133387Y584780D01*
X134989Y583855D01*
X136775Y583376D01*
X138625D01*
X140411Y583855D01*
X142013Y584780D01*
X143321Y586087D01*
X144245Y587689D01*
X144724Y589475D01*
Y589751D01*
X195276D01*
Y589475D01*
X195755Y587689D01*
X196679Y586087D01*
X197987Y584780D01*
X199589Y583855D01*
X201375Y583376D01*
X203225D01*
X205011Y583855D01*
X206613Y584780D01*
X207920Y586087D01*
X208845Y587689D01*
X209324Y589475D01*
Y589751D01*
X220676D01*
Y589475D01*
X221154Y587689D01*
X222079Y586087D01*
X223387Y584780D01*
X224989Y583855D01*
X226775Y583376D01*
X228624D01*
X230411Y583855D01*
X232013Y584780D01*
X233320Y586087D01*
X234245Y587689D01*
X234724Y589475D01*
Y589751D01*
X285276D01*
Y589475D01*
X285755Y587689D01*
X286680Y586087D01*
X287987Y584780D01*
X289589Y583855D01*
X291375Y583376D01*
X293225D01*
X295011Y583855D01*
X296613Y584780D01*
X297921Y586087D01*
X298846Y587689D01*
X299324Y589475D01*
Y589751D01*
X310676D01*
Y589475D01*
X311155Y587689D01*
X312080Y586087D01*
X313387Y584780D01*
X314989Y583855D01*
X316775Y583376D01*
X318625D01*
X320411Y583855D01*
X322013Y584780D01*
X323321Y586087D01*
X324245Y587689D01*
X324724Y589475D01*
Y589751D01*
X500309D01*
X500828Y588481D01*
D02*
G37*
%LPC*%
G36*
X327224Y574524D02*
X308176D01*
Y555476D01*
X327224D01*
Y574524D01*
D02*
G37*
G36*
X293554D02*
X291046D01*
X288624Y573875D01*
X286452Y572621D01*
X284679Y570848D01*
X283425Y568676D01*
X282776Y566254D01*
Y563746D01*
X283425Y561324D01*
X284679Y559152D01*
X286452Y557379D01*
X288624Y556125D01*
X291046Y555476D01*
X293554D01*
X295976Y556125D01*
X298148Y557379D01*
X299921Y559152D01*
X301175Y561324D01*
X301824Y563746D01*
Y566254D01*
X301175Y568676D01*
X299921Y570848D01*
X298148Y572621D01*
X295976Y573875D01*
X293554Y574524D01*
D02*
G37*
G36*
X237224D02*
X218176D01*
Y555476D01*
X237224D01*
Y574524D01*
D02*
G37*
G36*
X203554D02*
X201046D01*
X198624Y573875D01*
X196452Y572621D01*
X194679Y570848D01*
X193425Y568676D01*
X192776Y566254D01*
Y563746D01*
X193425Y561324D01*
X194679Y559152D01*
X196452Y557379D01*
X198624Y556125D01*
X201046Y555476D01*
X203554D01*
X205976Y556125D01*
X208148Y557379D01*
X209921Y559152D01*
X211175Y561324D01*
X211824Y563746D01*
Y566254D01*
X211175Y568676D01*
X209921Y570848D01*
X208148Y572621D01*
X205976Y573875D01*
X203554Y574524D01*
D02*
G37*
G36*
X147224D02*
X128176D01*
Y555476D01*
X147224D01*
Y574524D01*
D02*
G37*
G36*
X113554D02*
X111046D01*
X108624Y573875D01*
X106452Y572621D01*
X104679Y570848D01*
X103425Y568676D01*
X102776Y566254D01*
Y563746D01*
X103425Y561324D01*
X104679Y559152D01*
X106452Y557379D01*
X108624Y556125D01*
X111046Y555476D01*
X113554D01*
X115976Y556125D01*
X118148Y557379D01*
X119921Y559152D01*
X121175Y561324D01*
X121824Y563746D01*
Y566254D01*
X121175Y568676D01*
X119921Y570848D01*
X118148Y572621D01*
X115976Y573875D01*
X113554Y574524D01*
D02*
G37*
G36*
X434166Y582824D02*
X429434D01*
X424793Y581901D01*
X420420Y580090D01*
X416486Y577461D01*
X413139Y574114D01*
X410510Y570180D01*
X408699Y565807D01*
X407776Y561166D01*
Y556434D01*
X408699Y551792D01*
X410510Y547420D01*
X413139Y543486D01*
X416486Y540139D01*
X420420Y537510D01*
X424793Y535699D01*
X429434Y534776D01*
X434166D01*
X438807Y535699D01*
X443180Y537510D01*
X447114Y540139D01*
X450461Y543486D01*
X453090Y547420D01*
X454901Y551792D01*
X455824Y556434D01*
Y561166D01*
X454901Y565807D01*
X453090Y570180D01*
X450461Y574114D01*
X447114Y577461D01*
X443180Y580090D01*
X438807Y581901D01*
X434166Y582824D01*
D02*
G37*
G36*
X487619Y550522D02*
X472379D01*
X469992Y550208D01*
X467768Y549287D01*
X465858Y547821D01*
X464392Y545911D01*
X463470Y543686D01*
X463156Y541299D01*
X463470Y538912D01*
X464392Y536688D01*
X465858Y534778D01*
X467768Y533312D01*
X469992Y532391D01*
X472379Y532076D01*
X487619D01*
X490006Y532391D01*
X492230Y533312D01*
X494141Y534778D01*
X495606Y536688D01*
X496528Y538912D01*
X496842Y541299D01*
X496528Y543686D01*
X495606Y545911D01*
X494141Y547821D01*
X492230Y549287D01*
X490006Y550208D01*
X487619Y550522D01*
D02*
G37*
G36*
X77620D02*
X62380D01*
X59993Y550208D01*
X57768Y549287D01*
X55858Y547821D01*
X54393Y545911D01*
X53471Y543686D01*
X53157Y541299D01*
X53471Y538912D01*
X54393Y536688D01*
X55858Y534778D01*
X57768Y533312D01*
X59993Y532391D01*
X62380Y532076D01*
X77620D01*
X80007Y532391D01*
X82231Y533312D01*
X84141Y534778D01*
X85607Y536688D01*
X86529Y538912D01*
X86843Y541299D01*
X86529Y543686D01*
X85607Y545911D01*
X84141Y547821D01*
X82231Y549287D01*
X80007Y550208D01*
X77620Y550522D01*
D02*
G37*
G36*
X487619Y525122D02*
X472379D01*
X469992Y524808D01*
X467768Y523887D01*
X465858Y522421D01*
X464392Y520511D01*
X463470Y518287D01*
X463156Y515899D01*
X463470Y513512D01*
X464392Y511288D01*
X465858Y509378D01*
X467768Y507912D01*
X469992Y506991D01*
X472379Y506676D01*
X487619D01*
X490006Y506991D01*
X492230Y507912D01*
X494141Y509378D01*
X495606Y511288D01*
X496528Y513512D01*
X496842Y515899D01*
X496528Y518287D01*
X495606Y520511D01*
X494141Y522421D01*
X492230Y523887D01*
X490006Y524808D01*
X487619Y525122D01*
D02*
G37*
G36*
X77620D02*
X62380D01*
X59993Y524808D01*
X57768Y523887D01*
X55858Y522421D01*
X54393Y520511D01*
X53471Y518287D01*
X53157Y515899D01*
X53471Y513512D01*
X54393Y511288D01*
X55858Y509378D01*
X57768Y507912D01*
X59993Y506991D01*
X62380Y506676D01*
X77620D01*
X80007Y506991D01*
X82231Y507912D01*
X84141Y509378D01*
X85607Y511288D01*
X86529Y513512D01*
X86843Y515899D01*
X86529Y518287D01*
X85607Y520511D01*
X84141Y522421D01*
X82231Y523887D01*
X80007Y524808D01*
X77620Y525122D01*
D02*
G37*
G36*
X487619Y499722D02*
X472379D01*
X469992Y499408D01*
X467768Y498487D01*
X465858Y497021D01*
X464392Y495111D01*
X463470Y492887D01*
X463156Y490499D01*
X463470Y488112D01*
X464392Y485888D01*
X465858Y483978D01*
X467768Y482512D01*
X469992Y481591D01*
X472379Y481277D01*
X487619D01*
X490006Y481591D01*
X492230Y482512D01*
X494141Y483978D01*
X495606Y485888D01*
X496528Y488112D01*
X496842Y490499D01*
X496528Y492887D01*
X495606Y495111D01*
X494141Y497021D01*
X492230Y498487D01*
X490006Y499408D01*
X487619Y499722D01*
D02*
G37*
G36*
X77620D02*
X62380D01*
X59993Y499408D01*
X57768Y498487D01*
X55858Y497021D01*
X54393Y495111D01*
X53471Y492887D01*
X53157Y490499D01*
X53471Y488112D01*
X54393Y485888D01*
X55858Y483978D01*
X57768Y482512D01*
X59993Y481591D01*
X62380Y481277D01*
X77620D01*
X80007Y481591D01*
X82231Y482512D01*
X84141Y483978D01*
X85607Y485888D01*
X86529Y488112D01*
X86843Y490499D01*
X86529Y492887D01*
X85607Y495111D01*
X84141Y497021D01*
X82231Y498487D01*
X80007Y499408D01*
X77620Y499722D01*
D02*
G37*
G36*
X434266Y482240D02*
X433070D01*
Y458470D01*
X456840D01*
Y459666D01*
X455878Y464504D01*
X453990Y469061D01*
X451250Y473162D01*
X447762Y476650D01*
X443661Y479390D01*
X439104Y481278D01*
X434266Y482240D01*
D02*
G37*
G36*
X430530D02*
X429334D01*
X424496Y481278D01*
X419939Y479390D01*
X415838Y476650D01*
X412350Y473162D01*
X409610Y469061D01*
X407722Y464504D01*
X406760Y459666D01*
Y458470D01*
X430530D01*
Y482240D01*
D02*
G37*
G36*
X487619Y474322D02*
X472379D01*
X469992Y474008D01*
X467768Y473087D01*
X465858Y471621D01*
X464392Y469711D01*
X463470Y467486D01*
X463156Y465099D01*
X463470Y462712D01*
X464392Y460488D01*
X465858Y458578D01*
X467768Y457112D01*
X469992Y456191D01*
X472379Y455877D01*
X487619D01*
X490006Y456191D01*
X492230Y457112D01*
X494141Y458578D01*
X495606Y460488D01*
X496528Y462712D01*
X496842Y465099D01*
X496528Y467486D01*
X495606Y469711D01*
X494141Y471621D01*
X492230Y473087D01*
X490006Y474008D01*
X487619Y474322D01*
D02*
G37*
G36*
X77620D02*
X62380D01*
X59993Y474008D01*
X57768Y473087D01*
X55858Y471621D01*
X54393Y469711D01*
X53471Y467486D01*
X53157Y465099D01*
X53471Y462712D01*
X54393Y460488D01*
X55858Y458578D01*
X57768Y457112D01*
X59993Y456191D01*
X62380Y455877D01*
X77620D01*
X80007Y456191D01*
X82231Y457112D01*
X84141Y458578D01*
X85607Y460488D01*
X86529Y462712D01*
X86843Y465099D01*
X86529Y467486D01*
X85607Y469711D01*
X84141Y471621D01*
X82231Y473087D01*
X80007Y474008D01*
X77620Y474322D01*
D02*
G37*
G36*
X456840Y455930D02*
X433070D01*
Y432160D01*
X434266D01*
X439104Y433122D01*
X443661Y435010D01*
X447762Y437750D01*
X451250Y441238D01*
X453990Y445339D01*
X455878Y449896D01*
X456840Y454734D01*
Y455930D01*
D02*
G37*
G36*
X430530D02*
X406760D01*
Y454734D01*
X407722Y449896D01*
X409610Y445339D01*
X412350Y441238D01*
X415838Y437750D01*
X419939Y435010D01*
X424496Y433122D01*
X429334Y432160D01*
X430530D01*
Y455930D01*
D02*
G37*
G36*
X487619Y448922D02*
X472379D01*
X469992Y448608D01*
X467768Y447687D01*
X465858Y446221D01*
X464392Y444311D01*
X463470Y442086D01*
X463156Y439699D01*
X463470Y437312D01*
X464392Y435088D01*
X465858Y433178D01*
X467768Y431712D01*
X469992Y430791D01*
X472379Y430476D01*
X487619D01*
X490006Y430791D01*
X492230Y431712D01*
X494141Y433178D01*
X495606Y435088D01*
X496528Y437312D01*
X496842Y439699D01*
X496528Y442086D01*
X495606Y444311D01*
X494141Y446221D01*
X492230Y447687D01*
X490006Y448608D01*
X487619Y448922D01*
D02*
G37*
G36*
X77620D02*
X62380D01*
X59993Y448608D01*
X57768Y447687D01*
X55858Y446221D01*
X54393Y444311D01*
X53471Y442086D01*
X53157Y439699D01*
X53471Y437312D01*
X54393Y435088D01*
X55858Y433178D01*
X57768Y431712D01*
X59993Y430791D01*
X62380Y430476D01*
X77620D01*
X80007Y430791D01*
X82231Y431712D01*
X84141Y433178D01*
X85607Y435088D01*
X86529Y437312D01*
X86843Y439699D01*
X86529Y442086D01*
X85607Y444311D01*
X84141Y446221D01*
X82231Y447687D01*
X80007Y448608D01*
X77620Y448922D01*
D02*
G37*
G36*
X487619Y423522D02*
X472379D01*
X469992Y423208D01*
X467768Y422287D01*
X465858Y420821D01*
X464392Y418911D01*
X463470Y416687D01*
X463156Y414299D01*
X463470Y411912D01*
X464392Y409688D01*
X465858Y407778D01*
X467768Y406312D01*
X469992Y405391D01*
X472379Y405076D01*
X487619D01*
X490006Y405391D01*
X492230Y406312D01*
X494141Y407778D01*
X495606Y409688D01*
X496528Y411912D01*
X496842Y414299D01*
X496528Y416687D01*
X495606Y418911D01*
X494141Y420821D01*
X492230Y422287D01*
X490006Y423208D01*
X487619Y423522D01*
D02*
G37*
G36*
X77620D02*
X62380D01*
X59993Y423208D01*
X57768Y422287D01*
X55858Y420821D01*
X54393Y418911D01*
X53471Y416687D01*
X53157Y414299D01*
X53471Y411912D01*
X54393Y409688D01*
X55858Y407778D01*
X57768Y406312D01*
X59993Y405391D01*
X62380Y405076D01*
X77620D01*
X80007Y405391D01*
X82231Y406312D01*
X84141Y407778D01*
X85607Y409688D01*
X86529Y411912D01*
X86843Y414299D01*
X86529Y416687D01*
X85607Y418911D01*
X84141Y420821D01*
X82231Y422287D01*
X80007Y423208D01*
X77620Y423522D01*
D02*
G37*
G36*
X318301Y413738D02*
X316191D01*
X314240Y412930D01*
X312748Y411438D01*
X311940Y409487D01*
Y407377D01*
X312005Y407220D01*
X169533Y264748D01*
X86337D01*
X85607Y266511D01*
X84141Y268421D01*
X82231Y269887D01*
X80007Y270808D01*
X77620Y271122D01*
X62380D01*
X59993Y270808D01*
X57768Y269887D01*
X56938Y269250D01*
X55493Y269741D01*
X55405Y270070D01*
X58330Y272995D01*
X89662D01*
X89662Y272995D01*
X90752Y273212D01*
X91676Y273830D01*
X193352Y375505D01*
X193509Y375440D01*
X195619D01*
X197570Y376248D01*
X199062Y377740D01*
X199870Y379691D01*
Y381801D01*
X199062Y383752D01*
X197570Y385244D01*
X195619Y386052D01*
X193509D01*
X191558Y385244D01*
X190066Y383752D01*
X189258Y381801D01*
Y379691D01*
X189323Y379534D01*
X88482Y278693D01*
X83510D01*
X83079Y279963D01*
X84141Y280778D01*
X85607Y282688D01*
X86529Y284912D01*
X86843Y287299D01*
X86529Y289687D01*
X85607Y291911D01*
X84141Y293821D01*
X82231Y295287D01*
X80007Y296208D01*
X77620Y296522D01*
X62380D01*
X59993Y296208D01*
X57768Y295287D01*
X55858Y293821D01*
X54393Y291911D01*
X53471Y289687D01*
X53157Y287299D01*
X53471Y284912D01*
X54393Y282688D01*
X55858Y280778D01*
X56970Y279925D01*
X56625Y278588D01*
X56060Y278476D01*
X55136Y277858D01*
X55136Y277858D01*
X49929Y272651D01*
X49311Y271727D01*
X49094Y270637D01*
X49094Y270637D01*
Y236880D01*
X49094Y236880D01*
X49311Y235790D01*
X49929Y234866D01*
X50310Y234485D01*
X50310Y234485D01*
X51234Y233867D01*
X52324Y233651D01*
X53663D01*
X54393Y231888D01*
X55858Y229978D01*
X57768Y228512D01*
X59993Y227591D01*
X62380Y227276D01*
X77620D01*
X80007Y227591D01*
X82231Y228512D01*
X84141Y229978D01*
X85607Y231888D01*
X86529Y234112D01*
X86843Y236499D01*
X86529Y238887D01*
X85607Y241111D01*
X84141Y243021D01*
X82231Y244487D01*
X80007Y245408D01*
X77620Y245722D01*
X62380D01*
X59993Y245408D01*
X57768Y244487D01*
X56062Y243177D01*
X54792Y243520D01*
Y254879D01*
X56062Y255222D01*
X57768Y253912D01*
X59993Y252991D01*
X62380Y252677D01*
X77620D01*
X80007Y252991D01*
X82231Y253912D01*
X84141Y255378D01*
X85607Y257288D01*
X86337Y259051D01*
X170713D01*
X170713Y259051D01*
X171804Y259268D01*
X172728Y259885D01*
X316034Y403191D01*
X316191Y403126D01*
X318301D01*
X320252Y403934D01*
X321744Y405426D01*
X322552Y407377D01*
Y409487D01*
X321744Y411438D01*
X320252Y412930D01*
X318301Y413738D01*
D02*
G37*
G36*
X487619Y398122D02*
X472379D01*
X469992Y397808D01*
X467768Y396887D01*
X465858Y395421D01*
X464392Y393511D01*
X463470Y391287D01*
X463156Y388899D01*
X463470Y386512D01*
X464392Y384288D01*
X465858Y382378D01*
X467768Y380912D01*
X469992Y379991D01*
X472379Y379677D01*
X487619D01*
X490006Y379991D01*
X492230Y380912D01*
X494141Y382378D01*
X495606Y384288D01*
X496528Y386512D01*
X496842Y388899D01*
X496528Y391287D01*
X495606Y393511D01*
X494141Y395421D01*
X492230Y396887D01*
X490006Y397808D01*
X487619Y398122D01*
D02*
G37*
G36*
X77620D02*
X62380D01*
X59993Y397808D01*
X57768Y396887D01*
X55858Y395421D01*
X54393Y393511D01*
X53471Y391287D01*
X53157Y388899D01*
X53471Y386512D01*
X54393Y384288D01*
X55858Y382378D01*
X57768Y380912D01*
X59993Y379991D01*
X62380Y379677D01*
X77620D01*
X80007Y379991D01*
X82231Y380912D01*
X84141Y382378D01*
X85607Y384288D01*
X86529Y386512D01*
X86843Y388899D01*
X86529Y391287D01*
X85607Y393511D01*
X84141Y395421D01*
X82231Y396887D01*
X80007Y397808D01*
X77620Y398122D01*
D02*
G37*
G36*
X487619Y372722D02*
X472379D01*
X469992Y372408D01*
X467768Y371487D01*
X465858Y370021D01*
X464392Y368111D01*
X463470Y365886D01*
X463156Y363499D01*
X463470Y361112D01*
X464392Y358888D01*
X465858Y356978D01*
X467768Y355512D01*
X469992Y354591D01*
X472379Y354277D01*
X487619D01*
X490006Y354591D01*
X492230Y355512D01*
X494141Y356978D01*
X495606Y358888D01*
X496528Y361112D01*
X496842Y363499D01*
X496528Y365886D01*
X495606Y368111D01*
X494141Y370021D01*
X492230Y371487D01*
X490006Y372408D01*
X487619Y372722D01*
D02*
G37*
G36*
X77620D02*
X62380D01*
X59993Y372408D01*
X57768Y371487D01*
X55858Y370021D01*
X54393Y368111D01*
X53471Y365886D01*
X53157Y363499D01*
X53471Y361112D01*
X54393Y358888D01*
X55858Y356978D01*
X57768Y355512D01*
X59993Y354591D01*
X62380Y354277D01*
X77620D01*
X80007Y354591D01*
X82231Y355512D01*
X84141Y356978D01*
X85607Y358888D01*
X86529Y361112D01*
X86843Y363499D01*
X86529Y365886D01*
X85607Y368111D01*
X84141Y370021D01*
X82231Y371487D01*
X80007Y372408D01*
X77620Y372722D01*
D02*
G37*
G36*
X487619Y347322D02*
X472379D01*
X469992Y347008D01*
X467768Y346087D01*
X465858Y344621D01*
X464392Y342711D01*
X463470Y340486D01*
X463156Y338099D01*
X463470Y335712D01*
X464392Y333488D01*
X465858Y331578D01*
X467768Y330112D01*
X469992Y329191D01*
X472379Y328876D01*
X487619D01*
X490006Y329191D01*
X492230Y330112D01*
X494141Y331578D01*
X495606Y333488D01*
X496528Y335712D01*
X496842Y338099D01*
X496528Y340486D01*
X495606Y342711D01*
X494141Y344621D01*
X492230Y346087D01*
X490006Y347008D01*
X487619Y347322D01*
D02*
G37*
G36*
X77620D02*
X62380D01*
X59993Y347008D01*
X57768Y346087D01*
X55858Y344621D01*
X54393Y342711D01*
X53471Y340486D01*
X53157Y338099D01*
X53471Y335712D01*
X54393Y333488D01*
X55858Y331578D01*
X57768Y330112D01*
X59993Y329191D01*
X62380Y328876D01*
X77620D01*
X80007Y329191D01*
X82231Y330112D01*
X84141Y331578D01*
X85607Y333488D01*
X86529Y335712D01*
X86843Y338099D01*
X86529Y340486D01*
X85607Y342711D01*
X84141Y344621D01*
X82231Y346087D01*
X80007Y347008D01*
X77620Y347322D01*
D02*
G37*
G36*
X487619Y321922D02*
X472379D01*
X469992Y321608D01*
X467768Y320687D01*
X465858Y319221D01*
X464392Y317311D01*
X463470Y315086D01*
X463156Y312699D01*
X463470Y310312D01*
X464392Y308088D01*
X465858Y306178D01*
X467768Y304712D01*
X469992Y303791D01*
X472379Y303477D01*
X487619D01*
X490006Y303791D01*
X492230Y304712D01*
X494141Y306178D01*
X495606Y308088D01*
X496528Y310312D01*
X496842Y312699D01*
X496528Y315086D01*
X495606Y317311D01*
X494141Y319221D01*
X492230Y320687D01*
X490006Y321608D01*
X487619Y321922D01*
D02*
G37*
G36*
X77620D02*
X62380D01*
X59993Y321608D01*
X57768Y320687D01*
X55858Y319221D01*
X54393Y317311D01*
X53471Y315086D01*
X53157Y312699D01*
X53471Y310312D01*
X54393Y308088D01*
X55858Y306178D01*
X57768Y304712D01*
X59993Y303791D01*
X62380Y303477D01*
X77620D01*
X80007Y303791D01*
X82231Y304712D01*
X84141Y306178D01*
X85607Y308088D01*
X86529Y310312D01*
X86843Y312699D01*
X86529Y315086D01*
X85607Y317311D01*
X84141Y319221D01*
X82231Y320687D01*
X80007Y321608D01*
X77620Y321922D01*
D02*
G37*
G36*
X487619Y296522D02*
X472379D01*
X469992Y296208D01*
X467768Y295287D01*
X465858Y293821D01*
X464392Y291911D01*
X463470Y289687D01*
X463156Y287299D01*
X463470Y284912D01*
X464392Y282688D01*
X465858Y280778D01*
X467768Y279312D01*
X469992Y278391D01*
X472379Y278076D01*
X487619D01*
X490006Y278391D01*
X492230Y279312D01*
X494141Y280778D01*
X495606Y282688D01*
X496528Y284912D01*
X496842Y287299D01*
X496528Y289687D01*
X495606Y291911D01*
X494141Y293821D01*
X492230Y295287D01*
X490006Y296208D01*
X487619Y296522D01*
D02*
G37*
G36*
Y271122D02*
X472379D01*
X469992Y270808D01*
X467768Y269887D01*
X465858Y268421D01*
X464392Y266511D01*
X463470Y264286D01*
X463156Y261899D01*
X463470Y259512D01*
X464392Y257288D01*
X465858Y255378D01*
X467768Y253912D01*
X469992Y252991D01*
X472379Y252677D01*
X487619D01*
X490006Y252991D01*
X492230Y253912D01*
X494141Y255378D01*
X495606Y257288D01*
X496528Y259512D01*
X496842Y261899D01*
X496528Y264286D01*
X495606Y266511D01*
X494141Y268421D01*
X492230Y269887D01*
X490006Y270808D01*
X487619Y271122D01*
D02*
G37*
G36*
Y245722D02*
X472379D01*
X469992Y245408D01*
X467768Y244487D01*
X465858Y243021D01*
X464392Y241111D01*
X463470Y238887D01*
X463156Y236499D01*
X463470Y234112D01*
X464392Y231888D01*
X465858Y229978D01*
X467768Y228512D01*
X469992Y227591D01*
X472379Y227276D01*
X487619D01*
X490006Y227591D01*
X492230Y228512D01*
X494141Y229978D01*
X495606Y231888D01*
X496528Y234112D01*
X496842Y236499D01*
X496528Y238887D01*
X495606Y241111D01*
X494141Y243021D01*
X492230Y244487D01*
X490006Y245408D01*
X487619Y245722D01*
D02*
G37*
G36*
Y220322D02*
X472379D01*
X469992Y220008D01*
X467768Y219087D01*
X465858Y217621D01*
X464392Y215711D01*
X463470Y213486D01*
X463156Y211099D01*
X463470Y208712D01*
X464392Y206488D01*
X465858Y204578D01*
X467768Y203112D01*
X469992Y202191D01*
X472379Y201877D01*
X487619D01*
X490006Y202191D01*
X492230Y203112D01*
X494141Y204578D01*
X495606Y206488D01*
X496528Y208712D01*
X496842Y211099D01*
X496528Y213486D01*
X495606Y215711D01*
X494141Y217621D01*
X492230Y219087D01*
X490006Y220008D01*
X487619Y220322D01*
D02*
G37*
G36*
X77620D02*
X62380D01*
X59993Y220008D01*
X57768Y219087D01*
X55858Y217621D01*
X54393Y215711D01*
X53471Y213486D01*
X53157Y211099D01*
X53471Y208712D01*
X54393Y206488D01*
X55858Y204578D01*
X57768Y203112D01*
X59993Y202191D01*
X62380Y201877D01*
X77620D01*
X80007Y202191D01*
X82231Y203112D01*
X84141Y204578D01*
X85607Y206488D01*
X86529Y208712D01*
X86843Y211099D01*
X86529Y213486D01*
X85607Y215711D01*
X84141Y217621D01*
X82231Y219087D01*
X80007Y220008D01*
X77620Y220322D01*
D02*
G37*
G36*
X487619Y194922D02*
X472379D01*
X469992Y194608D01*
X467768Y193687D01*
X465858Y192221D01*
X464392Y190311D01*
X463470Y188086D01*
X463156Y185699D01*
X463470Y183312D01*
X464392Y181088D01*
X465858Y179178D01*
X467768Y177712D01*
X469992Y176791D01*
X472379Y176476D01*
X487619D01*
X490006Y176791D01*
X492230Y177712D01*
X494141Y179178D01*
X495606Y181088D01*
X496528Y183312D01*
X496842Y185699D01*
X496528Y188086D01*
X495606Y190311D01*
X494141Y192221D01*
X492230Y193687D01*
X490006Y194608D01*
X487619Y194922D01*
D02*
G37*
G36*
X77620D02*
X62380D01*
X59993Y194608D01*
X57768Y193687D01*
X55858Y192221D01*
X54393Y190311D01*
X53471Y188086D01*
X53157Y185699D01*
X53471Y183312D01*
X54393Y181088D01*
X55858Y179178D01*
X57768Y177712D01*
X59993Y176791D01*
X62380Y176476D01*
X77620D01*
X80007Y176791D01*
X82231Y177712D01*
X84141Y179178D01*
X85607Y181088D01*
X86529Y183312D01*
X86843Y185699D01*
X86529Y188086D01*
X85607Y190311D01*
X84141Y192221D01*
X82231Y193687D01*
X80007Y194608D01*
X77620Y194922D01*
D02*
G37*
G36*
X487619Y169522D02*
X472379D01*
X469992Y169208D01*
X467768Y168287D01*
X465858Y166821D01*
X464392Y164911D01*
X463470Y162687D01*
X463156Y160299D01*
X463470Y157912D01*
X464392Y155688D01*
X465858Y153778D01*
X467768Y152312D01*
X469992Y151391D01*
X472379Y151076D01*
X487619D01*
X490006Y151391D01*
X492230Y152312D01*
X494141Y153778D01*
X495606Y155688D01*
X496528Y157912D01*
X496842Y160299D01*
X496528Y162687D01*
X495606Y164911D01*
X494141Y166821D01*
X492230Y168287D01*
X490006Y169208D01*
X487619Y169522D01*
D02*
G37*
G36*
Y144122D02*
X472379D01*
X469992Y143808D01*
X467768Y142887D01*
X465858Y141421D01*
X464392Y139511D01*
X463662Y137748D01*
X200787D01*
Y137806D01*
X199979Y139756D01*
X198487Y141248D01*
X196537Y142056D01*
X194426D01*
X192475Y141248D01*
X190983Y139756D01*
X190175Y137806D01*
Y135695D01*
X190983Y133744D01*
X192475Y132252D01*
X194426Y131444D01*
X196537D01*
X198001Y132051D01*
X463662D01*
X464392Y130288D01*
X465858Y128378D01*
X467768Y126912D01*
X469992Y125991D01*
X472379Y125676D01*
X487619D01*
X490006Y125991D01*
X492230Y126912D01*
X494141Y128378D01*
X495606Y130288D01*
X496528Y132512D01*
X496842Y134899D01*
X496528Y137287D01*
X495606Y139511D01*
X494141Y141421D01*
X492230Y142887D01*
X490006Y143808D01*
X487619Y144122D01*
D02*
G37*
G36*
X118657Y140180D02*
X116547D01*
X114596Y139372D01*
X113104Y137880D01*
X112296Y135929D01*
Y133819D01*
X112361Y133662D01*
X91047Y112348D01*
X86337D01*
X85607Y114111D01*
X84141Y116021D01*
X82231Y117487D01*
X80007Y118408D01*
X77620Y118722D01*
X62380D01*
X59993Y118408D01*
X57768Y117487D01*
X55858Y116021D01*
X54393Y114111D01*
X53471Y111887D01*
X53157Y109499D01*
X53471Y107112D01*
X54393Y104888D01*
X55858Y102978D01*
X57768Y101512D01*
X59993Y100591D01*
X62380Y100276D01*
X77620D01*
X80007Y100591D01*
X82231Y101512D01*
X84141Y102978D01*
X85607Y104888D01*
X86337Y106651D01*
X92227D01*
X92227Y106651D01*
X93318Y106868D01*
X94242Y107485D01*
X116390Y129633D01*
X116547Y129568D01*
X118657D01*
X120608Y130376D01*
X122100Y131868D01*
X122908Y133819D01*
Y135929D01*
X122100Y137880D01*
X120608Y139372D01*
X118657Y140180D01*
D02*
G37*
G36*
X77620Y144122D02*
X62380D01*
X59993Y143808D01*
X57768Y142887D01*
X55858Y141421D01*
X54393Y139511D01*
X53471Y137287D01*
X53157Y134899D01*
X53471Y132512D01*
X54393Y130288D01*
X55858Y128378D01*
X57768Y126912D01*
X59993Y125991D01*
X62380Y125676D01*
X77620D01*
X80007Y125991D01*
X82231Y126912D01*
X84141Y128378D01*
X85607Y130288D01*
X86529Y132512D01*
X86843Y134899D01*
X86529Y137287D01*
X85607Y139511D01*
X84141Y141421D01*
X82231Y142887D01*
X80007Y143808D01*
X77620Y144122D01*
D02*
G37*
G36*
Y169522D02*
X62380D01*
X59993Y169208D01*
X57768Y168287D01*
X55858Y166821D01*
X54393Y164911D01*
X53471Y162687D01*
X53157Y160299D01*
X53471Y157912D01*
X54393Y155688D01*
X55858Y153778D01*
X57768Y152312D01*
X59993Y151391D01*
X62380Y151076D01*
X77620D01*
X80007Y151391D01*
X82231Y152312D01*
X84141Y153778D01*
X85607Y155688D01*
X86337Y157451D01*
X124659D01*
Y114545D01*
X124502Y114480D01*
X123010Y112988D01*
X122202Y111037D01*
Y108927D01*
X123010Y106976D01*
X124502Y105484D01*
X126453Y104676D01*
X128563D01*
X130514Y105484D01*
X132006Y106976D01*
X132814Y108927D01*
Y111037D01*
X132006Y112988D01*
X130514Y114480D01*
X130357Y114545D01*
Y158750D01*
X130357Y158750D01*
X130140Y159840D01*
X129522Y160764D01*
X127973Y162314D01*
X127049Y162931D01*
X125959Y163148D01*
X125958Y163148D01*
X86337D01*
X85607Y164911D01*
X84141Y166821D01*
X82231Y168287D01*
X80007Y169208D01*
X77620Y169522D01*
D02*
G37*
G36*
X487619Y118722D02*
X472379D01*
X469992Y118408D01*
X467768Y117487D01*
X465858Y116021D01*
X464392Y114111D01*
X463470Y111887D01*
X463156Y109499D01*
X463470Y107112D01*
X464392Y104888D01*
X465858Y102978D01*
X467768Y101512D01*
X469992Y100591D01*
X472379Y100276D01*
X487619D01*
X490006Y100591D01*
X492230Y101512D01*
X494141Y102978D01*
X495606Y104888D01*
X496528Y107112D01*
X496842Y109499D01*
X496528Y111887D01*
X495606Y114111D01*
X494141Y116021D01*
X492230Y117487D01*
X490006Y118408D01*
X487619Y118722D01*
D02*
G37*
G36*
Y93322D02*
X472379D01*
X469992Y93008D01*
X467768Y92087D01*
X465858Y90621D01*
X464392Y88711D01*
X463470Y86487D01*
X463156Y84099D01*
X463470Y81712D01*
X464392Y79488D01*
X465858Y77578D01*
X467768Y76112D01*
X469992Y75191D01*
X472379Y74876D01*
X487619D01*
X490006Y75191D01*
X492230Y76112D01*
X494141Y77578D01*
X495606Y79488D01*
X496528Y81712D01*
X496842Y84099D01*
X496528Y86487D01*
X495606Y88711D01*
X494141Y90621D01*
X492230Y92087D01*
X490006Y93008D01*
X487619Y93322D01*
D02*
G37*
G36*
X77620D02*
X62380D01*
X59993Y93008D01*
X57768Y92087D01*
X55858Y90621D01*
X54393Y88711D01*
X53471Y86487D01*
X53157Y84099D01*
X53471Y81712D01*
X54393Y79488D01*
X55858Y77578D01*
X57768Y76112D01*
X59993Y75191D01*
X62380Y74876D01*
X77620D01*
X80007Y75191D01*
X82231Y76112D01*
X84141Y77578D01*
X85607Y79488D01*
X86529Y81712D01*
X86843Y84099D01*
X86529Y86487D01*
X85607Y88711D01*
X84141Y90621D01*
X82231Y92087D01*
X80007Y93008D01*
X77620Y93322D01*
D02*
G37*
G36*
X487619Y67922D02*
X472379D01*
X469992Y67608D01*
X467768Y66687D01*
X465858Y65221D01*
X464392Y63311D01*
X463470Y61087D01*
X463156Y58699D01*
X463470Y56312D01*
X464392Y54088D01*
X465858Y52178D01*
X467768Y50712D01*
X469992Y49791D01*
X472379Y49476D01*
X487619D01*
X490006Y49791D01*
X492230Y50712D01*
X494141Y52178D01*
X495606Y54088D01*
X496528Y56312D01*
X496842Y58699D01*
X496528Y61087D01*
X495606Y63311D01*
X494141Y65221D01*
X492230Y66687D01*
X490006Y67608D01*
X487619Y67922D01*
D02*
G37*
G36*
X77620D02*
X62380D01*
X59993Y67608D01*
X57768Y66687D01*
X55858Y65221D01*
X54393Y63311D01*
X53471Y61087D01*
X53157Y58699D01*
X53471Y56312D01*
X54393Y54088D01*
X55858Y52178D01*
X57768Y50712D01*
X59993Y49791D01*
X62380Y49476D01*
X77620D01*
X80007Y49791D01*
X82231Y50712D01*
X84141Y52178D01*
X85607Y54088D01*
X86529Y56312D01*
X86843Y58699D01*
X86529Y61087D01*
X85607Y63311D01*
X84141Y65221D01*
X82231Y66687D01*
X80007Y67608D01*
X77620Y67922D01*
D02*
G37*
%LPD*%
D37*
X89662Y275844D02*
X194564Y380746D01*
X57150Y275844D02*
X89662D01*
X51943Y270637D02*
X57150Y275844D01*
X51943Y236880D02*
Y270637D01*
Y236880D02*
X52324Y236499D01*
X70000D01*
Y261899D02*
X170713D01*
X317246Y408432D01*
X127508Y109982D02*
Y158750D01*
X125959Y160299D02*
X127508Y158750D01*
X70000Y160299D02*
X125959D01*
X197332Y134899D02*
X479999D01*
X195481Y136750D02*
X197332Y134899D01*
X70000Y109499D02*
X92227D01*
X117602Y134874D01*
D38*
X431800Y558800D02*
D03*
Y457200D02*
D03*
D39*
X137700Y565000D02*
D03*
X227700D02*
D03*
X317700D02*
D03*
D40*
X112300D02*
D03*
X202300D02*
D03*
X292300D02*
D03*
D41*
X70000Y109499D02*
D03*
Y160299D02*
D03*
Y58699D02*
D03*
Y541299D02*
D03*
Y515899D02*
D03*
Y490499D02*
D03*
Y465099D02*
D03*
Y439699D02*
D03*
Y414299D02*
D03*
Y388899D02*
D03*
Y363499D02*
D03*
Y338099D02*
D03*
Y312699D02*
D03*
Y287299D02*
D03*
Y261899D02*
D03*
Y236499D02*
D03*
Y211099D02*
D03*
Y185699D02*
D03*
Y134899D02*
D03*
Y84099D02*
D03*
X479999Y58699D02*
D03*
Y84099D02*
D03*
Y439699D02*
D03*
Y465099D02*
D03*
Y490499D02*
D03*
Y515899D02*
D03*
Y541299D02*
D03*
Y363499D02*
D03*
Y388899D02*
D03*
Y211099D02*
D03*
Y261899D02*
D03*
Y312699D02*
D03*
Y414299D02*
D03*
Y160299D02*
D03*
Y185699D02*
D03*
Y236499D02*
D03*
Y287299D02*
D03*
Y338099D02*
D03*
Y134899D02*
D03*
Y109499D02*
D03*
D42*
X25400Y25400D02*
D03*
X520700D02*
D03*
Y571500D02*
D03*
X25400D02*
D03*
D43*
X457200Y482600D02*
D03*
X406400D02*
D03*
X355600Y584200D02*
D03*
X482600D02*
D03*
X508000Y533400D02*
D03*
Y482600D02*
D03*
Y431800D02*
D03*
X457200D02*
D03*
X406400D02*
D03*
X508000Y381000D02*
D03*
Y330200D02*
D03*
Y279400D02*
D03*
Y228600D02*
D03*
Y177800D02*
D03*
Y127000D02*
D03*
X25400Y228600D02*
D03*
Y279400D02*
D03*
Y330200D02*
D03*
Y482600D02*
D03*
Y431800D02*
D03*
Y381000D02*
D03*
X50800Y177800D02*
D03*
X127000Y355600D02*
D03*
X152400Y279400D02*
D03*
Y228600D02*
D03*
X203200Y177800D02*
D03*
Y228600D02*
D03*
Y279400D02*
D03*
Y355600D02*
D03*
X254000Y279400D02*
D03*
X304800Y330200D02*
D03*
X355600D02*
D03*
Y279400D02*
D03*
X304800D02*
D03*
X355600Y228600D02*
D03*
X304800D02*
D03*
Y177800D02*
D03*
X355600D02*
D03*
X406400Y381000D02*
D03*
X457200D02*
D03*
Y330200D02*
D03*
X406400D02*
D03*
Y279400D02*
D03*
X457200D02*
D03*
Y228600D02*
D03*
X406400D02*
D03*
Y177800D02*
D03*
X457200D02*
D03*
Y127000D02*
D03*
X406400D02*
D03*
X330200D02*
D03*
X50800D02*
D03*
Y76200D02*
D03*
X152400D02*
D03*
X203200D02*
D03*
X279400D02*
D03*
X330200D02*
D03*
X381000D02*
D03*
X431800D02*
D03*
X482600Y25400D02*
D03*
X431800D02*
D03*
X381000D02*
D03*
X330200D02*
D03*
X279400D02*
D03*
X228600D02*
D03*
X177800D02*
D03*
X127000D02*
D03*
X76200D02*
D03*
D44*
X194564Y380746D02*
D03*
X317246Y408432D02*
D03*
X127508Y109982D02*
D03*
X195481Y136750D02*
D03*
X117602Y134874D02*
D03*
M02*
