G04*
G04 #@! TF.GenerationSoftware,Altium Limited,Altium Designer,22.11.1 (43)*
G04*
G04 Layer_Color=65535*
%FSLAX44Y44*%
%MOMM*%
G71*
G04*
G04 #@! TF.SameCoordinates,574B8DB7-C372-42A1-B7B8-984535C04094*
G04*
G04*
G04 #@! TF.FilePolarity,Positive*
G04*
G01*
G75*
%ADD10C,0.2500*%
%ADD11C,0.6000*%
%ADD12C,0.2000*%
%ADD13C,0.1270*%
D10*
X242500Y187050D02*
G03*
X242500Y187050I-1250J0D01*
G01*
X160450Y565000D02*
G03*
X160450Y565000I-1250J0D01*
G01*
X250450D02*
G03*
X250450Y565000I-1250J0D01*
G01*
X340450D02*
G03*
X340450Y565000I-1250J0D01*
G01*
X180000Y157950D02*
G03*
X180000Y157950I-1250J0D01*
G01*
D11*
X222000Y198500D02*
G03*
X222000Y198500I-3000J0D01*
G01*
X204000Y146500D02*
G03*
X204000Y146500I-3000J0D01*
G01*
D12*
X326000Y436400D02*
G03*
X326000Y436400I-1000J0D01*
G01*
X226700Y435700D02*
G03*
X226700Y435700I-1000J0D01*
G01*
X126000Y436400D02*
G03*
X126000Y436400I-1000J0D01*
G01*
X229000Y188500D02*
Y291500D01*
X191000Y188500D02*
Y291500D01*
Y188500D02*
X229000D01*
X191000Y291500D02*
X229000D01*
X97300Y596000D02*
X104620D01*
X145380D02*
X152700D01*
X97300Y534000D02*
Y596000D01*
Y534000D02*
X152700D01*
Y596000D01*
X187300D02*
X194620D01*
X235380D02*
X242700D01*
X187300Y534000D02*
Y596000D01*
Y534000D02*
X242700D01*
Y596000D01*
X277300D02*
X284620D01*
X325380D02*
X332700D01*
X277300Y534000D02*
Y596000D01*
Y534000D02*
X332700D01*
Y596000D01*
X306450Y463300D02*
Y465300D01*
X294950Y463300D02*
Y465300D01*
X211450Y463300D02*
Y465300D01*
X199950Y463300D02*
Y465300D01*
X110750Y464000D02*
Y466000D01*
X99250Y464000D02*
Y466000D01*
X111500Y404500D02*
Y405500D01*
X98500Y404500D02*
Y405500D01*
X171250Y399750D02*
Y401750D01*
X158750Y399750D02*
Y401750D01*
X211500Y404500D02*
Y405500D01*
X198500Y404500D02*
Y405500D01*
X376250Y399000D02*
Y401000D01*
X363750Y399000D02*
Y401000D01*
X306500Y404500D02*
Y405500D01*
X293500Y404500D02*
Y405500D01*
X271950Y398300D02*
Y400300D01*
X259450Y398300D02*
Y400300D01*
X279000Y101250D02*
X281000D01*
X279000Y88750D02*
X281000D01*
X279000Y121250D02*
X281000D01*
X279000Y108750D02*
X281000D01*
X279000Y141250D02*
X281000D01*
X279000Y128750D02*
X281000D01*
X129500Y216500D02*
X130500D01*
X129500Y203500D02*
X130500D01*
X129500Y241500D02*
X130500D01*
X129500Y228500D02*
X130500D01*
X129500Y266500D02*
X130500D01*
X129500Y253500D02*
X130500D01*
X191000Y53500D02*
X229000D01*
X191000Y156500D02*
X229000D01*
Y53500D02*
Y156500D01*
X191000Y53500D02*
Y156500D01*
D13*
X382200Y444650D02*
Y484150D01*
X327800Y444650D02*
Y484150D01*
X282900Y443950D02*
Y483450D01*
X228500Y443950D02*
Y483450D01*
X182200Y444650D02*
Y484150D01*
X127800Y444650D02*
Y484150D01*
X175681Y311147D02*
X172296D01*
X173988D01*
Y302683D01*
X172296Y300990D01*
X170603D01*
X168910Y302683D01*
X185838Y300990D02*
X179067D01*
X185838Y307761D01*
Y309454D01*
X184145Y311147D01*
X180760D01*
X179067Y309454D01*
X168307Y545078D02*
X164922D01*
X166614D01*
Y536614D01*
X164922Y534922D01*
X163229D01*
X161536Y536614D01*
X171693Y543386D02*
X173386Y545078D01*
X176771D01*
X178464Y543386D01*
Y541693D01*
X176771Y540000D01*
X175078D01*
X176771D01*
X178464Y538307D01*
Y536614D01*
X176771Y534922D01*
X173386D01*
X171693Y536614D01*
X258307Y545078D02*
X254922D01*
X256614D01*
Y536614D01*
X254922Y534922D01*
X253229D01*
X251536Y536614D01*
X266771Y534922D02*
Y545078D01*
X261693Y540000D01*
X268464D01*
X348307Y545078D02*
X344922D01*
X346614D01*
Y536614D01*
X344922Y534922D01*
X343229D01*
X341536Y536614D01*
X358464Y545078D02*
X351693D01*
Y540000D01*
X355078Y541693D01*
X356771D01*
X358464Y540000D01*
Y536614D01*
X356771Y534922D01*
X353386D01*
X351693Y536614D01*
X315078Y482304D02*
X304922D01*
Y487383D01*
X306614Y489075D01*
X310000D01*
X311693Y487383D01*
Y482304D01*
Y485690D02*
X315078Y489075D01*
Y492461D02*
Y495846D01*
Y494154D01*
X304922D01*
X306614Y492461D01*
X304922Y500925D02*
Y507696D01*
X306614D01*
X313386Y500925D01*
X315078D01*
X200078Y482304D02*
X189922D01*
Y487383D01*
X191614Y489075D01*
X195000D01*
X196693Y487383D01*
Y482304D01*
Y485690D02*
X200078Y489075D01*
Y492461D02*
Y495846D01*
Y494154D01*
X189922D01*
X191614Y492461D01*
X200078Y506003D02*
X189922D01*
X195000Y500925D01*
Y507696D01*
X105078Y483997D02*
X94922D01*
Y489075D01*
X96614Y490768D01*
X100000D01*
X101693Y489075D01*
Y483997D01*
Y487383D02*
X105078Y490768D01*
Y494154D02*
Y497539D01*
Y495846D01*
X94922D01*
X96614Y494154D01*
X105078Y502618D02*
Y506003D01*
Y504310D01*
X94922D01*
X96614Y502618D01*
X92304Y374922D02*
Y385078D01*
X97382D01*
X99075Y383386D01*
Y380000D01*
X97382Y378307D01*
X92304D01*
X95690D02*
X99075Y374922D01*
X102461D02*
X105846D01*
X104154D01*
Y385078D01*
X102461Y383386D01*
X117696Y374922D02*
X110925D01*
X117696Y381693D01*
Y383386D01*
X116003Y385078D01*
X112618D01*
X110925Y383386D01*
X152304Y369922D02*
Y380078D01*
X157382D01*
X159075Y378386D01*
Y375000D01*
X157382Y373307D01*
X152304D01*
X155690D02*
X159075Y369922D01*
X162461D02*
X165846D01*
X164154D01*
Y380078D01*
X162461Y378386D01*
X170925D02*
X172618Y380078D01*
X176003D01*
X177696Y378386D01*
Y371614D01*
X176003Y369922D01*
X172618D01*
X170925Y371614D01*
Y378386D01*
X192304Y369922D02*
Y380078D01*
X197383D01*
X199075Y378386D01*
Y375000D01*
X197383Y373307D01*
X192304D01*
X195690D02*
X199075Y369922D01*
X202461D02*
X205846D01*
X204154D01*
Y380078D01*
X202461Y378386D01*
X217696Y380078D02*
X210925D01*
Y375000D01*
X214310Y376693D01*
X216003D01*
X217696Y375000D01*
Y371614D01*
X216003Y369922D01*
X212618D01*
X210925Y371614D01*
X362304Y369922D02*
Y380078D01*
X367383D01*
X369075Y378386D01*
Y375000D01*
X367383Y373307D01*
X362304D01*
X365690D02*
X369075Y369922D01*
X372461D02*
X375846D01*
X374154D01*
Y380078D01*
X372461Y378386D01*
X387696Y380078D02*
X384310Y378386D01*
X380925Y375000D01*
Y371614D01*
X382618Y369922D01*
X386003D01*
X387696Y371614D01*
Y373307D01*
X386003Y375000D01*
X380925D01*
X292304Y369922D02*
Y380078D01*
X297383D01*
X299075Y378386D01*
Y375000D01*
X297383Y373307D01*
X292304D01*
X295690D02*
X299075Y369922D01*
X302461D02*
X305846D01*
X304154D01*
Y380078D01*
X302461Y378386D01*
X310925D02*
X312618Y380078D01*
X316003D01*
X317696Y378386D01*
Y376693D01*
X316003Y375000D01*
X317696Y373307D01*
Y371614D01*
X316003Y369922D01*
X312618D01*
X310925Y371614D01*
Y373307D01*
X312618Y375000D01*
X310925Y376693D01*
Y378386D01*
X312618Y375000D02*
X316003D01*
X252304Y369922D02*
Y380078D01*
X257383D01*
X259075Y378386D01*
Y375000D01*
X257383Y373307D01*
X252304D01*
X255690D02*
X259075Y369922D01*
X262461D02*
X265846D01*
X264154D01*
Y380078D01*
X262461Y378386D01*
X270925D02*
X272618Y380078D01*
X276003D01*
X277696Y378386D01*
Y376693D01*
X276003Y375000D01*
X274310D01*
X276003D01*
X277696Y373307D01*
Y371614D01*
X276003Y369922D01*
X272618D01*
X270925Y371614D01*
X260094Y99744D02*
Y89587D01*
X255016D01*
X253323Y91280D01*
Y94666D01*
X255016Y96358D01*
X260094D01*
X256709D02*
X253323Y99744D01*
X244859D02*
Y89587D01*
X249937Y94666D01*
X243166D01*
X260094Y119678D02*
Y109521D01*
X255016D01*
X253323Y111214D01*
Y114600D01*
X255016Y116292D01*
X260094D01*
X256709D02*
X253323Y119678D01*
X243166Y109521D02*
X249937D01*
Y114600D01*
X246552Y112907D01*
X244859D01*
X243166Y114600D01*
Y117985D01*
X244859Y119678D01*
X248245D01*
X249937Y117985D01*
X299906Y130388D02*
Y140545D01*
X304984D01*
X306677Y138852D01*
Y135466D01*
X304984Y133774D01*
X299906D01*
X303291D02*
X306677Y130388D01*
X310063Y132081D02*
X311755Y130388D01*
X315141D01*
X316834Y132081D01*
Y138852D01*
X315141Y140545D01*
X311755D01*
X310063Y138852D01*
Y137159D01*
X311755Y135466D01*
X316834D01*
X96412Y143576D02*
Y153733D01*
X101490D01*
X103183Y152040D01*
Y148654D01*
X101490Y146962D01*
X96412D01*
X99798D02*
X103183Y143576D01*
X106569D02*
X109954D01*
X108261D01*
Y153733D01*
X106569Y152040D01*
X96412Y113604D02*
Y123761D01*
X101490D01*
X103183Y122068D01*
Y118682D01*
X101490Y116990D01*
X96412D01*
X99798D02*
X103183Y113604D01*
X106569Y122068D02*
X108261Y123761D01*
X111647D01*
X113340Y122068D01*
Y120375D01*
X111647Y118682D01*
X109954D01*
X111647D01*
X113340Y116990D01*
Y115297D01*
X111647Y113604D01*
X108261D01*
X106569Y115297D01*
X96412Y128590D02*
Y138747D01*
X101490D01*
X103183Y137054D01*
Y133668D01*
X101490Y131976D01*
X96412D01*
X99798D02*
X103183Y128590D01*
X113340D02*
X106569D01*
X113340Y135361D01*
Y137054D01*
X111647Y138747D01*
X108261D01*
X106569Y137054D01*
X91536Y204922D02*
Y215078D01*
X96614D01*
X98307Y213386D01*
Y210000D01*
X96614Y208307D01*
X91536D01*
X94922D02*
X98307Y204922D01*
X108464Y215078D02*
X105078Y213386D01*
X101693Y210000D01*
Y206614D01*
X103386Y204922D01*
X106771D01*
X108464Y206614D01*
Y208307D01*
X106771Y210000D01*
X101693D01*
X91536Y229922D02*
Y240078D01*
X96614D01*
X98307Y238386D01*
Y235000D01*
X96614Y233307D01*
X91536D01*
X94922D02*
X98307Y229922D01*
X101693Y240078D02*
X108464D01*
Y238386D01*
X101693Y231614D01*
Y229922D01*
X91536Y254922D02*
Y265078D01*
X96614D01*
X98307Y263386D01*
Y260000D01*
X96614Y258307D01*
X91536D01*
X94922D02*
X98307Y254922D01*
X101693Y263386D02*
X103386Y265078D01*
X106771D01*
X108464Y263386D01*
Y261693D01*
X106771Y260000D01*
X108464Y258307D01*
Y256614D01*
X106771Y254922D01*
X103386D01*
X101693Y256614D01*
Y258307D01*
X103386Y260000D01*
X101693Y261693D01*
Y263386D01*
X103386Y260000D02*
X106771D01*
X331129Y508677D02*
Y515448D01*
X329436Y517141D01*
X326051D01*
X324358Y515448D01*
Y508677D01*
X326051Y506984D01*
X329436D01*
X327744Y510370D02*
X331129Y506984D01*
X329436D02*
X331129Y508677D01*
X334515Y515448D02*
X336208Y517141D01*
X339593D01*
X341286Y515448D01*
Y513755D01*
X339593Y512062D01*
X337900D01*
X339593D01*
X341286Y510370D01*
Y508677D01*
X339593Y506984D01*
X336208D01*
X334515Y508677D01*
X231815Y507915D02*
Y514686D01*
X230122Y516379D01*
X226737D01*
X225044Y514686D01*
Y507915D01*
X226737Y506222D01*
X230122D01*
X228430Y509608D02*
X231815Y506222D01*
X230122D02*
X231815Y507915D01*
X241972Y506222D02*
X235201D01*
X241972Y512993D01*
Y514686D01*
X240279Y516379D01*
X236894D01*
X235201Y514686D01*
X130977Y508677D02*
Y515448D01*
X129284Y517141D01*
X125899D01*
X124206Y515448D01*
Y508677D01*
X125899Y506984D01*
X129284D01*
X127592Y510370D02*
X130977Y506984D01*
X129284D02*
X130977Y508677D01*
X134363Y506984D02*
X137748D01*
X136055D01*
Y517141D01*
X134363Y515448D01*
X412750Y534924D02*
Y545081D01*
X417828D01*
X419521Y543388D01*
Y540002D01*
X417828Y538310D01*
X412750D01*
X422907Y545081D02*
X429678D01*
X426292D01*
Y534924D01*
X433063Y545081D02*
Y534924D01*
Y540002D01*
X439835D01*
Y545081D01*
Y534924D01*
X449991D02*
X443220D01*
X449991Y541695D01*
Y543388D01*
X448298Y545081D01*
X444913D01*
X443220Y543388D01*
X412750Y584962D02*
Y595119D01*
X417828D01*
X419521Y593426D01*
Y590040D01*
X417828Y588348D01*
X412750D01*
X422907Y595119D02*
X429678D01*
X426292D01*
Y584962D01*
X433063Y595119D02*
Y584962D01*
Y590040D01*
X439835D01*
Y595119D01*
Y584962D01*
X443220D02*
X446606D01*
X444913D01*
Y595119D01*
X443220Y593426D01*
X175681Y177035D02*
X172296D01*
X173988D01*
Y168571D01*
X172296Y166878D01*
X170603D01*
X168910Y168571D01*
X179067Y166878D02*
X182452D01*
X180760D01*
Y177035D01*
X179067Y175342D01*
X41555Y52009D02*
Y48623D01*
Y50316D01*
X50019D01*
X51712Y48623D01*
Y46930D01*
X50019Y45237D01*
X51712Y55394D02*
X41555D01*
Y60472D01*
X43248Y62165D01*
X46634D01*
X48326Y60472D01*
Y55394D01*
X51712Y72322D02*
Y65551D01*
X44941Y72322D01*
X43248D01*
X41555Y70629D01*
Y67244D01*
X43248Y65551D01*
X474843Y21771D02*
Y18386D01*
Y20078D01*
X483307D01*
X485000Y18386D01*
Y16693D01*
X483307Y15000D01*
X485000Y25157D02*
X474843D01*
Y30235D01*
X476536Y31928D01*
X479922D01*
X481614Y30235D01*
Y25157D01*
X485000Y35313D02*
Y38699D01*
Y37006D01*
X474843D01*
X476536Y35313D01*
M02*
