G04*
G04 #@! TF.GenerationSoftware,Altium Limited,Altium Designer,22.11.1 (43)*
G04*
G04 Layer_Color=16711935*
%FSLAX44Y44*%
%MOMM*%
G71*
G04*
G04 #@! TF.SameCoordinates,574B8DB7-C372-42A1-B7B8-984535C04094*
G04*
G04*
G04 #@! TF.FilePolarity,Negative*
G04*
G01*
G75*
%ADD31R,1.8032X1.8032*%
%ADD32C,1.8032*%
%ADD33C,3.7032*%
%ADD34O,3.2512X1.7272*%
%ADD35C,3.3782*%
D31*
X137700Y565000D02*
D03*
X227700D02*
D03*
X317700D02*
D03*
D32*
X112300D02*
D03*
X202300D02*
D03*
X292300D02*
D03*
D33*
X430000Y510000D02*
D03*
Y560000D02*
D03*
D34*
X70000Y109499D02*
D03*
Y160299D02*
D03*
Y58699D02*
D03*
Y541299D02*
D03*
Y515899D02*
D03*
Y490499D02*
D03*
Y465099D02*
D03*
Y439699D02*
D03*
Y414299D02*
D03*
Y388899D02*
D03*
Y363499D02*
D03*
Y338099D02*
D03*
Y312699D02*
D03*
Y287299D02*
D03*
Y261899D02*
D03*
Y236499D02*
D03*
Y211099D02*
D03*
Y185699D02*
D03*
Y134899D02*
D03*
Y84099D02*
D03*
X479999Y58699D02*
D03*
Y84099D02*
D03*
Y439699D02*
D03*
Y465099D02*
D03*
Y490499D02*
D03*
Y515899D02*
D03*
Y541299D02*
D03*
Y363499D02*
D03*
Y388899D02*
D03*
Y211099D02*
D03*
Y261899D02*
D03*
Y312699D02*
D03*
Y414299D02*
D03*
Y160299D02*
D03*
Y185699D02*
D03*
Y236499D02*
D03*
Y287299D02*
D03*
Y338099D02*
D03*
Y134899D02*
D03*
Y109499D02*
D03*
D35*
X25400Y25400D02*
D03*
X520700D02*
D03*
Y571500D02*
D03*
X25400D02*
D03*
M02*
